solid OpenSCAD_Model
  facet normal 1 -0 0
    outer loop
      vertex 13 6.94967 5.63348
      vertex 13 12 3.26175
      vertex 13 12 10
    endloop
  endfacet
  facet normal 1 0 0
    outer loop
      vertex 13 12 3.26175
      vertex 13 6.94967 5.63348
      vertex 13 7.05 5
    endloop
  endfacet
  facet normal 1 0 0
    outer loop
      vertex 13 12 10
      vertex 13 6.65848 6.20496
      vertex 13 6.94967 5.63348
    endloop
  endfacet
  facet normal 1 0 0
    outer loop
      vertex 13 12 10
      vertex 13 6.20496 6.65848
      vertex 13 6.65848 6.20496
    endloop
  endfacet
  facet normal 1 -0 0
    outer loop
      vertex 13 5 10
      vertex 13 6.20496 6.65848
      vertex 13 12 10
    endloop
  endfacet
  facet normal 1 0 0
    outer loop
      vertex 13 6.20496 6.65848
      vertex 13 5 10
      vertex 13 5.63348 6.94967
    endloop
  endfacet
  facet normal 1 0 0
    outer loop
      vertex 13 5 10
      vertex 13 5 7.05
      vertex 13 5.63348 6.94967
    endloop
  endfacet
  facet normal 1 0 0
    outer loop
      vertex 13 5 10
      vertex 13 4.36652 6.94967
      vertex 13 5 7.05
    endloop
  endfacet
  facet normal 1 -0 0
    outer loop
      vertex 13 3.45491 9.75528
      vertex 13 4.36652 6.94967
      vertex 13 5 10
    endloop
  endfacet
  facet normal 1 0 0
    outer loop
      vertex 13 4.36652 6.94967
      vertex 13 3.45491 9.75528
      vertex 13 3.79504 6.65848
    endloop
  endfacet
  facet normal 1 -0 0
    outer loop
      vertex 13 2.06107 9.04508
      vertex 13 3.79504 6.65848
      vertex 13 3.45491 9.75528
    endloop
  endfacet
  facet normal 1 0 0
    outer loop
      vertex 13 3.79504 6.65848
      vertex 13 2.06107 9.04508
      vertex 13 3.34152 6.20496
    endloop
  endfacet
  facet normal 1 -0 0
    outer loop
      vertex 13 0.954914 7.93893
      vertex 13 3.34152 6.20496
      vertex 13 2.06107 9.04508
    endloop
  endfacet
  facet normal 1 0 0
    outer loop
      vertex 13 3.34152 6.20496
      vertex 13 0.954914 7.93893
      vertex 13 3.05033 5.63348
    endloop
  endfacet
  facet normal 1 -0 0
    outer loop
      vertex 13 6.94967 4.36652
      vertex 13 12 3.26175
      vertex 13 7.05 5
    endloop
  endfacet
  facet normal 1 -0 0
    outer loop
      vertex 13 6.65848 3.79504
      vertex 13 12 3.26175
      vertex 13 6.94967 4.36652
    endloop
  endfacet
  facet normal 1 -0 0
    outer loop
      vertex 13 6.20496 3.34152
      vertex 13 12 3.26175
      vertex 13 6.65848 3.79504
    endloop
  endfacet
  facet normal 1 0 0
    outer loop
      vertex 13 12 3.26175
      vertex 13 6.20496 3.34152
      vertex 13 5 0
    endloop
  endfacet
  facet normal 1 0 0
    outer loop
      vertex 13 5 0
      vertex 13 6.20496 3.34152
      vertex 13 5.63348 3.05033
    endloop
  endfacet
  facet normal 1 0 0
    outer loop
      vertex 13 5 0
      vertex 13 5.63348 3.05033
      vertex 13 5 2.95
    endloop
  endfacet
  facet normal 1 0 0
    outer loop
      vertex 13 12 3.26175
      vertex 13 5 0
      vertex 13 26.1282 0
    endloop
  endfacet
  facet normal 1 0 0
    outer loop
      vertex 13 4.36652 3.05033
      vertex 13 5 0
      vertex 13 5 2.95
    endloop
  endfacet
  facet normal 1 0 0
    outer loop
      vertex 13 3.45491 0.244717
      vertex 13 4.36652 3.05033
      vertex 13 3.79504 3.34152
    endloop
  endfacet
  facet normal 1 0 0
    outer loop
      vertex 13 4.36652 3.05033
      vertex 13 3.45491 0.244717
      vertex 13 5 0
    endloop
  endfacet
  facet normal 1 0 0
    outer loop
      vertex 13 2.06107 0.954914
      vertex 13 3.79504 3.34152
      vertex 13 3.34152 3.79504
    endloop
  endfacet
  facet normal 1 0 0
    outer loop
      vertex 13 0.954914 2.06107
      vertex 13 3.34152 3.79504
      vertex 13 3.05033 4.36652
    endloop
  endfacet
  facet normal 1 0 0
    outer loop
      vertex 13 0.244717 3.45491
      vertex 13 3.05033 4.36652
      vertex 13 2.95 5
    endloop
  endfacet
  facet normal 1 -0 0
    outer loop
      vertex 13 0.244717 6.54508
      vertex 13 3.05033 5.63348
      vertex 13 0.954914 7.93893
    endloop
  endfacet
  facet normal 1 0 0
    outer loop
      vertex 13 3.79504 3.34152
      vertex 13 2.06107 0.954914
      vertex 13 3.45491 0.244717
    endloop
  endfacet
  facet normal 1 0 0
    outer loop
      vertex 13 3.05033 5.63348
      vertex 13 0.244717 6.54508
      vertex 13 2.95 5
    endloop
  endfacet
  facet normal 1 0 0
    outer loop
      vertex 13 3.34152 3.79504
      vertex 13 0.954914 2.06107
      vertex 13 2.06107 0.954914
    endloop
  endfacet
  facet normal 1 0 0
    outer loop
      vertex 13 0 5
      vertex 13 2.95 5
      vertex 13 0.244717 6.54508
    endloop
  endfacet
  facet normal 1 0 0
    outer loop
      vertex 13 3.05033 4.36652
      vertex 13 0.244717 3.45491
      vertex 13 0.954914 2.06107
    endloop
  endfacet
  facet normal 1 0 0
    outer loop
      vertex 13 2.95 5
      vertex 13 0 5
      vertex 13 0.244717 3.45491
    endloop
  endfacet
  facet normal -1 0 0
    outer loop
      vertex 37 6.94967 5.63348
      vertex 37 12 3.26175
      vertex 37 7.05 5
    endloop
  endfacet
  facet normal -1 0 0
    outer loop
      vertex 37 12 3.26175
      vertex 37 6.94967 4.36652
      vertex 37 7.05 5
    endloop
  endfacet
  facet normal -1 0 0
    outer loop
      vertex 37 5 0
      vertex 37 12 3.26175
      vertex 37 26.1282 0
    endloop
  endfacet
  facet normal -1 0 0
    outer loop
      vertex 37 12 3.26175
      vertex 37 6.65848 3.79504
      vertex 37 6.94967 4.36652
    endloop
  endfacet
  facet normal -1 0 -0
    outer loop
      vertex 37 6.20496 3.34152
      vertex 37 12 3.26175
      vertex 37 5 0
    endloop
  endfacet
  facet normal -1 0 0
    outer loop
      vertex 37 12 3.26175
      vertex 37 6.20496 3.34152
      vertex 37 6.65848 3.79504
    endloop
  endfacet
  facet normal -1 0 0
    outer loop
      vertex 37 6.20496 3.34152
      vertex 37 5 0
      vertex 37 5.63348 3.05033
    endloop
  endfacet
  facet normal -1 0 0
    outer loop
      vertex 37 5 0
      vertex 37 5 2.95
      vertex 37 5.63348 3.05033
    endloop
  endfacet
  facet normal -1 0 0
    outer loop
      vertex 37 5 0
      vertex 37 4.36652 3.05033
      vertex 37 5 2.95
    endloop
  endfacet
  facet normal -1 0 0
    outer loop
      vertex 37 3.45491 0.244717
      vertex 37 4.36652 3.05033
      vertex 37 5 0
    endloop
  endfacet
  facet normal -1 -0 0
    outer loop
      vertex 37 4.36652 3.05033
      vertex 37 3.45491 0.244717
      vertex 37 3.79504 3.34152
    endloop
  endfacet
  facet normal -1 0 0
    outer loop
      vertex 37 2.06107 0.954914
      vertex 37 3.79504 3.34152
      vertex 37 3.45491 0.244717
    endloop
  endfacet
  facet normal -1 -0 0
    outer loop
      vertex 37 3.79504 3.34152
      vertex 37 2.06107 0.954914
      vertex 37 3.34152 3.79504
    endloop
  endfacet
  facet normal -1 0 0
    outer loop
      vertex 37 0.954914 2.06107
      vertex 37 3.34152 3.79504
      vertex 37 2.06107 0.954914
    endloop
  endfacet
  facet normal -1 -0 0
    outer loop
      vertex 37 3.34152 3.79504
      vertex 37 0.954914 2.06107
      vertex 37 3.05033 4.36652
    endloop
  endfacet
  facet normal -1 0 0
    outer loop
      vertex 37 12 3.26175
      vertex 37 6.94967 5.63348
      vertex 37 12 10
    endloop
  endfacet
  facet normal -1 0 0
    outer loop
      vertex 37 6.65848 6.20496
      vertex 37 12 10
      vertex 37 6.94967 5.63348
    endloop
  endfacet
  facet normal -1 0 0
    outer loop
      vertex 37 6.20496 6.65848
      vertex 37 12 10
      vertex 37 6.65848 6.20496
    endloop
  endfacet
  facet normal -1 0 0
    outer loop
      vertex 37 5 10
      vertex 37 6.20496 6.65848
      vertex 37 5.63348 6.94967
    endloop
  endfacet
  facet normal -1 0 0
    outer loop
      vertex 37 5 10
      vertex 37 5.63348 6.94967
      vertex 37 5 7.05
    endloop
  endfacet
  facet normal -1 0 0
    outer loop
      vertex 37 6.20496 6.65848
      vertex 37 5 10
      vertex 37 12 10
    endloop
  endfacet
  facet normal -1 0 0
    outer loop
      vertex 37 4.36652 6.94967
      vertex 37 5 10
      vertex 37 5 7.05
    endloop
  endfacet
  facet normal -1 0 0
    outer loop
      vertex 37 3.45491 9.75528
      vertex 37 4.36652 6.94967
      vertex 37 3.79504 6.65848
    endloop
  endfacet
  facet normal -1 0 0
    outer loop
      vertex 37 4.36652 6.94967
      vertex 37 3.45491 9.75528
      vertex 37 5 10
    endloop
  endfacet
  facet normal -1 0 0
    outer loop
      vertex 37 2.06107 9.04508
      vertex 37 3.79504 6.65848
      vertex 37 3.34152 6.20496
    endloop
  endfacet
  facet normal -1 0 0
    outer loop
      vertex 37 0.954914 7.93893
      vertex 37 3.34152 6.20496
      vertex 37 3.05033 5.63348
    endloop
  endfacet
  facet normal -1 0 0
    outer loop
      vertex 37 0.244717 6.54508
      vertex 37 3.05033 5.63348
      vertex 37 2.95 5
    endloop
  endfacet
  facet normal -1 0 0
    outer loop
      vertex 37 0.244717 3.45491
      vertex 37 3.05033 4.36652
      vertex 37 0.954914 2.06107
    endloop
  endfacet
  facet normal -1 0 0
    outer loop
      vertex 37 3.79504 6.65848
      vertex 37 2.06107 9.04508
      vertex 37 3.45491 9.75528
    endloop
  endfacet
  facet normal -1 -0 0
    outer loop
      vertex 37 3.05033 4.36652
      vertex 37 0.244717 3.45491
      vertex 37 2.95 5
    endloop
  endfacet
  facet normal -1 0 0
    outer loop
      vertex 37 3.34152 6.20496
      vertex 37 0.954914 7.93893
      vertex 37 2.06107 9.04508
    endloop
  endfacet
  facet normal -1 0 0
    outer loop
      vertex 37 0 5
      vertex 37 2.95 5
      vertex 37 0.244717 3.45491
    endloop
  endfacet
  facet normal -1 0 0
    outer loop
      vertex 37 3.05033 5.63348
      vertex 37 0.244717 6.54508
      vertex 37 0.954914 7.93893
    endloop
  endfacet
  facet normal -1 0 0
    outer loop
      vertex 37 2.95 5
      vertex 37 0 5
      vertex 37 0.244717 6.54508
    endloop
  endfacet
  facet normal 0 -1 0
    outer loop
      vertex 13 12 3.26175
      vertex 37 12 10
      vertex 13 12 10
    endloop
  endfacet
  facet normal 0 -1 -0
    outer loop
      vertex 37 12 10
      vertex 13 12 3.26175
      vertex 37 12 3.26175
    endloop
  endfacet
  facet normal 0 -0.224951 -0.97437
    outer loop
      vertex 13 12 3.26175
      vertex 37 26.1282 0
      vertex 37 12 3.26175
    endloop
  endfacet
  facet normal -0 -0.224951 -0.97437
    outer loop
      vertex 37 26.1282 0
      vertex 13 12 3.26175
      vertex 13 26.1282 0
    endloop
  endfacet
  facet normal 0 -0.156429 0.987689
    outer loop
      vertex 37 5.63348 3.05033
      vertex 46.5 5 2.95
      vertex 46.5 5.63348 3.05033
    endloop
  endfacet
  facet normal 0 -0.156429 0.987689
    outer loop
      vertex 46.5 5 2.95
      vertex 37 5.63348 3.05033
      vertex 37 5 2.95
    endloop
  endfacet
  facet normal 0 -0.156429 0.987689
    outer loop
      vertex 3.5 5.63348 3.05033
      vertex 13 5 2.95
      vertex 13 5.63348 3.05033
    endloop
  endfacet
  facet normal 0 -0.156429 0.987689
    outer loop
      vertex 13 5 2.95
      vertex 3.5 5.63348 3.05033
      vertex 3.5 5 2.95
    endloop
  endfacet
  facet normal 0 -0.156429 0.987689
    outer loop
      vertex 0 5.63348 3.05033
      vertex 4.55191e-16 5 2.95
      vertex 4.32913e-16 5.63348 3.05033
    endloop
  endfacet
  facet normal 0 -0.156429 0.987689
    outer loop
      vertex 4.55191e-16 5 2.95
      vertex 0 5.63348 3.05033
      vertex 0 5 2.95
    endloop
  endfacet
  facet normal 0 -0.156429 -0.987689
    outer loop
      vertex 37 5 7.05
      vertex 46.5 5.63348 6.94967
      vertex 46.5 5 7.05
    endloop
  endfacet
  facet normal -0 -0.156429 -0.987689
    outer loop
      vertex 46.5 5.63348 6.94967
      vertex 37 5 7.05
      vertex 37 5.63348 6.94967
    endloop
  endfacet
  facet normal 0 -0.156429 -0.987689
    outer loop
      vertex 3.5 5 7.05
      vertex 13 5.63348 6.94967
      vertex 13 5 7.05
    endloop
  endfacet
  facet normal -0 -0.156429 -0.987689
    outer loop
      vertex 13 5.63348 6.94967
      vertex 3.5 5 7.05
      vertex 3.5 5.63348 6.94967
    endloop
  endfacet
  facet normal 0 -0.987689 0.156429
    outer loop
      vertex 37 6.94967 4.36652
      vertex 46.5 7.05 5
      vertex 37 7.05 5
    endloop
  endfacet
  facet normal 0 -0.987689 0.156429
    outer loop
      vertex 46.5 7.05 5
      vertex 37 6.94967 4.36652
      vertex 46.5 6.94967 4.36652
    endloop
  endfacet
  facet normal 0 -0.987689 0.156429
    outer loop
      vertex 3.5 6.94967 4.36652
      vertex 13 7.05 5
      vertex 3.5 7.05 5
    endloop
  endfacet
  facet normal 0 -0.987689 0.156429
    outer loop
      vertex 13 7.05 5
      vertex 3.5 6.94967 4.36652
      vertex 13 6.94967 4.36652
    endloop
  endfacet
  facet normal 0 -0.987689 0.156429
    outer loop
      vertex 1.40662e-16 6.94967 4.36652
      vertex 0 7.05 5
      vertex 0 6.94967 4.36652
    endloop
  endfacet
  facet normal 0 0.987689 -0.156429
    outer loop
      vertex 46.5 2.95 5
      vertex 37 3.05033 5.63348
      vertex 46.5 3.05033 5.63348
    endloop
  endfacet
  facet normal 0 0.987689 -0.156429
    outer loop
      vertex 37 3.05033 5.63348
      vertex 46.5 2.95 5
      vertex 37 2.95 5
    endloop
  endfacet
  facet normal 0 0.987689 -0.156429
    outer loop
      vertex 13 2.95 5
      vertex 3.5 3.05033 5.63348
      vertex 13 3.05033 5.63348
    endloop
  endfacet
  facet normal 0 0.987689 -0.156429
    outer loop
      vertex 3.5 3.05033 5.63348
      vertex 13 2.95 5
      vertex 3.5 2.95 5
    endloop
  endfacet
  facet normal 0 -0.707107 0.707107
    outer loop
      vertex 37 6.20496 3.34152
      vertex 46.5 6.65848 3.79504
      vertex 37 6.65848 3.79504
    endloop
  endfacet
  facet normal 0 -0.707107 0.707107
    outer loop
      vertex 46.5 6.65848 3.79504
      vertex 37 6.20496 3.34152
      vertex 46.5 6.20496 3.34152
    endloop
  endfacet
  facet normal 0 -0.707107 0.707107
    outer loop
      vertex 3.5 6.20496 3.34152
      vertex 13 6.65848 3.79504
      vertex 3.5 6.65848 3.79504
    endloop
  endfacet
  facet normal 0 -0.707107 0.707107
    outer loop
      vertex 13 6.65848 3.79504
      vertex 3.5 6.20496 3.34152
      vertex 13 6.20496 3.34152
    endloop
  endfacet
  facet normal 0 -0.707107 0.707107
    outer loop
      vertex 0 6.20496 3.34152
      vertex 2.67555e-16 6.65848 3.79504
      vertex 0 6.65848 3.79504
    endloop
  endfacet
  facet normal 0 -0.707107 0.707107
    outer loop
      vertex 2.67555e-16 6.65848 3.79504
      vertex 0 6.20496 3.34152
      vertex 3.68258e-16 6.20496 3.34152
    endloop
  endfacet
  facet normal 0 -0.453998 0.891002
    outer loop
      vertex 37 6.20496 3.34152
      vertex 46.5 5.63348 3.05033
      vertex 46.5 6.20496 3.34152
    endloop
  endfacet
  facet normal 0 -0.453998 0.891002
    outer loop
      vertex 46.5 5.63348 3.05033
      vertex 37 6.20496 3.34152
      vertex 37 5.63348 3.05033
    endloop
  endfacet
  facet normal 0 -0.453998 0.891002
    outer loop
      vertex 3.5 6.20496 3.34152
      vertex 13 5.63348 3.05033
      vertex 13 6.20496 3.34152
    endloop
  endfacet
  facet normal 0 -0.453998 0.891002
    outer loop
      vertex 13 5.63348 3.05033
      vertex 3.5 6.20496 3.34152
      vertex 3.5 5.63348 3.05033
    endloop
  endfacet
  facet normal 0 -0.453998 0.891002
    outer loop
      vertex 0 6.20496 3.34152
      vertex 4.32913e-16 5.63348 3.05033
      vertex 3.68258e-16 6.20496 3.34152
    endloop
  endfacet
  facet normal 0 -0.453998 0.891002
    outer loop
      vertex 4.32913e-16 5.63348 3.05033
      vertex 0 6.20496 3.34152
      vertex 0 5.63348 3.05033
    endloop
  endfacet
  facet normal 0 -0.891002 0.453998
    outer loop
      vertex 37 6.65848 3.79504
      vertex 46.5 6.94967 4.36652
      vertex 37 6.94967 4.36652
    endloop
  endfacet
  facet normal 0 -0.891002 0.453998
    outer loop
      vertex 46.5 6.94967 4.36652
      vertex 37 6.65848 3.79504
      vertex 46.5 6.65848 3.79504
    endloop
  endfacet
  facet normal 0 -0.891002 0.453998
    outer loop
      vertex 3.5 6.65848 3.79504
      vertex 13 6.94967 4.36652
      vertex 3.5 6.94967 4.36652
    endloop
  endfacet
  facet normal 0 -0.891002 0.453998
    outer loop
      vertex 13 6.94967 4.36652
      vertex 3.5 6.65848 3.79504
      vertex 13 6.65848 3.79504
    endloop
  endfacet
  facet normal 0 -0.891002 0.453998
    outer loop
      vertex 0 6.65848 3.79504
      vertex 1.40662e-16 6.94967 4.36652
      vertex 0 6.94967 4.36652
    endloop
  endfacet
  facet normal 0 -0.891002 0.453998
    outer loop
      vertex 1.40662e-16 6.94967 4.36652
      vertex 0 6.65848 3.79504
      vertex 2.67555e-16 6.65848 3.79504
    endloop
  endfacet
  facet normal 0 -0.891002 -0.453998
    outer loop
      vertex 37 6.94967 5.63348
      vertex 46.5 6.65848 6.20496
      vertex 37 6.65848 6.20496
    endloop
  endfacet
  facet normal 0 -0.891002 -0.453998
    outer loop
      vertex 46.5 6.65848 6.20496
      vertex 37 6.94967 5.63348
      vertex 46.5 6.94967 5.63348
    endloop
  endfacet
  facet normal 0 -0.891002 -0.453998
    outer loop
      vertex 3.5 6.94967 5.63348
      vertex 13 6.65848 6.20496
      vertex 3.5 6.65848 6.20496
    endloop
  endfacet
  facet normal 0 -0.891002 -0.453998
    outer loop
      vertex 13 6.65848 6.20496
      vertex 3.5 6.94967 5.63348
      vertex 13 6.94967 5.63348
    endloop
  endfacet
  facet normal 0 -0.707107 -0.707107
    outer loop
      vertex 37 6.65848 6.20496
      vertex 46.5 6.20496 6.65848
      vertex 37 6.20496 6.65848
    endloop
  endfacet
  facet normal 0 -0.707107 -0.707107
    outer loop
      vertex 46.5 6.20496 6.65848
      vertex 37 6.65848 6.20496
      vertex 46.5 6.65848 6.20496
    endloop
  endfacet
  facet normal 0 -0.707107 -0.707107
    outer loop
      vertex 3.5 6.65848 6.20496
      vertex 13 6.20496 6.65848
      vertex 3.5 6.20496 6.65848
    endloop
  endfacet
  facet normal 0 -0.707107 -0.707107
    outer loop
      vertex 13 6.20496 6.65848
      vertex 3.5 6.65848 6.20496
      vertex 13 6.65848 6.20496
    endloop
  endfacet
  facet normal 0 -0.987689 -0.156429
    outer loop
      vertex 37 7.05 5
      vertex 46.5 6.94967 5.63348
      vertex 37 6.94967 5.63348
    endloop
  endfacet
  facet normal 0 -0.987689 -0.156429
    outer loop
      vertex 46.5 6.94967 5.63348
      vertex 37 7.05 5
      vertex 46.5 7.05 5
    endloop
  endfacet
  facet normal 0 -0.987689 -0.156429
    outer loop
      vertex 3.5 7.05 5
      vertex 13 6.94967 5.63348
      vertex 3.5 6.94967 5.63348
    endloop
  endfacet
  facet normal 0 -0.987689 -0.156429
    outer loop
      vertex 13 6.94967 5.63348
      vertex 3.5 7.05 5
      vertex 13 7.05 5
    endloop
  endfacet
  facet normal -0 0.453998 0.891002
    outer loop
      vertex 37 4.36652 3.05033
      vertex 46.5 3.79504 3.34152
      vertex 46.5 4.36652 3.05033
    endloop
  endfacet
  facet normal 0 0.453998 0.891002
    outer loop
      vertex 46.5 3.79504 3.34152
      vertex 37 4.36652 3.05033
      vertex 37 3.79504 3.34152
    endloop
  endfacet
  facet normal -0 0.453998 0.891002
    outer loop
      vertex 3.5 4.36652 3.05033
      vertex 13 3.79504 3.34152
      vertex 13 4.36652 3.05033
    endloop
  endfacet
  facet normal 0 0.453998 0.891002
    outer loop
      vertex 13 3.79504 3.34152
      vertex 3.5 4.36652 3.05033
      vertex 3.5 3.79504 3.34152
    endloop
  endfacet
  facet normal -0 0.453998 0.891002
    outer loop
      vertex 0 4.36652 3.05033
      vertex 3.68258e-16 3.79504 3.34152
      vertex 4.32913e-16 4.36652 3.05033
    endloop
  endfacet
  facet normal 0 0.453998 0.891002
    outer loop
      vertex 3.68258e-16 3.79504 3.34152
      vertex 0 4.36652 3.05033
      vertex 0 3.79504 3.34152
    endloop
  endfacet
  facet normal 0 0.707107 -0.707107
    outer loop
      vertex 46.5 3.34152 6.20496
      vertex 37 3.79504 6.65848
      vertex 46.5 3.79504 6.65848
    endloop
  endfacet
  facet normal 0 0.707107 -0.707107
    outer loop
      vertex 37 3.79504 6.65848
      vertex 46.5 3.34152 6.20496
      vertex 37 3.34152 6.20496
    endloop
  endfacet
  facet normal 0 0.707107 -0.707107
    outer loop
      vertex 13 3.34152 6.20496
      vertex 3.5 3.79504 6.65848
      vertex 13 3.79504 6.65848
    endloop
  endfacet
  facet normal 0 0.707107 -0.707107
    outer loop
      vertex 3.5 3.79504 6.65848
      vertex 13 3.34152 6.20496
      vertex 3.5 3.34152 6.20496
    endloop
  endfacet
  facet normal 0 0.156429 -0.987689
    outer loop
      vertex 37 4.36652 6.94967
      vertex 46.5 5 7.05
      vertex 46.5 4.36652 6.94967
    endloop
  endfacet
  facet normal 0 0.156429 -0.987689
    outer loop
      vertex 46.5 5 7.05
      vertex 37 4.36652 6.94967
      vertex 37 5 7.05
    endloop
  endfacet
  facet normal 0 0.156429 -0.987689
    outer loop
      vertex 3.5 4.36652 6.94967
      vertex 13 5 7.05
      vertex 13 4.36652 6.94967
    endloop
  endfacet
  facet normal 0 0.156429 -0.987689
    outer loop
      vertex 13 5 7.05
      vertex 3.5 4.36652 6.94967
      vertex 3.5 5 7.05
    endloop
  endfacet
  facet normal 0 -0.453998 -0.891002
    outer loop
      vertex 37 5.63348 6.94967
      vertex 46.5 6.20496 6.65848
      vertex 46.5 5.63348 6.94967
    endloop
  endfacet
  facet normal -0 -0.453998 -0.891002
    outer loop
      vertex 46.5 6.20496 6.65848
      vertex 37 5.63348 6.94967
      vertex 37 6.20496 6.65848
    endloop
  endfacet
  facet normal 0 -0.453998 -0.891002
    outer loop
      vertex 3.5 5.63348 6.94967
      vertex 13 6.20496 6.65848
      vertex 13 5.63348 6.94967
    endloop
  endfacet
  facet normal -0 -0.453998 -0.891002
    outer loop
      vertex 13 6.20496 6.65848
      vertex 3.5 5.63348 6.94967
      vertex 3.5 6.20496 6.65848
    endloop
  endfacet
  facet normal 0 0.987689 0.156429
    outer loop
      vertex 46.5 3.05033 4.36652
      vertex 37 2.95 5
      vertex 46.5 2.95 5
    endloop
  endfacet
  facet normal 0 0.987689 0.156429
    outer loop
      vertex 37 2.95 5
      vertex 46.5 3.05033 4.36652
      vertex 37 3.05033 4.36652
    endloop
  endfacet
  facet normal 0 0.987689 0.156429
    outer loop
      vertex 13 3.05033 4.36652
      vertex 3.5 2.95 5
      vertex 13 2.95 5
    endloop
  endfacet
  facet normal 0 0.987689 0.156429
    outer loop
      vertex 3.5 2.95 5
      vertex 13 3.05033 4.36652
      vertex 3.5 3.05033 4.36652
    endloop
  endfacet
  facet normal 0 0.987689 0.156429
    outer loop
      vertex 1.40662e-16 3.05033 4.36652
      vertex 0 3.05033 4.36652
      vertex 0 2.95 5
    endloop
  endfacet
  facet normal 0 0.707107 0.707107
    outer loop
      vertex 46.5 3.79504 3.34152
      vertex 37 3.34152 3.79504
      vertex 46.5 3.34152 3.79504
    endloop
  endfacet
  facet normal 0 0.707107 0.707107
    outer loop
      vertex 37 3.34152 3.79504
      vertex 46.5 3.79504 3.34152
      vertex 37 3.79504 3.34152
    endloop
  endfacet
  facet normal 0 0.707107 0.707107
    outer loop
      vertex 13 3.79504 3.34152
      vertex 3.5 3.34152 3.79504
      vertex 13 3.34152 3.79504
    endloop
  endfacet
  facet normal 0 0.707107 0.707107
    outer loop
      vertex 3.5 3.34152 3.79504
      vertex 13 3.79504 3.34152
      vertex 3.5 3.79504 3.34152
    endloop
  endfacet
  facet normal 0 0.707107 0.707107
    outer loop
      vertex 3.68258e-16 3.79504 3.34152
      vertex 0 3.34152 3.79504
      vertex 2.67555e-16 3.34152 3.79504
    endloop
  endfacet
  facet normal 0 0.707107 0.707107
    outer loop
      vertex 0 3.34152 3.79504
      vertex 3.68258e-16 3.79504 3.34152
      vertex 0 3.79504 3.34152
    endloop
  endfacet
  facet normal 0 0.891002 -0.453998
    outer loop
      vertex 46.5 3.05033 5.63348
      vertex 37 3.34152 6.20496
      vertex 46.5 3.34152 6.20496
    endloop
  endfacet
  facet normal 0 0.891002 -0.453998
    outer loop
      vertex 37 3.34152 6.20496
      vertex 46.5 3.05033 5.63348
      vertex 37 3.05033 5.63348
    endloop
  endfacet
  facet normal 0 0.891002 -0.453998
    outer loop
      vertex 13 3.05033 5.63348
      vertex 3.5 3.34152 6.20496
      vertex 13 3.34152 6.20496
    endloop
  endfacet
  facet normal 0 0.891002 -0.453998
    outer loop
      vertex 3.5 3.34152 6.20496
      vertex 13 3.05033 5.63348
      vertex 3.5 3.05033 5.63348
    endloop
  endfacet
  facet normal 0 0.453998 -0.891002
    outer loop
      vertex 37 3.79504 6.65848
      vertex 46.5 4.36652 6.94967
      vertex 46.5 3.79504 6.65848
    endloop
  endfacet
  facet normal 0 0.453998 -0.891002
    outer loop
      vertex 46.5 4.36652 6.94967
      vertex 37 3.79504 6.65848
      vertex 37 4.36652 6.94967
    endloop
  endfacet
  facet normal 0 0.453998 -0.891002
    outer loop
      vertex 3.5 3.79504 6.65848
      vertex 13 4.36652 6.94967
      vertex 13 3.79504 6.65848
    endloop
  endfacet
  facet normal 0 0.453998 -0.891002
    outer loop
      vertex 13 4.36652 6.94967
      vertex 3.5 3.79504 6.65848
      vertex 3.5 4.36652 6.94967
    endloop
  endfacet
  facet normal -0 0.156429 0.987689
    outer loop
      vertex 37 5 2.95
      vertex 46.5 4.36652 3.05033
      vertex 46.5 5 2.95
    endloop
  endfacet
  facet normal 0 0.156429 0.987689
    outer loop
      vertex 46.5 4.36652 3.05033
      vertex 37 5 2.95
      vertex 37 4.36652 3.05033
    endloop
  endfacet
  facet normal -0 0.156429 0.987689
    outer loop
      vertex 3.5 5 2.95
      vertex 13 4.36652 3.05033
      vertex 13 5 2.95
    endloop
  endfacet
  facet normal 0 0.156429 0.987689
    outer loop
      vertex 13 4.36652 3.05033
      vertex 3.5 5 2.95
      vertex 3.5 4.36652 3.05033
    endloop
  endfacet
  facet normal -0 0.156429 0.987689
    outer loop
      vertex 0 5 2.95
      vertex 4.32913e-16 4.36652 3.05033
      vertex 4.55191e-16 5 2.95
    endloop
  endfacet
  facet normal 0 0.156429 0.987689
    outer loop
      vertex 4.32913e-16 4.36652 3.05033
      vertex 0 5 2.95
      vertex 0 4.36652 3.05033
    endloop
  endfacet
  facet normal 0 0.891002 0.453998
    outer loop
      vertex 46.5 3.34152 3.79504
      vertex 37 3.05033 4.36652
      vertex 46.5 3.05033 4.36652
    endloop
  endfacet
  facet normal 0 0.891002 0.453998
    outer loop
      vertex 37 3.05033 4.36652
      vertex 46.5 3.34152 3.79504
      vertex 37 3.34152 3.79504
    endloop
  endfacet
  facet normal 0 0.891002 0.453998
    outer loop
      vertex 13 3.34152 3.79504
      vertex 3.5 3.05033 4.36652
      vertex 13 3.05033 4.36652
    endloop
  endfacet
  facet normal 0 0.891002 0.453998
    outer loop
      vertex 3.5 3.05033 4.36652
      vertex 13 3.34152 3.79504
      vertex 3.5 3.34152 3.79504
    endloop
  endfacet
  facet normal 0 0.891002 0.453998
    outer loop
      vertex 2.67555e-16 3.34152 3.79504
      vertex 0 3.05033 4.36652
      vertex 1.40662e-16 3.05033 4.36652
    endloop
  endfacet
  facet normal 0 0.891002 0.453998
    outer loop
      vertex 0 3.05033 4.36652
      vertex 2.67555e-16 3.34152 3.79504
      vertex 0 3.34152 3.79504
    endloop
  endfacet
  facet normal -0.462792 -0.138674 0.875553
    outer loop
      vertex 8.65974e-16 5 1.1
      vertex 3.5 5 2.95
      vertex 8.2359e-16 6.20517 1.29088
    endloop
  endfacet
  facet normal -0.462792 0.138674 -0.875553
    outer loop
      vertex 0 5 8.9
      vertex 3.5 5 7.05
      vertex 0 3.79483 8.70912
    endloop
  endfacet
  facet normal -0.462793 -0.402447 0.789847
    outer loop
      vertex 8.2359e-16 6.20517 1.29088
      vertex 3.5 6.20496 3.34152
      vertex 7.00588e-16 7.29236 1.84483
    endloop
  endfacet
  facet normal -0.462793 0.402447 0.789847
    outer loop
      vertex 3.5 3.79504 3.34152
      vertex 8.2359e-16 3.79483 1.29088
      vertex 7.00588e-16 2.70764 1.84483
    endloop
  endfacet
  facet normal -0.462792 0.875553 -0.138674
    outer loop
      vertex 0 1.29088 6.20517
      vertex 3.5 2.95 5
      vertex 0 1.1 5
    endloop
  endfacet
  facet normal -0.462792 -0.789844 -0.402455
    outer loop
      vertex 0 8.70912 6.20517
      vertex 3.5 6.94967 5.63348
      vertex 3.5 6.65848 6.20496
    endloop
  endfacet
  facet normal -0.462792 -0.789844 0.402455
    outer loop
      vertex 3.5 6.65848 3.79504
      vertex 3.5 6.94967 4.36652
      vertex 2.67601e-16 8.70912 3.79483
    endloop
  endfacet
  facet normal -0.462793 -0.789847 -0.402447
    outer loop
      vertex 0 8.70912 6.20517
      vertex 3.5 6.65848 6.20496
      vertex 0 8.15517 7.29236
    endloop
  endfacet
  facet normal -0.462791 -0.875554 0.138669
    outer loop
      vertex 3.5 6.94967 4.36652
      vertex 3.5 7.05 5
      vertex 2.67601e-16 8.70912 3.79483
    endloop
  endfacet
  facet normal 1 7.80898e-22 2.22044e-16
    outer loop
      vertex 1.40662e-16 6.94967 4.36652
      vertex 2.67601e-16 8.70912 3.79483
      vertex 0 8.9 5
    endloop
  endfacet
  facet normal 1 1.15931e-21 2.22045e-16
    outer loop
      vertex 2.67601e-16 8.70912 3.79483
      vertex 1.40662e-16 6.94967 4.36652
      vertex 5.09007e-16 8.15517 2.70764
    endloop
  endfacet
  facet normal 1 0 2.22046e-16
    outer loop
      vertex 1.40662e-16 6.94967 4.36652
      vertex 0 8.9 5
      vertex 0 7.05 5
    endloop
  endfacet
  facet normal 1 -1.31468e-21 2.22043e-16
    outer loop
      vertex 2.67555e-16 6.65848 3.79504
      vertex 5.09007e-16 8.15517 2.70764
      vertex 1.40662e-16 6.94967 4.36652
    endloop
  endfacet
  facet normal 1 -9.06324e-22 2.22044e-16
    outer loop
      vertex 5.09007e-16 8.15517 2.70764
      vertex 2.67555e-16 6.65848 3.79504
      vertex 7.00588e-16 7.29236 1.84483
    endloop
  endfacet
  facet normal 1 2.45019e-21 2.22045e-16
    outer loop
      vertex 3.68258e-16 6.20496 3.34152
      vertex 7.00588e-16 7.29236 1.84483
      vertex 2.67555e-16 6.65848 3.79504
    endloop
  endfacet
  facet normal 1 7.4449e-22 2.22044e-16
    outer loop
      vertex 7.00588e-16 7.29236 1.84483
      vertex 3.68258e-16 6.20496 3.34152
      vertex 8.2359e-16 6.20517 1.29088
    endloop
  endfacet
  facet normal 1 -3.40957e-21 2.22044e-16
    outer loop
      vertex 4.32913e-16 5.63348 3.05033
      vertex 8.2359e-16 6.20517 1.29088
      vertex 3.68258e-16 6.20496 3.34152
    endloop
  endfacet
  facet normal 1 3.44465e-22 2.22045e-16
    outer loop
      vertex 4.55191e-16 5 2.95
      vertex 8.2359e-16 6.20517 1.29088
      vertex 4.32913e-16 5.63348 3.05033
    endloop
  endfacet
  facet normal 1 6.32231e-23 2.22045e-16
    outer loop
      vertex 4.55191e-16 5 2.95
      vertex 8.65974e-16 5 1.1
      vertex 8.2359e-16 6.20517 1.29088
    endloop
  endfacet
  facet normal 1 -3.7682e-22 2.22045e-16
    outer loop
      vertex 4.32913e-16 4.36652 3.05033
      vertex 8.65974e-16 5 1.1
      vertex 4.55191e-16 5 2.95
    endloop
  endfacet
  facet normal 1 3.40957e-21 2.22044e-16
    outer loop
      vertex 8.2359e-16 3.79483 1.29088
      vertex 4.32913e-16 4.36652 3.05033
      vertex 3.68258e-16 3.79504 3.34152
    endloop
  endfacet
  facet normal 1 -4.62154e-23 2.22045e-16
    outer loop
      vertex 4.32913e-16 4.36652 3.05033
      vertex 8.2359e-16 3.79483 1.29088
      vertex 8.65974e-16 5 1.1
    endloop
  endfacet
  facet normal 1 -2.45019e-21 2.22045e-16
    outer loop
      vertex 7.00588e-16 2.70764 1.84483
      vertex 3.68258e-16 3.79504 3.34152
      vertex 2.67555e-16 3.34152 3.79504
    endloop
  endfacet
  facet normal 1 1.31468e-21 2.22043e-16
    outer loop
      vertex 5.09007e-16 1.84483 2.70764
      vertex 2.67555e-16 3.34152 3.79504
      vertex 1.40662e-16 3.05033 4.36652
    endloop
  endfacet
  facet normal 1 -7.4449e-22 2.22044e-16
    outer loop
      vertex 3.68258e-16 3.79504 3.34152
      vertex 7.00588e-16 2.70764 1.84483
      vertex 8.2359e-16 3.79483 1.29088
    endloop
  endfacet
  facet normal 1 -1.48563e-21 2.22046e-16
    outer loop
      vertex 2.67601e-16 1.29088 3.79483
      vertex 1.40662e-16 3.05033 4.36652
      vertex 0 2.95 5
    endloop
  endfacet
  facet normal 1 9.06324e-22 2.22044e-16
    outer loop
      vertex 2.67555e-16 3.34152 3.79504
      vertex 5.09007e-16 1.84483 2.70764
      vertex 7.00588e-16 2.70764 1.84483
    endloop
  endfacet
  facet normal 1 -1.15931e-21 2.22045e-16
    outer loop
      vertex 1.40662e-16 3.05033 4.36652
      vertex 2.67601e-16 1.29088 3.79483
      vertex 5.09007e-16 1.84483 2.70764
    endloop
  endfacet
  facet normal 1 0 2.22044e-16
    outer loop
      vertex 2.67601e-16 1.29088 3.79483
      vertex 0 2.95 5
      vertex 0 1.1 5
    endloop
  endfacet
  facet normal -0.462792 -0.875553 0.138674
    outer loop
      vertex 2.67601e-16 8.70912 3.79483
      vertex 3.5 7.05 5
      vertex 0 8.9 5
    endloop
  endfacet
  facet normal -0.462792 -0.875553 -0.138674
    outer loop
      vertex 0 8.9 5
      vertex 3.5 7.05 5
      vertex 0 8.70912 6.20517
    endloop
  endfacet
  facet normal -0.462793 0.789847 0.402447
    outer loop
      vertex 3.5 3.34152 3.79504
      vertex 5.09007e-16 1.84483 2.70764
      vertex 2.67601e-16 1.29088 3.79483
    endloop
  endfacet
  facet normal -0.462791 0.138669 0.875554
    outer loop
      vertex 3.5 4.36652 3.05033
      vertex 3.5 5 2.95
      vertex 8.2359e-16 3.79483 1.29088
    endloop
  endfacet
  facet normal -0.462792 0.138674 0.875553
    outer loop
      vertex 3.5 5 2.95
      vertex 8.65974e-16 5 1.1
      vertex 8.2359e-16 3.79483 1.29088
    endloop
  endfacet
  facet normal -0.462792 -0.138674 -0.875553
    outer loop
      vertex 0 6.20517 8.70912
      vertex 3.5 5 7.05
      vertex 0 5 8.9
    endloop
  endfacet
  facet normal -0.462793 -0.402447 -0.789847
    outer loop
      vertex 0 7.29236 8.15517
      vertex 3.5 6.20496 6.65848
      vertex 0 6.20517 8.70912
    endloop
  endfacet
  facet normal -0.462793 0.402447 -0.789847
    outer loop
      vertex 0 3.79483 8.70912
      vertex 3.5 3.79504 6.65848
      vertex 0 2.70764 8.15517
    endloop
  endfacet
  facet normal -0.462791 0.875554 -0.138669
    outer loop
      vertex 0 1.29088 6.20517
      vertex 3.5 3.05033 5.63348
      vertex 3.5 2.95 5
    endloop
  endfacet
  facet normal -0.462793 0.626826 -0.626826
    outer loop
      vertex 3.5 3.79504 6.65848
      vertex 0 1.84483 7.29236
      vertex 0 2.70764 8.15517
    endloop
  endfacet
  facet normal -0.462793 0.626826 -0.626826
    outer loop
      vertex 0 1.84483 7.29236
      vertex 3.5 3.79504 6.65848
      vertex 3.5 3.34152 6.20496
    endloop
  endfacet
  facet normal -0.462791 -0.875554 -0.138669
    outer loop
      vertex 0 8.70912 6.20517
      vertex 3.5 7.05 5
      vertex 3.5 6.94967 5.63348
    endloop
  endfacet
  facet normal -0.462793 -0.626826 0.626826
    outer loop
      vertex 5.09007e-16 8.15517 2.70764
      vertex 3.5 6.20496 3.34152
      vertex 3.5 6.65848 3.79504
    endloop
  endfacet
  facet normal -0.462793 -0.626826 0.626826
    outer loop
      vertex 3.5 6.20496 3.34152
      vertex 5.09007e-16 8.15517 2.70764
      vertex 7.00588e-16 7.29236 1.84483
    endloop
  endfacet
  facet normal -0.462793 -0.789847 0.402447
    outer loop
      vertex 5.09007e-16 8.15517 2.70764
      vertex 3.5 6.65848 3.79504
      vertex 2.67601e-16 8.70912 3.79483
    endloop
  endfacet
  facet normal -0.462791 -0.138669 0.875554
    outer loop
      vertex 3.5 5 2.95
      vertex 3.5 5.63348 3.05033
      vertex 8.2359e-16 6.20517 1.29088
    endloop
  endfacet
  facet normal -0.462792 -0.402455 0.789844
    outer loop
      vertex 3.5 5.63348 3.05033
      vertex 3.5 6.20496 3.34152
      vertex 8.2359e-16 6.20517 1.29088
    endloop
  endfacet
  facet normal -0.462792 0.789844 0.402455
    outer loop
      vertex 3.5 3.05033 4.36652
      vertex 3.5 3.34152 3.79504
      vertex 2.67601e-16 1.29088 3.79483
    endloop
  endfacet
  facet normal -0.462793 -0.626826 -0.626826
    outer loop
      vertex 0 8.15517 7.29236
      vertex 3.5 6.20496 6.65848
      vertex 0 7.29236 8.15517
    endloop
  endfacet
  facet normal -0.462793 -0.626826 -0.626826
    outer loop
      vertex 3.5 6.20496 6.65848
      vertex 0 8.15517 7.29236
      vertex 3.5 6.65848 6.20496
    endloop
  endfacet
  facet normal -0.462792 0.402455 -0.789844
    outer loop
      vertex 0 3.79483 8.70912
      vertex 3.5 4.36652 6.94967
      vertex 3.5 3.79504 6.65848
    endloop
  endfacet
  facet normal -0.462791 0.138669 -0.875554
    outer loop
      vertex 0 3.79483 8.70912
      vertex 3.5 5 7.05
      vertex 3.5 4.36652 6.94967
    endloop
  endfacet
  facet normal -0.462792 0.402455 0.789844
    outer loop
      vertex 3.5 3.79504 3.34152
      vertex 3.5 4.36652 3.05033
      vertex 8.2359e-16 3.79483 1.29088
    endloop
  endfacet
  facet normal -0.462793 0.626826 0.626826
    outer loop
      vertex 3.5 3.79504 3.34152
      vertex 5.09007e-16 1.84483 2.70764
      vertex 3.5 3.34152 3.79504
    endloop
  endfacet
  facet normal -0.462793 0.626826 0.626826
    outer loop
      vertex 5.09007e-16 1.84483 2.70764
      vertex 3.5 3.79504 3.34152
      vertex 7.00588e-16 2.70764 1.84483
    endloop
  endfacet
  facet normal -0.462792 -0.402455 -0.789844
    outer loop
      vertex 0 6.20517 8.70912
      vertex 3.5 6.20496 6.65848
      vertex 3.5 5.63348 6.94967
    endloop
  endfacet
  facet normal -0.462791 -0.138669 -0.875554
    outer loop
      vertex 0 6.20517 8.70912
      vertex 3.5 5.63348 6.94967
      vertex 3.5 5 7.05
    endloop
  endfacet
  facet normal -0.462792 0.789844 -0.402455
    outer loop
      vertex 0 1.29088 6.20517
      vertex 3.5 3.34152 6.20496
      vertex 3.5 3.05033 5.63348
    endloop
  endfacet
  facet normal -0.462793 0.789847 -0.402447
    outer loop
      vertex 0 1.84483 7.29236
      vertex 3.5 3.34152 6.20496
      vertex 0 1.29088 6.20517
    endloop
  endfacet
  facet normal -0.462792 0.875553 0.138674
    outer loop
      vertex 3.5 2.95 5
      vertex 2.67601e-16 1.29088 3.79483
      vertex 0 1.1 5
    endloop
  endfacet
  facet normal -0.462791 0.875554 0.138669
    outer loop
      vertex 3.5 2.95 5
      vertex 3.5 3.05033 4.36652
      vertex 2.67601e-16 1.29088 3.79483
    endloop
  endfacet
  facet normal 0.462793 0.626826 0.626826
    outer loop
      vertex 50 1.84483 2.70764
      vertex 46.5 3.79504 3.34152
      vertex 46.5 3.34152 3.79504
    endloop
  endfacet
  facet normal 0.462793 0.626826 0.626826
    outer loop
      vertex 46.5 3.79504 3.34152
      vertex 50 1.84483 2.70764
      vertex 50 2.70764 1.84483
    endloop
  endfacet
  facet normal 0.462792 -0.138674 0.875553
    outer loop
      vertex 50 5 1.1
      vertex 50 6.20517 1.29088
      vertex 46.5 5 2.95
    endloop
  endfacet
  facet normal 0.462791 -0.138669 0.875554
    outer loop
      vertex 46.5 5 2.95
      vertex 50 6.20517 1.29088
      vertex 46.5 5.63348 3.05033
    endloop
  endfacet
  facet normal 0.462793 0.402447 0.789847
    outer loop
      vertex 50 2.70764 1.84483
      vertex 50 3.79483 1.29088
      vertex 46.5 3.79504 3.34152
    endloop
  endfacet
  facet normal 0.462793 0.402447 -0.789847
    outer loop
      vertex 50 3.79483 8.70912
      vertex 50 2.70764 8.15517
      vertex 46.5 3.79504 6.65848
    endloop
  endfacet
  facet normal 0.462791 0.875554 -0.138669
    outer loop
      vertex 50 1.29088 6.20517
      vertex 46.5 2.95 5
      vertex 46.5 3.05033 5.63348
    endloop
  endfacet
  facet normal 0.462792 0.875553 0.138674
    outer loop
      vertex 50 1.1 5
      vertex 50 1.29088 3.79483
      vertex 46.5 2.95 5
    endloop
  endfacet
  facet normal 0.462791 0.875554 0.138669
    outer loop
      vertex 50 1.29088 3.79483
      vertex 46.5 3.05033 4.36652
      vertex 46.5 2.95 5
    endloop
  endfacet
  facet normal 0.462793 -0.626826 0.626826
    outer loop
      vertex 46.5 6.20496 3.34152
      vertex 50 8.15517 2.70764
      vertex 46.5 6.65848 3.79504
    endloop
  endfacet
  facet normal 0.462793 -0.626826 0.626826
    outer loop
      vertex 50 8.15517 2.70764
      vertex 46.5 6.20496 3.34152
      vertex 50 7.29236 1.84483
    endloop
  endfacet
  facet normal 0.462792 -0.789844 -0.402455
    outer loop
      vertex 46.5 6.94967 5.63348
      vertex 50 8.70912 6.20517
      vertex 46.5 6.65848 6.20496
    endloop
  endfacet
  facet normal 0.462792 0.138674 0.875553
    outer loop
      vertex 50 3.79483 1.29088
      vertex 50 5 1.1
      vertex 46.5 5 2.95
    endloop
  endfacet
  facet normal 0.462792 0.402455 0.789844
    outer loop
      vertex 50 3.79483 1.29088
      vertex 46.5 4.36652 3.05033
      vertex 46.5 3.79504 3.34152
    endloop
  endfacet
  facet normal 0.462793 0.789847 0.402447
    outer loop
      vertex 50 1.29088 3.79483
      vertex 50 1.84483 2.70764
      vertex 46.5 3.34152 3.79504
    endloop
  endfacet
  facet normal 0.462792 0.402455 -0.789844
    outer loop
      vertex 50 3.79483 8.70912
      vertex 46.5 3.79504 6.65848
      vertex 46.5 4.36652 6.94967
    endloop
  endfacet
  facet normal 0.462792 0.875553 -0.138674
    outer loop
      vertex 50 1.29088 6.20517
      vertex 50 1.1 5
      vertex 46.5 2.95 5
    endloop
  endfacet
  facet normal 0.462793 -0.789847 -0.402447
    outer loop
      vertex 50 8.70912 6.20517
      vertex 50 8.15517 7.29236
      vertex 46.5 6.65848 6.20496
    endloop
  endfacet
  facet normal 0.462793 -0.402447 -0.789847
    outer loop
      vertex 50 7.29236 8.15517
      vertex 50 6.20517 8.70912
      vertex 46.5 6.20496 6.65848
    endloop
  endfacet
  facet normal 0.462791 0.138669 0.875554
    outer loop
      vertex 50 3.79483 1.29088
      vertex 46.5 5 2.95
      vertex 46.5 4.36652 3.05033
    endloop
  endfacet
  facet normal 0.462792 0.789844 0.402455
    outer loop
      vertex 50 1.29088 3.79483
      vertex 46.5 3.34152 3.79504
      vertex 46.5 3.05033 4.36652
    endloop
  endfacet
  facet normal 0.462792 0.789844 -0.402455
    outer loop
      vertex 50 1.29088 6.20517
      vertex 46.5 3.05033 5.63348
      vertex 46.5 3.34152 6.20496
    endloop
  endfacet
  facet normal 0.462793 0.626826 -0.626826
    outer loop
      vertex 50 1.84483 7.29236
      vertex 46.5 3.79504 6.65848
      vertex 50 2.70764 8.15517
    endloop
  endfacet
  facet normal 0.462793 0.626826 -0.626826
    outer loop
      vertex 46.5 3.79504 6.65848
      vertex 50 1.84483 7.29236
      vertex 46.5 3.34152 6.20496
    endloop
  endfacet
  facet normal 0.462793 0.789847 -0.402447
    outer loop
      vertex 50 1.84483 7.29236
      vertex 50 1.29088 6.20517
      vertex 46.5 3.34152 6.20496
    endloop
  endfacet
  facet normal 0.462793 -0.789847 0.402447
    outer loop
      vertex 50 8.15517 2.70764
      vertex 50 8.70912 3.79483
      vertex 46.5 6.65848 3.79504
    endloop
  endfacet
  facet normal 0.462793 -0.626826 -0.626826
    outer loop
      vertex 46.5 6.20496 6.65848
      vertex 50 8.15517 7.29236
      vertex 50 7.29236 8.15517
    endloop
  endfacet
  facet normal 0.462793 -0.626826 -0.626826
    outer loop
      vertex 50 8.15517 7.29236
      vertex 46.5 6.20496 6.65848
      vertex 46.5 6.65848 6.20496
    endloop
  endfacet
  facet normal 0.462791 0.138669 -0.875554
    outer loop
      vertex 50 3.79483 8.70912
      vertex 46.5 4.36652 6.94967
      vertex 46.5 5 7.05
    endloop
  endfacet
  facet normal -1 0 0
    outer loop
      vertex 50 6.94967 5.63348
      vertex 50 8.70912 6.20517
      vertex 50 8.9 5
    endloop
  endfacet
  facet normal -1 -0 0
    outer loop
      vertex 50 8.70912 6.20517
      vertex 50 6.94967 5.63348
      vertex 50 8.15517 7.29236
    endloop
  endfacet
  facet normal -1 0 0
    outer loop
      vertex 50 6.94967 5.63348
      vertex 50 8.9 5
      vertex 50 7.05 5
    endloop
  endfacet
  facet normal -1 0 0
    outer loop
      vertex 50 6.65848 6.20496
      vertex 50 8.15517 7.29236
      vertex 50 6.94967 5.63348
    endloop
  endfacet
  facet normal -1 -0 0
    outer loop
      vertex 50 8.15517 7.29236
      vertex 50 6.65848 6.20496
      vertex 50 7.29236 8.15517
    endloop
  endfacet
  facet normal -1 0 0
    outer loop
      vertex 50 6.20496 6.65848
      vertex 50 7.29236 8.15517
      vertex 50 6.65848 6.20496
    endloop
  endfacet
  facet normal -1 -0 0
    outer loop
      vertex 50 7.29236 8.15517
      vertex 50 6.20496 6.65848
      vertex 50 6.20517 8.70912
    endloop
  endfacet
  facet normal -1 0 0
    outer loop
      vertex 50 5.63348 6.94967
      vertex 50 6.20517 8.70912
      vertex 50 6.20496 6.65848
    endloop
  endfacet
  facet normal -1 0 0
    outer loop
      vertex 50 5 7.05
      vertex 50 6.20517 8.70912
      vertex 50 5.63348 6.94967
    endloop
  endfacet
  facet normal -1 0 0
    outer loop
      vertex 50 5 7.05
      vertex 50 5 8.9
      vertex 50 6.20517 8.70912
    endloop
  endfacet
  facet normal -1 0 0
    outer loop
      vertex 50 4.36652 6.94967
      vertex 50 5 8.9
      vertex 50 5 7.05
    endloop
  endfacet
  facet normal -1 0 0
    outer loop
      vertex 50 3.79483 8.70912
      vertex 50 4.36652 6.94967
      vertex 50 3.79504 6.65848
    endloop
  endfacet
  facet normal -1 0 0
    outer loop
      vertex 50 4.36652 6.94967
      vertex 50 3.79483 8.70912
      vertex 50 5 8.9
    endloop
  endfacet
  facet normal -1 0 0
    outer loop
      vertex 50 2.70764 8.15517
      vertex 50 3.79504 6.65848
      vertex 50 3.34152 6.20496
    endloop
  endfacet
  facet normal -1 0 0
    outer loop
      vertex 50 1.84483 7.29236
      vertex 50 3.34152 6.20496
      vertex 50 3.05033 5.63348
    endloop
  endfacet
  facet normal -1 0 0
    outer loop
      vertex 50 3.79504 6.65848
      vertex 50 2.70764 8.15517
      vertex 50 3.79483 8.70912
    endloop
  endfacet
  facet normal -1 0 0
    outer loop
      vertex 50 1.29088 6.20517
      vertex 50 3.05033 5.63348
      vertex 50 2.95 5
    endloop
  endfacet
  facet normal -1 0 0
    outer loop
      vertex 50 3.34152 6.20496
      vertex 50 1.84483 7.29236
      vertex 50 2.70764 8.15517
    endloop
  endfacet
  facet normal -1 0 0
    outer loop
      vertex 50 3.05033 5.63348
      vertex 50 1.29088 6.20517
      vertex 50 1.84483 7.29236
    endloop
  endfacet
  facet normal -1 0 -0
    outer loop
      vertex 50 1.29088 6.20517
      vertex 50 2.95 5
      vertex 50 1.1 5
    endloop
  endfacet
  facet normal 0.462793 -0.402447 0.789847
    outer loop
      vertex 50 6.20517 1.29088
      vertex 50 7.29236 1.84483
      vertex 46.5 6.20496 3.34152
    endloop
  endfacet
  facet normal 0.462791 -0.875554 -0.138669
    outer loop
      vertex 46.5 7.05 5
      vertex 50 8.70912 6.20517
      vertex 46.5 6.94967 5.63348
    endloop
  endfacet
  facet normal 0.462792 -0.402455 -0.789844
    outer loop
      vertex 46.5 6.20496 6.65848
      vertex 50 6.20517 8.70912
      vertex 46.5 5.63348 6.94967
    endloop
  endfacet
  facet normal 0.462792 0.138674 -0.875553
    outer loop
      vertex 50 5 8.9
      vertex 50 3.79483 8.70912
      vertex 46.5 5 7.05
    endloop
  endfacet
  facet normal 0.462792 -0.138674 -0.875553
    outer loop
      vertex 50 6.20517 8.70912
      vertex 50 5 8.9
      vertex 46.5 5 7.05
    endloop
  endfacet
  facet normal 0.462791 -0.138669 -0.875554
    outer loop
      vertex 46.5 5.63348 6.94967
      vertex 50 6.20517 8.70912
      vertex 46.5 5 7.05
    endloop
  endfacet
  facet normal 0.462792 -0.402455 0.789844
    outer loop
      vertex 46.5 5.63348 3.05033
      vertex 50 6.20517 1.29088
      vertex 46.5 6.20496 3.34152
    endloop
  endfacet
  facet normal 0.462792 -0.875553 -0.138674
    outer loop
      vertex 50 8.9 5
      vertex 50 8.70912 6.20517
      vertex 46.5 7.05 5
    endloop
  endfacet
  facet normal 0.462792 -0.875553 0.138674
    outer loop
      vertex 50 8.70912 3.79483
      vertex 50 8.9 5
      vertex 46.5 7.05 5
    endloop
  endfacet
  facet normal 0.462791 -0.875554 0.138669
    outer loop
      vertex 46.5 6.94967 4.36652
      vertex 50 8.70912 3.79483
      vertex 46.5 7.05 5
    endloop
  endfacet
  facet normal 0.462792 -0.789844 0.402455
    outer loop
      vertex 46.5 6.65848 3.79504
      vertex 50 8.70912 3.79483
      vertex 46.5 6.94967 4.36652
    endloop
  endfacet
  facet normal 0.156422 0.98769 -0
    outer loop
      vertex 43.0902 99.5106 0
      vertex 40 100 10
      vertex 43.0902 99.5106 10
    endloop
  endfacet
  facet normal 0.156422 0.98769 0
    outer loop
      vertex 40 100 10
      vertex 43.0902 99.5106 0
      vertex 40 100 0
    endloop
  endfacet
  facet normal -0.453992 0.891006 0
    outer loop
      vertex 6.90983 99.5106 0
      vertex 4.12215 98.0902 10
      vertex 6.90983 99.5106 10
    endloop
  endfacet
  facet normal -0.453992 0.891006 0
    outer loop
      vertex 4.12215 98.0902 10
      vertex 6.90983 99.5106 0
      vertex 4.12215 98.0902 0
    endloop
  endfacet
  facet normal 0 -0.156434 -0.987688
    outer loop
      vertex 0 3.45491 0.244717
      vertex 13 5 0
      vertex 13 3.45491 0.244717
    endloop
  endfacet
  facet normal -0 -0.156434 -0.987688
    outer loop
      vertex 13 5 0
      vertex 0 3.45491 0.244717
      vertex 0 5 0
    endloop
  endfacet
  facet normal 0 -0.156434 -0.987688
    outer loop
      vertex 37 3.45491 0.244717
      vertex 50 5 0
      vertex 50 3.45491 0.244717
    endloop
  endfacet
  facet normal -0 -0.156434 -0.987688
    outer loop
      vertex 50 5 0
      vertex 37 3.45491 0.244717
      vertex 37 5 0
    endloop
  endfacet
  facet normal 0 0 1
    outer loop
      vertex 50 90 10
      vertex 13 12 10
      vertex 37 12 10
    endloop
  endfacet
  facet normal 0 0 1
    outer loop
      vertex 0 90 10
      vertex 40 100 10
      vertex 10 100 10
    endloop
  endfacet
  facet normal 0 0 1
    outer loop
      vertex 50 90 10
      vertex 0 90 10
      vertex 13 12 10
    endloop
  endfacet
  facet normal 0 0 1
    outer loop
      vertex 0 90 10
      vertex 10 100 10
      vertex 6.90983 99.5106 10
    endloop
  endfacet
  facet normal 0 0 1
    outer loop
      vertex 0 90 10
      vertex 6.90983 99.5106 10
      vertex 4.12215 98.0902 10
    endloop
  endfacet
  facet normal 0 0 1
    outer loop
      vertex 0 90 10
      vertex 4.12215 98.0902 10
      vertex 1.90983 95.8779 10
    endloop
  endfacet
  facet normal 0 0 1
    outer loop
      vertex 0 90 10
      vertex 1.90983 95.8779 10
      vertex 0.489434 93.0902 10
    endloop
  endfacet
  facet normal 0 0 1
    outer loop
      vertex 0 5 10
      vertex 13 12 10
      vertex 0 90 10
    endloop
  endfacet
  facet normal 0 0 1
    outer loop
      vertex 13 12 10
      vertex 0 5 10
      vertex 13 5 10
    endloop
  endfacet
  facet normal 0 0 1
    outer loop
      vertex 40 100 10
      vertex 50 90 10
      vertex 49.5106 93.0902 10
    endloop
  endfacet
  facet normal 0 0 1
    outer loop
      vertex 40 100 10
      vertex 49.5106 93.0902 10
      vertex 48.0902 95.8779 10
    endloop
  endfacet
  facet normal 0 0 1
    outer loop
      vertex 40 100 10
      vertex 48.0902 95.8779 10
      vertex 45.8779 98.0902 10
    endloop
  endfacet
  facet normal 0 0 1
    outer loop
      vertex 40 100 10
      vertex 45.8779 98.0902 10
      vertex 43.0902 99.5106 10
    endloop
  endfacet
  facet normal 0 0 1
    outer loop
      vertex 0 90 10
      vertex 50 90 10
      vertex 40 100 10
    endloop
  endfacet
  facet normal 0 0 1
    outer loop
      vertex 50 90 10
      vertex 37 12 10
      vertex 50 5 10
    endloop
  endfacet
  facet normal 0 0 1
    outer loop
      vertex 50 5 10
      vertex 37 12 10
      vertex 37 5 10
    endloop
  endfacet
  facet normal -0.156424 0.98769 0
    outer loop
      vertex 10 100 0
      vertex 6.90983 99.5106 10
      vertex 10 100 10
    endloop
  endfacet
  facet normal -0.156424 0.98769 0
    outer loop
      vertex 6.90983 99.5106 10
      vertex 10 100 0
      vertex 6.90983 99.5106 0
    endloop
  endfacet
  facet normal 0 1 -0
    outer loop
      vertex 40 100 0
      vertex 10 100 10
      vertex 40 100 10
    endloop
  endfacet
  facet normal 0 1 0
    outer loop
      vertex 10 100 10
      vertex 40 100 0
      vertex 10 100 0
    endloop
  endfacet
  facet normal 0.707107 0.707107 0
    outer loop
      vertex 48.0902 95.8779 10
      vertex 45.8779 98.0902 0
      vertex 45.8779 98.0902 10
    endloop
  endfacet
  facet normal 0.707107 0.707107 0
    outer loop
      vertex 45.8779 98.0902 0
      vertex 48.0902 95.8779 10
      vertex 48.0902 95.8779 0
    endloop
  endfacet
  facet normal -0.707104 0.70711 0
    outer loop
      vertex 1.90983 95.8779 0
      vertex 4.12215 98.0902 10
      vertex 4.12215 98.0902 0
    endloop
  endfacet
  facet normal -0.707104 0.70711 0
    outer loop
      vertex 4.12215 98.0902 10
      vertex 1.90983 95.8779 0
      vertex 1.90983 95.8779 10
    endloop
  endfacet
  facet normal 0.891007 0.453989 0
    outer loop
      vertex 49.5106 93.0902 10
      vertex 48.0902 95.8779 0
      vertex 48.0902 95.8779 10
    endloop
  endfacet
  facet normal 0.891007 0.453989 0
    outer loop
      vertex 48.0902 95.8779 0
      vertex 49.5106 93.0902 10
      vertex 49.5106 93.0902 0
    endloop
  endfacet
  facet normal 0 -0.453991 -0.891007
    outer loop
      vertex 37 2.06107 0.954914
      vertex 50 3.45491 0.244717
      vertex 50 2.06107 0.954914
    endloop
  endfacet
  facet normal -0 -0.453991 -0.891007
    outer loop
      vertex 50 3.45491 0.244717
      vertex 37 2.06107 0.954914
      vertex 37 3.45491 0.244717
    endloop
  endfacet
  facet normal 0 -0.453991 -0.891007
    outer loop
      vertex 0 2.06107 0.954914
      vertex 13 3.45491 0.244717
      vertex 13 2.06107 0.954914
    endloop
  endfacet
  facet normal -0 -0.453991 -0.891007
    outer loop
      vertex 13 3.45491 0.244717
      vertex 0 2.06107 0.954914
      vertex 0 3.45491 0.244717
    endloop
  endfacet
  facet normal -1 0 0
    outer loop
      vertex 0 90 0
      vertex 0 8.9 5
      vertex 0 90 10
    endloop
  endfacet
  facet normal -1 0 0
    outer loop
      vertex 0 5 0
      vertex 0 8.9 5
      vertex 0 90 0
    endloop
  endfacet
  facet normal -1 -0 0
    outer loop
      vertex 0 8.9 5
      vertex 0 6.94967 4.36652
      vertex 0 7.05 5
    endloop
  endfacet
  facet normal -1 0 0
    outer loop
      vertex 0 8.9 5
      vertex 0 6.65848 3.79504
      vertex 0 6.94967 4.36652
    endloop
  endfacet
  facet normal -1 0 0
    outer loop
      vertex 0 8.9 5
      vertex 0 5 0
      vertex 0 6.65848 3.79504
    endloop
  endfacet
  facet normal -1 0 0
    outer loop
      vertex 0 6.65848 3.79504
      vertex 0 5 0
      vertex 0 6.20496 3.34152
    endloop
  endfacet
  facet normal -1 0 0
    outer loop
      vertex 0 6.20496 3.34152
      vertex 0 5 0
      vertex 0 5.63348 3.05033
    endloop
  endfacet
  facet normal -1 0 0
    outer loop
      vertex 0 5 0
      vertex 0 5 2.95
      vertex 0 5.63348 3.05033
    endloop
  endfacet
  facet normal -1 0 0
    outer loop
      vertex 0 5 0
      vertex 0 4.36652 3.05033
      vertex 0 5 2.95
    endloop
  endfacet
  facet normal -1 0 0
    outer loop
      vertex 0 3.45491 0.244717
      vertex 0 4.36652 3.05033
      vertex 0 5 0
    endloop
  endfacet
  facet normal -1 -0 0
    outer loop
      vertex 0 4.36652 3.05033
      vertex 0 3.45491 0.244717
      vertex 0 3.79504 3.34152
    endloop
  endfacet
  facet normal -1 0 0
    outer loop
      vertex 0 2.06107 0.954914
      vertex 0 3.79504 3.34152
      vertex 0 3.45491 0.244717
    endloop
  endfacet
  facet normal -1 -0 0
    outer loop
      vertex 0 3.79504 3.34152
      vertex 0 2.06107 0.954914
      vertex 0 3.34152 3.79504
    endloop
  endfacet
  facet normal -1 0 0
    outer loop
      vertex 0 0.954914 2.06107
      vertex 0 3.34152 3.79504
      vertex 0 2.06107 0.954914
    endloop
  endfacet
  facet normal -1 -0 0
    outer loop
      vertex 0 3.34152 3.79504
      vertex 0 0.954914 2.06107
      vertex 0 3.05033 4.36652
    endloop
  endfacet
  facet normal -1 0 0
    outer loop
      vertex 0 0.244717 3.45491
      vertex 0 3.05033 4.36652
      vertex 0 0.954914 2.06107
    endloop
  endfacet
  facet normal -1 0 0
    outer loop
      vertex 0 3.05033 4.36652
      vertex 0 1.1 5
      vertex 0 2.95 5
    endloop
  endfacet
  facet normal -1 0 0
    outer loop
      vertex 0 8.70912 6.20517
      vertex 0 90 10
      vertex 0 8.9 5
    endloop
  endfacet
  facet normal -1 0 0
    outer loop
      vertex 0 8.15517 7.29236
      vertex 0 90 10
      vertex 0 8.70912 6.20517
    endloop
  endfacet
  facet normal -1 0 0
    outer loop
      vertex 0 7.29236 8.15517
      vertex 0 90 10
      vertex 0 8.15517 7.29236
    endloop
  endfacet
  facet normal -1 0 0
    outer loop
      vertex 0 5 10
      vertex 0 7.29236 8.15517
      vertex 0 6.20517 8.70912
    endloop
  endfacet
  facet normal -1 0 0
    outer loop
      vertex 0 5 10
      vertex 0 6.20517 8.70912
      vertex 0 5 8.9
    endloop
  endfacet
  facet normal -1 0 0
    outer loop
      vertex 0 7.29236 8.15517
      vertex 0 5 10
      vertex 0 90 10
    endloop
  endfacet
  facet normal -1 0 0
    outer loop
      vertex 0 3.79483 8.70912
      vertex 0 5 10
      vertex 0 5 8.9
    endloop
  endfacet
  facet normal -1 0 0
    outer loop
      vertex 0 3.79483 8.70912
      vertex 0 3.45491 9.75528
      vertex 0 5 10
    endloop
  endfacet
  facet normal -1 0 0
    outer loop
      vertex 0 2.70764 8.15517
      vertex 0 3.45491 9.75528
      vertex 0 3.79483 8.70912
    endloop
  endfacet
  facet normal -1 0 0
    outer loop
      vertex 0 2.70764 8.15517
      vertex 0 2.06107 9.04508
      vertex 0 3.45491 9.75528
    endloop
  endfacet
  facet normal -1 0 0
    outer loop
      vertex 0 1.84483 7.29236
      vertex 0 2.06107 9.04508
      vertex 0 2.70764 8.15517
    endloop
  endfacet
  facet normal -1 0 0
    outer loop
      vertex 0 0.954914 7.93893
      vertex 0 1.84483 7.29236
      vertex 0 1.29088 6.20517
    endloop
  endfacet
  facet normal -1 0 0
    outer loop
      vertex 0 1.84483 7.29236
      vertex 0 0.954914 7.93893
      vertex 0 2.06107 9.04508
    endloop
  endfacet
  facet normal -1 0 0
    outer loop
      vertex 0 0.244717 6.54508
      vertex 0 1.29088 6.20517
      vertex 0 1.1 5
    endloop
  endfacet
  facet normal -1 -0 0
    outer loop
      vertex 0 3.05033 4.36652
      vertex 0 0.244717 3.45491
      vertex 0 1.1 5
    endloop
  endfacet
  facet normal -1 0 0
    outer loop
      vertex 0 0 5
      vertex 0 1.1 5
      vertex 0 0.244717 3.45491
    endloop
  endfacet
  facet normal -1 0 0
    outer loop
      vertex 0 1.29088 6.20517
      vertex 0 0.244717 6.54508
      vertex 0 0.954914 7.93893
    endloop
  endfacet
  facet normal -1 0 0
    outer loop
      vertex 0 1.1 5
      vertex 0 0 5
      vertex 0 0.244717 6.54508
    endloop
  endfacet
  facet normal -0.987689 0.156433 0
    outer loop
      vertex 0 90 0
      vertex 0.489434 93.0902 10
      vertex 0.489434 93.0902 0
    endloop
  endfacet
  facet normal -0.987689 0.156433 0
    outer loop
      vertex 0.489434 93.0902 10
      vertex 0 90 0
      vertex 0 90 10
    endloop
  endfacet
  facet normal 0 0 -1
    outer loop
      vertex 0 5 0
      vertex 13 26.1282 0
      vertex 13 5 0
    endloop
  endfacet
  facet normal 0 0 -1
    outer loop
      vertex 13 26.1282 0
      vertex 0 90 0
      vertex 10 100 0
    endloop
  endfacet
  facet normal 0 0 -1
    outer loop
      vertex 10 100 0
      vertex 0 90 0
      vertex 6.90983 99.5106 0
    endloop
  endfacet
  facet normal 0 0 -1
    outer loop
      vertex 6.90983 99.5106 0
      vertex 0 90 0
      vertex 4.12215 98.0902 0
    endloop
  endfacet
  facet normal 0 0 -1
    outer loop
      vertex 4.12215 98.0902 0
      vertex 0 90 0
      vertex 1.90983 95.8779 0
    endloop
  endfacet
  facet normal -0 0 -1
    outer loop
      vertex 13 26.1282 0
      vertex 0 5 0
      vertex 0 90 0
    endloop
  endfacet
  facet normal 0 0 -1
    outer loop
      vertex 1.90983 95.8779 0
      vertex 0 90 0
      vertex 0.489434 93.0902 0
    endloop
  endfacet
  facet normal 0 0 -1
    outer loop
      vertex 29.4084 56.0676 0
      vertex 30 78 0
      vertex 31.0676 54.4084 0
    endloop
  endfacet
  facet normal 0 0 -1
    outer loop
      vertex 27.3176 57.1329 0
      vertex 30 78 0
      vertex 29.4084 56.0676 0
    endloop
  endfacet
  facet normal 0 0 -1
    outer loop
      vertex 25 57.5 0
      vertex 30 78 0
      vertex 27.3176 57.1329 0
    endloop
  endfacet
  facet normal 0 0 -1
    outer loop
      vertex 20 78 0
      vertex 25 57.5 0
      vertex 22.6824 57.1329 0
    endloop
  endfacet
  facet normal 0 0 -1
    outer loop
      vertex 20 78 0
      vertex 22.6824 57.1329 0
      vertex 20.5916 56.0676 0
    endloop
  endfacet
  facet normal 0 0 -1
    outer loop
      vertex 25 57.5 0
      vertex 20 78 0
      vertex 30 78 0
    endloop
  endfacet
  facet normal 0 0 -1
    outer loop
      vertex 17.8671 52.3176 0
      vertex 20 78 0
      vertex 18.9324 54.4084 0
    endloop
  endfacet
  facet normal 0 0 -1
    outer loop
      vertex 18.9324 54.4084 0
      vertex 20 78 0
      vertex 20.5916 56.0676 0
    endloop
  endfacet
  facet normal 0 0 -1
    outer loop
      vertex 37 26.1282 0
      vertex 32.1329 47.6824 0
      vertex 32.5 50 0
    endloop
  endfacet
  facet normal 0 0 -1
    outer loop
      vertex 37 26.1282 0
      vertex 31.0676 45.5916 0
      vertex 32.1329 47.6824 0
    endloop
  endfacet
  facet normal 0 0 -1
    outer loop
      vertex 37 26.1282 0
      vertex 29.4084 43.9324 0
      vertex 31.0676 45.5916 0
    endloop
  endfacet
  facet normal 0 0 -1
    outer loop
      vertex 37 26.1282 0
      vertex 27.3176 42.8671 0
      vertex 29.4084 43.9324 0
    endloop
  endfacet
  facet normal 0 0 -1
    outer loop
      vertex 37 26.1282 0
      vertex 25 42.5 0
      vertex 27.3176 42.8671 0
    endloop
  endfacet
  facet normal 0 0 -1
    outer loop
      vertex 13 26.1282 0
      vertex 25 42.5 0
      vertex 37 26.1282 0
    endloop
  endfacet
  facet normal -0 0 -1
    outer loop
      vertex 25 42.5 0
      vertex 13 26.1282 0
      vertex 22.6824 42.8671 0
    endloop
  endfacet
  facet normal -0 0 -1
    outer loop
      vertex 22.6824 42.8671 0
      vertex 13 26.1282 0
      vertex 20.5916 43.9324 0
    endloop
  endfacet
  facet normal -0 0 -1
    outer loop
      vertex 17.8671 47.6824 0
      vertex 13 26.1282 0
      vertex 17.5 50 0
    endloop
  endfacet
  facet normal -0 0 -1
    outer loop
      vertex 18.9324 45.5916 0
      vertex 13 26.1282 0
      vertex 17.8671 47.6824 0
    endloop
  endfacet
  facet normal -0 0 -1
    outer loop
      vertex 20.5916 43.9324 0
      vertex 13 26.1282 0
      vertex 18.9324 45.5916 0
    endloop
  endfacet
  facet normal 0 0 -1
    outer loop
      vertex 37 26.1282 0
      vertex 50 90 0
      vertex 50 5 0
    endloop
  endfacet
  facet normal 0 0 -1
    outer loop
      vertex 32.5 50 0
      vertex 50 90 0
      vertex 37 26.1282 0
    endloop
  endfacet
  facet normal 0 0 -1
    outer loop
      vertex 31.0676 54.4084 0
      vertex 50 90 0
      vertex 32.1329 52.3176 0
    endloop
  endfacet
  facet normal 0 0 -1
    outer loop
      vertex 30 78 0
      vertex 50 90 0
      vertex 31.0676 54.4084 0
    endloop
  endfacet
  facet normal 0 0 -1
    outer loop
      vertex 30 88 0
      vertex 50 90 0
      vertex 30 78 0
    endloop
  endfacet
  facet normal 0 0 -1
    outer loop
      vertex 37 26.1282 0
      vertex 50 5 0
      vertex 37 5 0
    endloop
  endfacet
  facet normal 0 0 -1
    outer loop
      vertex 32.1329 52.3176 0
      vertex 50 90 0
      vertex 32.5 50 0
    endloop
  endfacet
  facet normal -0 0 -1
    outer loop
      vertex 49.5106 93.0902 0
      vertex 30 88 0
      vertex 48.0902 95.8779 0
    endloop
  endfacet
  facet normal -0 0 -1
    outer loop
      vertex 48.0902 95.8779 0
      vertex 30 88 0
      vertex 45.8779 98.0902 0
    endloop
  endfacet
  facet normal -0 0 -1
    outer loop
      vertex 50 90 0
      vertex 30 88 0
      vertex 49.5106 93.0902 0
    endloop
  endfacet
  facet normal -0 0 -1
    outer loop
      vertex 45.8779 98.0902 0
      vertex 30 88 0
      vertex 43.0902 99.5106 0
    endloop
  endfacet
  facet normal -0 0 -1
    outer loop
      vertex 43.0902 99.5106 0
      vertex 30 88 0
      vertex 40 100 0
    endloop
  endfacet
  facet normal 0 0 -1
    outer loop
      vertex 20 88 0
      vertex 40 100 0
      vertex 30 88 0
    endloop
  endfacet
  facet normal -0 0 -1
    outer loop
      vertex 20 78 0
      vertex 17.8671 52.3176 0
      vertex 10 100 0
    endloop
  endfacet
  facet normal 0 0 -1
    outer loop
      vertex 10 100 0
      vertex 17.8671 52.3176 0
      vertex 17.5 50 0
    endloop
  endfacet
  facet normal 0 0 -1
    outer loop
      vertex 10 100 0
      vertex 17.5 50 0
      vertex 13 26.1282 0
    endloop
  endfacet
  facet normal 0 0 -1
    outer loop
      vertex 20 88 0
      vertex 10 100 0
      vertex 40 100 0
    endloop
  endfacet
  facet normal 0 0 -1
    outer loop
      vertex 20 78 0
      vertex 10 100 0
      vertex 20 88 0
    endloop
  endfacet
  facet normal -0.891008 0.453988 0
    outer loop
      vertex 0.489434 93.0902 0
      vertex 1.90983 95.8779 10
      vertex 1.90983 95.8779 0
    endloop
  endfacet
  facet normal -0.891008 0.453988 0
    outer loop
      vertex 1.90983 95.8779 10
      vertex 0.489434 93.0902 0
      vertex 0.489434 93.0902 10
    endloop
  endfacet
  facet normal 0.453989 0.891007 -0
    outer loop
      vertex 45.8779 98.0902 0
      vertex 43.0902 99.5106 10
      vertex 45.8779 98.0902 10
    endloop
  endfacet
  facet normal 0.453989 0.891007 0
    outer loop
      vertex 43.0902 99.5106 10
      vertex 45.8779 98.0902 0
      vertex 43.0902 99.5106 0
    endloop
  endfacet
  facet normal 0.98769 0.156422 0
    outer loop
      vertex 50 90 10
      vertex 49.5106 93.0902 0
      vertex 49.5106 93.0902 10
    endloop
  endfacet
  facet normal 0.98769 0.156422 0
    outer loop
      vertex 49.5106 93.0902 0
      vertex 50 90 10
      vertex 50 90 0
    endloop
  endfacet
  facet normal 0 -0.987688 0.156435
    outer loop
      vertex 37 0 5
      vertex 50 0.244717 6.54508
      vertex 37 0.244717 6.54508
    endloop
  endfacet
  facet normal 0 -0.987688 0.156435
    outer loop
      vertex 50 0.244717 6.54508
      vertex 37 0 5
      vertex 50 0 5
    endloop
  endfacet
  facet normal 0 -0.987688 0.156435
    outer loop
      vertex 0 0 5
      vertex 13 0.244717 6.54508
      vertex 0 0.244717 6.54508
    endloop
  endfacet
  facet normal 0 -0.987688 0.156435
    outer loop
      vertex 13 0.244717 6.54508
      vertex 0 0 5
      vertex 13 0 5
    endloop
  endfacet
  facet normal 0 -0.156436 0.987688
    outer loop
      vertex 37 5 10
      vertex 50 3.45491 9.75528
      vertex 50 5 10
    endloop
  endfacet
  facet normal 0 -0.156436 0.987688
    outer loop
      vertex 50 3.45491 9.75528
      vertex 37 5 10
      vertex 37 3.45491 9.75528
    endloop
  endfacet
  facet normal 0 -0.156436 0.987688
    outer loop
      vertex 0 5 10
      vertex 13 3.45491 9.75528
      vertex 13 5 10
    endloop
  endfacet
  facet normal 0 -0.156436 0.987688
    outer loop
      vertex 13 3.45491 9.75528
      vertex 0 5 10
      vertex 0 3.45491 9.75528
    endloop
  endfacet
  facet normal 0 -0.891008 0.453988
    outer loop
      vertex 37 0.244717 6.54508
      vertex 50 0.954914 7.93893
      vertex 37 0.954914 7.93893
    endloop
  endfacet
  facet normal 0 -0.891008 0.453988
    outer loop
      vertex 50 0.954914 7.93893
      vertex 37 0.244717 6.54508
      vertex 50 0.244717 6.54508
    endloop
  endfacet
  facet normal 0 -0.891008 0.453988
    outer loop
      vertex 0 0.244717 6.54508
      vertex 13 0.954914 7.93893
      vertex 0 0.954914 7.93893
    endloop
  endfacet
  facet normal 0 -0.891008 0.453988
    outer loop
      vertex 13 0.954914 7.93893
      vertex 0 0.244717 6.54508
      vertex 13 0.244717 6.54508
    endloop
  endfacet
  facet normal 0 -0.891007 -0.453991
    outer loop
      vertex 0 0.954914 2.06107
      vertex 13 0.244717 3.45491
      vertex 0 0.244717 3.45491
    endloop
  endfacet
  facet normal 0 -0.891007 -0.453991
    outer loop
      vertex 13 0.244717 3.45491
      vertex 0 0.954914 2.06107
      vertex 13 0.954914 2.06107
    endloop
  endfacet
  facet normal 0 -0.891007 -0.453991
    outer loop
      vertex 37 0.954914 2.06107
      vertex 50 0.244717 3.45491
      vertex 37 0.244717 3.45491
    endloop
  endfacet
  facet normal 0 -0.891007 -0.453991
    outer loop
      vertex 50 0.244717 3.45491
      vertex 37 0.954914 2.06107
      vertex 50 0.954914 2.06107
    endloop
  endfacet
  facet normal 0 -0.707107 -0.707107
    outer loop
      vertex 0 2.06107 0.954914
      vertex 13 0.954914 2.06107
      vertex 0 0.954914 2.06107
    endloop
  endfacet
  facet normal 0 -0.707107 -0.707107
    outer loop
      vertex 13 0.954914 2.06107
      vertex 0 2.06107 0.954914
      vertex 13 2.06107 0.954914
    endloop
  endfacet
  facet normal 0 -0.707107 -0.707107
    outer loop
      vertex 37 2.06107 0.954914
      vertex 50 0.954914 2.06107
      vertex 37 0.954914 2.06107
    endloop
  endfacet
  facet normal 0 -0.707107 -0.707107
    outer loop
      vertex 50 0.954914 2.06107
      vertex 37 2.06107 0.954914
      vertex 50 2.06107 0.954914
    endloop
  endfacet
  facet normal 0 -0.453992 0.891006
    outer loop
      vertex 37 3.45491 9.75528
      vertex 50 2.06107 9.04508
      vertex 50 3.45491 9.75528
    endloop
  endfacet
  facet normal 0 -0.453992 0.891006
    outer loop
      vertex 50 2.06107 9.04508
      vertex 37 3.45491 9.75528
      vertex 37 2.06107 9.04508
    endloop
  endfacet
  facet normal 0 -0.453992 0.891006
    outer loop
      vertex 0 3.45491 9.75528
      vertex 13 2.06107 9.04508
      vertex 13 3.45491 9.75528
    endloop
  endfacet
  facet normal 0 -0.453992 0.891006
    outer loop
      vertex 13 2.06107 9.04508
      vertex 0 3.45491 9.75528
      vertex 0 2.06107 9.04508
    endloop
  endfacet
  facet normal 0 -0.707105 0.707109
    outer loop
      vertex 37 0.954914 7.93893
      vertex 50 2.06107 9.04508
      vertex 37 2.06107 9.04508
    endloop
  endfacet
  facet normal 0 -0.707105 0.707109
    outer loop
      vertex 50 2.06107 9.04508
      vertex 37 0.954914 7.93893
      vertex 50 0.954914 7.93893
    endloop
  endfacet
  facet normal 0 -0.707105 0.707109
    outer loop
      vertex 0 0.954914 7.93893
      vertex 13 2.06107 9.04508
      vertex 0 2.06107 9.04508
    endloop
  endfacet
  facet normal 0 -0.707105 0.707109
    outer loop
      vertex 13 2.06107 9.04508
      vertex 0 0.954914 7.93893
      vertex 13 0.954914 7.93893
    endloop
  endfacet
  facet normal 0 -0.987688 -0.156434
    outer loop
      vertex 0 0.244717 3.45491
      vertex 13 0 5
      vertex 0 0 5
    endloop
  endfacet
  facet normal 0 -0.987688 -0.156434
    outer loop
      vertex 13 0 5
      vertex 0 0.244717 3.45491
      vertex 13 0.244717 3.45491
    endloop
  endfacet
  facet normal 0 -0.987688 -0.156434
    outer loop
      vertex 37 0.244717 3.45491
      vertex 50 0 5
      vertex 37 0 5
    endloop
  endfacet
  facet normal 0 -0.987688 -0.156434
    outer loop
      vertex 50 0 5
      vertex 37 0.244717 3.45491
      vertex 50 0.244717 3.45491
    endloop
  endfacet
  facet normal 1 0 0
    outer loop
      vertex 50 90 10
      vertex 50 8.9 5
      vertex 50 90 0
    endloop
  endfacet
  facet normal 1 -0 0
    outer loop
      vertex 50 5 10
      vertex 50 8.9 5
      vertex 50 90 10
    endloop
  endfacet
  facet normal 1 0 0
    outer loop
      vertex 50 8.9 5
      vertex 50 6.94967 5.63348
      vertex 50 7.05 5
    endloop
  endfacet
  facet normal 1 0 0
    outer loop
      vertex 50 8.9 5
      vertex 50 6.65848 6.20496
      vertex 50 6.94967 5.63348
    endloop
  endfacet
  facet normal 1 0 0
    outer loop
      vertex 50 8.9 5
      vertex 50 5 10
      vertex 50 6.65848 6.20496
    endloop
  endfacet
  facet normal 1 0 0
    outer loop
      vertex 50 6.65848 6.20496
      vertex 50 5 10
      vertex 50 6.20496 6.65848
    endloop
  endfacet
  facet normal 1 0 0
    outer loop
      vertex 50 6.20496 6.65848
      vertex 50 5 10
      vertex 50 5.63348 6.94967
    endloop
  endfacet
  facet normal 1 0 0
    outer loop
      vertex 50 5 10
      vertex 50 5 7.05
      vertex 50 5.63348 6.94967
    endloop
  endfacet
  facet normal 1 0 0
    outer loop
      vertex 50 5 10
      vertex 50 4.36652 6.94967
      vertex 50 5 7.05
    endloop
  endfacet
  facet normal 1 -0 0
    outer loop
      vertex 50 3.45491 9.75528
      vertex 50 4.36652 6.94967
      vertex 50 5 10
    endloop
  endfacet
  facet normal 1 0 0
    outer loop
      vertex 50 4.36652 6.94967
      vertex 50 3.45491 9.75528
      vertex 50 3.79504 6.65848
    endloop
  endfacet
  facet normal 1 -0 0
    outer loop
      vertex 50 2.06107 9.04508
      vertex 50 3.79504 6.65848
      vertex 50 3.45491 9.75528
    endloop
  endfacet
  facet normal 1 0 0
    outer loop
      vertex 50 3.79504 6.65848
      vertex 50 2.06107 9.04508
      vertex 50 3.34152 6.20496
    endloop
  endfacet
  facet normal 1 -0 0
    outer loop
      vertex 50 0.954914 7.93893
      vertex 50 3.34152 6.20496
      vertex 50 2.06107 9.04508
    endloop
  endfacet
  facet normal 1 0 0
    outer loop
      vertex 50 3.34152 6.20496
      vertex 50 0.954914 7.93893
      vertex 50 3.05033 5.63348
    endloop
  endfacet
  facet normal 1 -0 0
    outer loop
      vertex 50 0.244717 6.54508
      vertex 50 3.05033 5.63348
      vertex 50 0.954914 7.93893
    endloop
  endfacet
  facet normal 1 0 0
    outer loop
      vertex 50 3.05033 5.63348
      vertex 50 1.1 5
      vertex 50 2.95 5
    endloop
  endfacet
  facet normal 1 -0 0
    outer loop
      vertex 50 8.70912 3.79483
      vertex 50 90 0
      vertex 50 8.9 5
    endloop
  endfacet
  facet normal 1 -0 0
    outer loop
      vertex 50 8.15517 2.70764
      vertex 50 90 0
      vertex 50 8.70912 3.79483
    endloop
  endfacet
  facet normal 1 -0 0
    outer loop
      vertex 50 7.29236 1.84483
      vertex 50 90 0
      vertex 50 8.15517 2.70764
    endloop
  endfacet
  facet normal 1 0 0
    outer loop
      vertex 50 5 0
      vertex 50 7.29236 1.84483
      vertex 50 6.20517 1.29088
    endloop
  endfacet
  facet normal 1 0 0
    outer loop
      vertex 50 5 0
      vertex 50 6.20517 1.29088
      vertex 50 5 1.1
    endloop
  endfacet
  facet normal 1 0 0
    outer loop
      vertex 50 7.29236 1.84483
      vertex 50 5 0
      vertex 50 90 0
    endloop
  endfacet
  facet normal 1 0 0
    outer loop
      vertex 50 3.79483 1.29088
      vertex 50 5 0
      vertex 50 5 1.1
    endloop
  endfacet
  facet normal 1 0 0
    outer loop
      vertex 50 3.79483 1.29088
      vertex 50 3.45491 0.244717
      vertex 50 5 0
    endloop
  endfacet
  facet normal 1 0 0
    outer loop
      vertex 50 2.70764 1.84483
      vertex 50 3.45491 0.244717
      vertex 50 3.79483 1.29088
    endloop
  endfacet
  facet normal 1 0 0
    outer loop
      vertex 50 2.70764 1.84483
      vertex 50 2.06107 0.954914
      vertex 50 3.45491 0.244717
    endloop
  endfacet
  facet normal 1 0 0
    outer loop
      vertex 50 1.84483 2.70764
      vertex 50 2.06107 0.954914
      vertex 50 2.70764 1.84483
    endloop
  endfacet
  facet normal 1 0 0
    outer loop
      vertex 50 0.954914 2.06107
      vertex 50 1.84483 2.70764
      vertex 50 1.29088 3.79483
    endloop
  endfacet
  facet normal 1 0 0
    outer loop
      vertex 50 1.84483 2.70764
      vertex 50 0.954914 2.06107
      vertex 50 2.06107 0.954914
    endloop
  endfacet
  facet normal 1 0 0
    outer loop
      vertex 50 0.244717 3.45491
      vertex 50 1.29088 3.79483
      vertex 50 1.1 5
    endloop
  endfacet
  facet normal 1 0 0
    outer loop
      vertex 50 3.05033 5.63348
      vertex 50 0.244717 6.54508
      vertex 50 1.1 5
    endloop
  endfacet
  facet normal 1 0 0
    outer loop
      vertex 50 0 5
      vertex 50 1.1 5
      vertex 50 0.244717 6.54508
    endloop
  endfacet
  facet normal 1 0 0
    outer loop
      vertex 50 1.29088 3.79483
      vertex 50 0.244717 3.45491
      vertex 50 0.954914 2.06107
    endloop
  endfacet
  facet normal 1 0 0
    outer loop
      vertex 50 1.1 5
      vertex 50 0 5
      vertex 50 0.244717 3.45491
    endloop
  endfacet
  facet normal -0.987686 -0.156446 0
    outer loop
      vertex 32.5 50 0
      vertex 32.1329 52.3176 2.5
      vertex 32.1329 52.3176 0
    endloop
  endfacet
  facet normal -0.987686 -0.156446 0
    outer loop
      vertex 32.1329 52.3176 2.5
      vertex 32.5 50 0
      vertex 32.5 50 2.5
    endloop
  endfacet
  facet normal -0.453985 -0.891009 0
    outer loop
      vertex 27.3176 57.1329 0
      vertex 29.4084 56.0676 2.5
      vertex 27.3176 57.1329 2.5
    endloop
  endfacet
  facet normal -0.453985 -0.891009 -0
    outer loop
      vertex 29.4084 56.0676 2.5
      vertex 27.3176 57.1329 0
      vertex 29.4084 56.0676 0
    endloop
  endfacet
  facet normal 0.987686 -0.156446 0
    outer loop
      vertex 17.5 50 2.5
      vertex 17.8671 52.3176 0
      vertex 17.8671 52.3176 2.5
    endloop
  endfacet
  facet normal 0.987686 -0.156446 0
    outer loop
      vertex 17.8671 52.3176 0
      vertex 17.5 50 2.5
      vertex 17.5 50 0
    endloop
  endfacet
  facet normal -0.453985 0.891009 0
    outer loop
      vertex 29.4084 43.9324 0
      vertex 27.3176 42.8671 2.5
      vertex 29.4084 43.9324 2.5
    endloop
  endfacet
  facet normal -0.453985 0.891009 0
    outer loop
      vertex 27.3176 42.8671 2.5
      vertex 29.4084 43.9324 0
      vertex 27.3176 42.8671 0
    endloop
  endfacet
  facet normal 0.156446 0.987686 -0
    outer loop
      vertex 25 42.5 0
      vertex 22.6824 42.8671 2.5
      vertex 25 42.5 2.5
    endloop
  endfacet
  facet normal 0.156446 0.987686 0
    outer loop
      vertex 22.6824 42.8671 2.5
      vertex 25 42.5 0
      vertex 22.6824 42.8671 0
    endloop
  endfacet
  facet normal -0.707107 -0.707107 0
    outer loop
      vertex 31.0676 54.4084 0
      vertex 29.4084 56.0676 2.5
      vertex 29.4084 56.0676 0
    endloop
  endfacet
  facet normal -0.707107 -0.707107 0
    outer loop
      vertex 29.4084 56.0676 2.5
      vertex 31.0676 54.4084 0
      vertex 31.0676 54.4084 2.5
    endloop
  endfacet
  facet normal -0.891009 -0.453985 0
    outer loop
      vertex 32.1329 52.3176 0
      vertex 31.0676 54.4084 2.5
      vertex 31.0676 54.4084 0
    endloop
  endfacet
  facet normal -0.891009 -0.453985 0
    outer loop
      vertex 31.0676 54.4084 2.5
      vertex 32.1329 52.3176 0
      vertex 32.1329 52.3176 2.5
    endloop
  endfacet
  facet normal 0.156446 -0.987686 0
    outer loop
      vertex 22.6824 57.1329 0
      vertex 25 57.5 2.5
      vertex 22.6824 57.1329 2.5
    endloop
  endfacet
  facet normal 0.156446 -0.987686 0
    outer loop
      vertex 25 57.5 2.5
      vertex 22.6824 57.1329 0
      vertex 25 57.5 0
    endloop
  endfacet
  facet normal 0.453985 -0.891009 0
    outer loop
      vertex 20.5916 56.0676 0
      vertex 22.6824 57.1329 2.5
      vertex 20.5916 56.0676 2.5
    endloop
  endfacet
  facet normal 0.453985 -0.891009 0
    outer loop
      vertex 22.6824 57.1329 2.5
      vertex 20.5916 56.0676 0
      vertex 22.6824 57.1329 0
    endloop
  endfacet
  facet normal 0.707107 -0.707107 0
    outer loop
      vertex 18.9324 54.4084 2.5
      vertex 20.5916 56.0676 0
      vertex 20.5916 56.0676 2.5
    endloop
  endfacet
  facet normal 0.707107 -0.707107 0
    outer loop
      vertex 20.5916 56.0676 0
      vertex 18.9324 54.4084 2.5
      vertex 18.9324 54.4084 0
    endloop
  endfacet
  facet normal 0.891009 0.453985 0
    outer loop
      vertex 18.9324 45.5916 2.5
      vertex 17.8671 47.6824 0
      vertex 17.8671 47.6824 2.5
    endloop
  endfacet
  facet normal 0.891009 0.453985 0
    outer loop
      vertex 17.8671 47.6824 0
      vertex 18.9324 45.5916 2.5
      vertex 18.9324 45.5916 0
    endloop
  endfacet
  facet normal 0.453985 0.891009 -0
    outer loop
      vertex 22.6824 42.8671 0
      vertex 20.5916 43.9324 2.5
      vertex 22.6824 42.8671 2.5
    endloop
  endfacet
  facet normal 0.453985 0.891009 0
    outer loop
      vertex 20.5916 43.9324 2.5
      vertex 22.6824 42.8671 0
      vertex 20.5916 43.9324 0
    endloop
  endfacet
  facet normal 0.707107 0.707107 0
    outer loop
      vertex 20.5916 43.9324 2.5
      vertex 18.9324 45.5916 0
      vertex 18.9324 45.5916 2.5
    endloop
  endfacet
  facet normal 0.707107 0.707107 0
    outer loop
      vertex 18.9324 45.5916 0
      vertex 20.5916 43.9324 2.5
      vertex 20.5916 43.9324 0
    endloop
  endfacet
  facet normal -0.156446 -0.987686 0
    outer loop
      vertex 25 57.5 0
      vertex 27.3176 57.1329 2.5
      vertex 25 57.5 2.5
    endloop
  endfacet
  facet normal -0.156446 -0.987686 -0
    outer loop
      vertex 27.3176 57.1329 2.5
      vertex 25 57.5 0
      vertex 27.3176 57.1329 0
    endloop
  endfacet
  facet normal 0.987686 0.156446 0
    outer loop
      vertex 17.8671 47.6824 2.5
      vertex 17.5 50 0
      vertex 17.5 50 2.5
    endloop
  endfacet
  facet normal 0.987686 0.156446 0
    outer loop
      vertex 17.5 50 0
      vertex 17.8671 47.6824 2.5
      vertex 17.8671 47.6824 0
    endloop
  endfacet
  facet normal 0.891009 -0.453985 0
    outer loop
      vertex 17.8671 52.3176 2.5
      vertex 18.9324 54.4084 0
      vertex 18.9324 54.4084 2.5
    endloop
  endfacet
  facet normal 0.891009 -0.453985 0
    outer loop
      vertex 18.9324 54.4084 0
      vertex 17.8671 52.3176 2.5
      vertex 17.8671 52.3176 0
    endloop
  endfacet
  facet normal -0.891009 0.453985 0
    outer loop
      vertex 31.0676 45.5916 0
      vertex 32.1329 47.6824 2.5
      vertex 32.1329 47.6824 0
    endloop
  endfacet
  facet normal -0.891009 0.453985 0
    outer loop
      vertex 32.1329 47.6824 2.5
      vertex 31.0676 45.5916 0
      vertex 31.0676 45.5916 2.5
    endloop
  endfacet
  facet normal -0.707107 0.707107 0
    outer loop
      vertex 29.4084 43.9324 0
      vertex 31.0676 45.5916 2.5
      vertex 31.0676 45.5916 0
    endloop
  endfacet
  facet normal -0.707107 0.707107 0
    outer loop
      vertex 31.0676 45.5916 2.5
      vertex 29.4084 43.9324 0
      vertex 29.4084 43.9324 2.5
    endloop
  endfacet
  facet normal -0.987686 0.156446 0
    outer loop
      vertex 32.1329 47.6824 0
      vertex 32.5 50 2.5
      vertex 32.5 50 0
    endloop
  endfacet
  facet normal -0.987686 0.156446 0
    outer loop
      vertex 32.5 50 2.5
      vertex 32.1329 47.6824 0
      vertex 32.1329 47.6824 2.5
    endloop
  endfacet
  facet normal -0.156446 0.987686 0
    outer loop
      vertex 27.3176 42.8671 0
      vertex 25 42.5 2.5
      vertex 27.3176 42.8671 2.5
    endloop
  endfacet
  facet normal -0.156446 0.987686 0
    outer loop
      vertex 25 42.5 2.5
      vertex 27.3176 42.8671 0
      vertex 25 42.5 0
    endloop
  endfacet
  facet normal 0 0 -1
    outer loop
      vertex 32.1329 47.6824 2.5
      vertex 32.1329 52.3176 2.5
      vertex 32.5 50 2.5
    endloop
  endfacet
  facet normal 0 0 -1
    outer loop
      vertex 31.0676 45.5916 2.5
      vertex 32.1329 52.3176 2.5
      vertex 32.1329 47.6824 2.5
    endloop
  endfacet
  facet normal 0 0 -1
    outer loop
      vertex 31.0676 45.5916 2.5
      vertex 31.0676 54.4084 2.5
      vertex 32.1329 52.3176 2.5
    endloop
  endfacet
  facet normal 0 0 -1
    outer loop
      vertex 29.4084 43.9324 2.5
      vertex 31.0676 54.4084 2.5
      vertex 31.0676 45.5916 2.5
    endloop
  endfacet
  facet normal 0 0 -1
    outer loop
      vertex 29.4084 43.9324 2.5
      vertex 29.4084 56.0676 2.5
      vertex 31.0676 54.4084 2.5
    endloop
  endfacet
  facet normal 0 0 -1
    outer loop
      vertex 27.3176 42.8671 2.5
      vertex 29.4084 56.0676 2.5
      vertex 29.4084 43.9324 2.5
    endloop
  endfacet
  facet normal 0 0 -1
    outer loop
      vertex 27.3176 42.8671 2.5
      vertex 27.3176 57.1329 2.5
      vertex 29.4084 56.0676 2.5
    endloop
  endfacet
  facet normal 0 0 -1
    outer loop
      vertex 25 42.5 2.5
      vertex 27.3176 57.1329 2.5
      vertex 27.3176 42.8671 2.5
    endloop
  endfacet
  facet normal 0 0 -1
    outer loop
      vertex 25 42.5 2.5
      vertex 25 57.5 2.5
      vertex 27.3176 57.1329 2.5
    endloop
  endfacet
  facet normal 0 0 -1
    outer loop
      vertex 22.6824 42.8671 2.5
      vertex 25 57.5 2.5
      vertex 25 42.5 2.5
    endloop
  endfacet
  facet normal 0 0 -1
    outer loop
      vertex 22.6824 42.8671 2.5
      vertex 22.6824 57.1329 2.5
      vertex 25 57.5 2.5
    endloop
  endfacet
  facet normal 0 0 -1
    outer loop
      vertex 20.5916 43.9324 2.5
      vertex 22.6824 57.1329 2.5
      vertex 22.6824 42.8671 2.5
    endloop
  endfacet
  facet normal 0 0 -1
    outer loop
      vertex 20.5916 43.9324 2.5
      vertex 20.5916 56.0676 2.5
      vertex 22.6824 57.1329 2.5
    endloop
  endfacet
  facet normal 0 0 -1
    outer loop
      vertex 18.9324 45.5916 2.5
      vertex 20.5916 56.0676 2.5
      vertex 20.5916 43.9324 2.5
    endloop
  endfacet
  facet normal 0 0 -1
    outer loop
      vertex 18.9324 45.5916 2.5
      vertex 18.9324 54.4084 2.5
      vertex 20.5916 56.0676 2.5
    endloop
  endfacet
  facet normal 0 0 -1
    outer loop
      vertex 17.8671 47.6824 2.5
      vertex 18.9324 54.4084 2.5
      vertex 18.9324 45.5916 2.5
    endloop
  endfacet
  facet normal 0 0 -1
    outer loop
      vertex 17.8671 47.6824 2.5
      vertex 17.8671 52.3176 2.5
      vertex 18.9324 54.4084 2.5
    endloop
  endfacet
  facet normal 0 -0 -1
    outer loop
      vertex 17.8671 52.3176 2.5
      vertex 17.8671 47.6824 2.5
      vertex 17.5 50 2.5
    endloop
  endfacet
  facet normal -1 0 0
    outer loop
      vertex 20 80.0611 -4.04508
      vertex 20 78.2447 -1.54508
      vertex 20 81.4549 -4.75528
    endloop
  endfacet
  facet normal -1 0 0
    outer loop
      vertex 20 78.2447 -1.54508
      vertex 20 88 0
      vertex 20 87.7553 -1.54508
    endloop
  endfacet
  facet normal -1 -0 0
    outer loop
      vertex 20 88 0
      vertex 20 78.2447 -1.54508
      vertex 20 78 0
    endloop
  endfacet
  facet normal -1 0 0
    outer loop
      vertex 20 81.4549 -4.75528
      vertex 20 78.2447 -1.54508
      vertex 20 83 -5
    endloop
  endfacet
  facet normal 0 -0.454002 -0.891
    outer loop
      vertex 20 80.0611 -4.04508
      vertex 30 81.4549 -4.75528
      vertex 30 80.0611 -4.04508
    endloop
  endfacet
  facet normal -0 -0.454002 -0.891
    outer loop
      vertex 30 81.4549 -4.75528
      vertex 20 80.0611 -4.04508
      vertex 20 81.4549 -4.75528
    endloop
  endfacet
  facet normal 0 -0.707091 -0.707123
    outer loop
      vertex 20 80.0611 -4.04508
      vertex 30 78.9549 -2.93893
      vertex 20 78.9549 -2.93893
    endloop
  endfacet
  facet normal 0 -0.707091 -0.707123
    outer loop
      vertex 30 78.9549 -2.93893
      vertex 20 80.0611 -4.04508
      vertex 30 80.0611 -4.04508
    endloop
  endfacet
  facet normal -1 0 0
    outer loop
      vertex 20 78.9549 -2.93893
      vertex 20 78.2447 -1.54508
      vertex 20 80.0611 -4.04508
    endloop
  endfacet
  facet normal -1 0 0
    outer loop
      vertex 20 83 -5
      vertex 20 78.2447 -1.54508
      vertex 20 87.7553 -1.54508
    endloop
  endfacet
  facet normal -0 -0.156435 -0.987688
    outer loop
      vertex 30 81.4549 -4.75528
      vertex 20 81.4549 -4.75528
      vertex 20 83 -5
    endloop
  endfacet
  facet normal 0 -0.98769 -0.156424
    outer loop
      vertex 20 78.2447 -1.54508
      vertex 30 78 0
      vertex 20 78 0
    endloop
  endfacet
  facet normal 0 -0.98769 -0.156424
    outer loop
      vertex 30 78 0
      vertex 20 78.2447 -1.54508
      vertex 30 78.2447 -1.54508
    endloop
  endfacet
  facet normal 0 -0.891007 -0.453989
    outer loop
      vertex 20 78.9549 -2.93893
      vertex 30 78.2447 -1.54508
      vertex 20 78.2447 -1.54508
    endloop
  endfacet
  facet normal 0 -0.891007 -0.453989
    outer loop
      vertex 30 78.2447 -1.54508
      vertex 20 78.9549 -2.93893
      vertex 30 78.9549 -2.93893
    endloop
  endfacet
  facet normal 0 0.156435 -0.987688
    outer loop
      vertex 30 84.5451 -4.75528
      vertex 20 83 -5
      vertex 20 84.5451 -4.75528
    endloop
  endfacet
  facet normal -1 0 0
    outer loop
      vertex 20 83 -5
      vertex 20 87.7553 -1.54508
      vertex 20 84.5451 -4.75528
    endloop
  endfacet
  facet normal -1 0 0
    outer loop
      vertex 20 85.9389 -4.04508
      vertex 20 87.7553 -1.54508
      vertex 20 87.0451 -2.93893
    endloop
  endfacet
  facet normal 0 -0.156435 -0.987688
    outer loop
      vertex 30 81.4549 -4.75528
      vertex 20 83 -5
      vertex 30 83 -5
    endloop
  endfacet
  facet normal 0 0.156435 -0.987688
    outer loop
      vertex 30 83 -5
      vertex 20 83 -5
      vertex 30 84.5451 -4.75528
    endloop
  endfacet
  facet normal -1 0 0
    outer loop
      vertex 20 84.5451 -4.75528
      vertex 20 87.7553 -1.54508
      vertex 20 85.9389 -4.04508
    endloop
  endfacet
  facet normal 0 0.454002 -0.891
    outer loop
      vertex 20 84.5451 -4.75528
      vertex 30 85.9389 -4.04508
      vertex 30 84.5451 -4.75528
    endloop
  endfacet
  facet normal 0 0.454002 -0.891
    outer loop
      vertex 30 85.9389 -4.04508
      vertex 20 84.5451 -4.75528
      vertex 20 85.9389 -4.04508
    endloop
  endfacet
  facet normal 0 0.891007 -0.453989
    outer loop
      vertex 30 87.0451 -2.93893
      vertex 20 87.7553 -1.54508
      vertex 30 87.7553 -1.54508
    endloop
  endfacet
  facet normal 0 0.891007 -0.453989
    outer loop
      vertex 20 87.7553 -1.54508
      vertex 30 87.0451 -2.93893
      vertex 20 87.0451 -2.93893
    endloop
  endfacet
  facet normal 0 0.707091 -0.707123
    outer loop
      vertex 30 85.9389 -4.04508
      vertex 20 87.0451 -2.93893
      vertex 30 87.0451 -2.93893
    endloop
  endfacet
  facet normal 0 0.707091 -0.707123
    outer loop
      vertex 20 87.0451 -2.93893
      vertex 30 85.9389 -4.04508
      vertex 20 85.9389 -4.04508
    endloop
  endfacet
  facet normal 0 0.98769 -0.156424
    outer loop
      vertex 30 87.7553 -1.54508
      vertex 20 88 0
      vertex 30 88 0
    endloop
  endfacet
  facet normal 0 0.98769 -0.156424
    outer loop
      vertex 20 88 0
      vertex 30 87.7553 -1.54508
      vertex 20 87.7553 -1.54508
    endloop
  endfacet
  facet normal 1 0 0
    outer loop
      vertex 30 88 0
      vertex 30 87.0451 -2.93893
      vertex 30 87.7553 -1.54508
    endloop
  endfacet
  facet normal 1 0 0
    outer loop
      vertex 30 88 0
      vertex 30 85.9389 -4.04508
      vertex 30 87.0451 -2.93893
    endloop
  endfacet
  facet normal 1 0 0
    outer loop
      vertex 30 88 0
      vertex 30 84.5451 -4.75528
      vertex 30 85.9389 -4.04508
    endloop
  endfacet
  facet normal 1 0 0
    outer loop
      vertex 30 88 0
      vertex 30 83 -5
      vertex 30 84.5451 -4.75528
    endloop
  endfacet
  facet normal 1 0 0
    outer loop
      vertex 30 88 0
      vertex 30 81.4549 -4.75528
      vertex 30 83 -5
    endloop
  endfacet
  facet normal 1 0 0
    outer loop
      vertex 30 88 0
      vertex 30 80.0611 -4.04508
      vertex 30 81.4549 -4.75528
    endloop
  endfacet
  facet normal 1 0 0
    outer loop
      vertex 30 88 0
      vertex 30 78.9549 -2.93893
      vertex 30 80.0611 -4.04508
    endloop
  endfacet
  facet normal 1 0 0
    outer loop
      vertex 30 88 0
      vertex 30 78.2447 -1.54508
      vertex 30 78.9549 -2.93893
    endloop
  endfacet
  facet normal 1 0 -0
    outer loop
      vertex 30 78.2447 -1.54508
      vertex 30 88 0
      vertex 30 78 0
    endloop
  endfacet
endsolid OpenSCAD_Model
