solid OpenSCAD_Model
  facet normal 0.86602 0.50001 0
    outer loop
      vertex 10.5058 4.67747 1
      vertex 9.30369 6.75953 0
      vertex 9.30369 6.75953 1
    endloop
  endfacet
  facet normal 0.86602 0.50001 0
    outer loop
      vertex 9.30369 6.75953 0
      vertex 10.5058 4.67747 1
      vertex 10.5058 4.67747 0
    endloop
  endfacet
  facet normal 0.95106 0.309007 0
    outer loop
      vertex 11.2487 2.39098 1
      vertex 10.5058 4.67747 0
      vertex 10.5058 4.67747 1
    endloop
  endfacet
  facet normal 0.95106 0.309007 0
    outer loop
      vertex 10.5058 4.67747 0
      vertex 11.2487 2.39098 1
      vertex 11.2487 2.39098 0
    endloop
  endfacet
  facet normal 0.406719 0.913553 -0
    outer loop
      vertex 5.75 9.95929 0
      vertex 3.55369 10.9371 1
      vertex 5.75 9.95929 1
    endloop
  endfacet
  facet normal 0.406719 0.913553 0
    outer loop
      vertex 3.55369 10.9371 1
      vertex 5.75 9.95929 0
      vertex 3.55369 10.9371 0
    endloop
  endfacet
  facet normal -0.207932 0.978143 0
    outer loop
      vertex -1.20208 11.437 0
      vertex -3.55369 10.9371 1
      vertex -1.20208 11.437 1
    endloop
  endfacet
  facet normal -0.207932 0.978143 0
    outer loop
      vertex -3.55369 10.9371 1
      vertex -1.20208 11.437 0
      vertex -3.55369 10.9371 0
    endloop
  endfacet
  facet normal -0.86602 0.50001 0
    outer loop
      vertex -10.5058 4.67747 0
      vertex -9.30369 6.75953 1
      vertex -9.30369 6.75953 0
    endloop
  endfacet
  facet normal -0.86602 0.50001 0
    outer loop
      vertex -9.30369 6.75953 1
      vertex -10.5058 4.67747 0
      vertex -10.5058 4.67747 1
    endloop
  endfacet
  facet normal 0.994522 -0.104528 0
    outer loop
      vertex 11.2487 -2.39098 1
      vertex 11.5 0 0
      vertex 11.5 0 1
    endloop
  endfacet
  facet normal 0.994522 -0.104528 0
    outer loop
      vertex 11.5 0 0
      vertex 11.2487 -2.39098 1
      vertex 11.2487 -2.39098 0
    endloop
  endfacet
  facet normal 0.207932 -0.978143 0
    outer loop
      vertex 1.20208 -11.437 0
      vertex 3.55369 -10.9371 1
      vertex 1.20208 -11.437 1
    endloop
  endfacet
  facet normal 0.207932 -0.978143 0
    outer loop
      vertex 3.55369 -10.9371 1
      vertex 1.20208 -11.437 0
      vertex 3.55369 -10.9371 0
    endloop
  endfacet
  facet normal 0.743146 0.669129 0
    outer loop
      vertex 9.30369 6.75953 1
      vertex 7.695 8.54617 0
      vertex 7.695 8.54617 1
    endloop
  endfacet
  facet normal 0.743146 0.669129 0
    outer loop
      vertex 7.695 8.54617 0
      vertex 9.30369 6.75953 1
      vertex 9.30369 6.75953 0
    endloop
  endfacet
  facet normal 0 1 -0
    outer loop
      vertex 1.20208 11.437 0
      vertex -1.20208 11.437 1
      vertex 1.20208 11.437 1
    endloop
  endfacet
  facet normal 0 1 0
    outer loop
      vertex -1.20208 11.437 1
      vertex 1.20208 11.437 0
      vertex -1.20208 11.437 0
    endloop
  endfacet
  facet normal 0.587784 0.809018 -0
    outer loop
      vertex 7.695 8.54617 0
      vertex 5.75 9.95929 1
      vertex 7.695 8.54617 1
    endloop
  endfacet
  facet normal 0.587784 0.809018 0
    outer loop
      vertex 5.75 9.95929 1
      vertex 7.695 8.54617 0
      vertex 5.75 9.95929 0
    endloop
  endfacet
  facet normal -0.994522 0.104528 0
    outer loop
      vertex -11.5 0 0
      vertex -11.2487 2.39098 1
      vertex -11.2487 2.39098 0
    endloop
  endfacet
  facet normal -0.994522 0.104528 0
    outer loop
      vertex -11.2487 2.39098 1
      vertex -11.5 0 0
      vertex -11.5 0 1
    endloop
  endfacet
  facet normal -0.743146 0.669129 0
    outer loop
      vertex -9.30369 6.75953 0
      vertex -7.695 8.54617 1
      vertex -7.695 8.54617 0
    endloop
  endfacet
  facet normal -0.743146 0.669129 0
    outer loop
      vertex -7.695 8.54617 1
      vertex -9.30369 6.75953 0
      vertex -9.30369 6.75953 1
    endloop
  endfacet
  facet normal -0.406719 0.913553 0
    outer loop
      vertex -3.55369 10.9371 0
      vertex -5.75 9.95929 1
      vertex -3.55369 10.9371 1
    endloop
  endfacet
  facet normal -0.406719 0.913553 0
    outer loop
      vertex -5.75 9.95929 1
      vertex -3.55369 10.9371 0
      vertex -5.75 9.95929 0
    endloop
  endfacet
  facet normal -0.587784 0.809018 0
    outer loop
      vertex -5.75 9.95929 0
      vertex -7.695 8.54617 1
      vertex -5.75 9.95929 1
    endloop
  endfacet
  facet normal -0.587784 0.809018 0
    outer loop
      vertex -7.695 8.54617 1
      vertex -5.75 9.95929 0
      vertex -7.695 8.54617 0
    endloop
  endfacet
  facet normal 0.994522 0.104528 0
    outer loop
      vertex 11.5 0 1
      vertex 11.2487 2.39098 0
      vertex 11.2487 2.39098 1
    endloop
  endfacet
  facet normal 0.994522 0.104528 0
    outer loop
      vertex 11.2487 2.39098 0
      vertex 11.5 0 1
      vertex 11.5 0 0
    endloop
  endfacet
  facet normal 0.587784 -0.809018 0
    outer loop
      vertex 5.75 -9.95929 0
      vertex 7.695 -8.54617 1
      vertex 5.75 -9.95929 1
    endloop
  endfacet
  facet normal 0.587784 -0.809018 0
    outer loop
      vertex 7.695 -8.54617 1
      vertex 5.75 -9.95929 0
      vertex 7.695 -8.54617 0
    endloop
  endfacet
  facet normal 0.95106 -0.309007 0
    outer loop
      vertex 10.5058 -4.67747 1
      vertex 11.2487 -2.39098 0
      vertex 11.2487 -2.39098 1
    endloop
  endfacet
  facet normal 0.95106 -0.309007 0
    outer loop
      vertex 11.2487 -2.39098 0
      vertex 10.5058 -4.67747 1
      vertex 10.5058 -4.67747 0
    endloop
  endfacet
  facet normal -0.587784 -0.809018 0
    outer loop
      vertex -7.695 -8.54617 0
      vertex -5.75 -9.95929 1
      vertex -7.695 -8.54617 1
    endloop
  endfacet
  facet normal -0.587784 -0.809018 -0
    outer loop
      vertex -5.75 -9.95929 1
      vertex -7.695 -8.54617 0
      vertex -5.75 -9.95929 0
    endloop
  endfacet
  facet normal -0.86602 -0.50001 0
    outer loop
      vertex -9.30369 -6.75953 0
      vertex -10.5058 -4.67747 1
      vertex -10.5058 -4.67747 0
    endloop
  endfacet
  facet normal -0.86602 -0.50001 0
    outer loop
      vertex -10.5058 -4.67747 1
      vertex -9.30369 -6.75953 0
      vertex -9.30369 -6.75953 1
    endloop
  endfacet
  facet normal 0.207932 0.978143 -0
    outer loop
      vertex 3.55369 10.9371 0
      vertex 1.20208 11.437 1
      vertex 3.55369 10.9371 1
    endloop
  endfacet
  facet normal 0.207932 0.978143 0
    outer loop
      vertex 1.20208 11.437 1
      vertex 3.55369 10.9371 0
      vertex 1.20208 11.437 0
    endloop
  endfacet
  facet normal 0 0 1
    outer loop
      vertex 9 0 1
      vertex 11.5 0 1
      vertex 11.2487 2.39098 1
    endloop
  endfacet
  facet normal 0 0 1
    outer loop
      vertex 8.78958 1.93473 1
      vertex 11.2487 2.39098 1
      vertex 10.5058 4.67747 1
    endloop
  endfacet
  facet normal 0 0 1
    outer loop
      vertex 11.5 0 1
      vertex 9 0 1
      vertex 11.2487 -2.39098 1
    endloop
  endfacet
  facet normal 0 0 1
    outer loop
      vertex 8.16818 3.779 1
      vertex 10.5058 4.67747 1
      vertex 9.30369 6.75953 1
    endloop
  endfacet
  facet normal -0 0 1
    outer loop
      vertex 8.78958 -1.93473 1
      vertex 11.2487 -2.39098 1
      vertex 9 0 1
    endloop
  endfacet
  facet normal 0 0 1
    outer loop
      vertex 11.2487 -2.39098 1
      vertex 8.78958 -1.93473 1
      vertex 10.5058 -4.67747 1
    endloop
  endfacet
  facet normal 0 0 1
    outer loop
      vertex 11.2487 2.39098 1
      vertex 8.78958 1.93473 1
      vertex 9 0 1
    endloop
  endfacet
  facet normal 0 0 1
    outer loop
      vertex 10.5058 4.67747 1
      vertex 8.16818 3.779 1
      vertex 8.78958 1.93473 1
    endloop
  endfacet
  facet normal 0 0 1
    outer loop
      vertex 7.16484 5.44657 1
      vertex 9.30369 6.75953 1
      vertex 7.695 8.54617 1
    endloop
  endfacet
  facet normal 0 0 1
    outer loop
      vertex 9.30369 6.75953 1
      vertex 7.16484 5.44657 1
      vertex 8.16818 3.779 1
    endloop
  endfacet
  facet normal 0 0 1
    outer loop
      vertex 7.695 8.54617 1
      vertex 5.82648 6.85946 1
      vertex 7.16484 5.44657 1
    endloop
  endfacet
  facet normal 0 0 1
    outer loop
      vertex 5.75 9.95929 1
      vertex 5.82648 6.85946 1
      vertex 7.695 8.54617 1
    endloop
  endfacet
  facet normal 0 0 1
    outer loop
      vertex 5.75 9.95929 1
      vertex 4.21568 7.95161 1
      vertex 5.82648 6.85946 1
    endloop
  endfacet
  facet normal 0 0 1
    outer loop
      vertex 3.55369 10.9371 1
      vertex 4.21568 7.95161 1
      vertex 5.75 9.95929 1
    endloop
  endfacet
  facet normal 0 0 1
    outer loop
      vertex 3.55369 10.9371 1
      vertex 2.40775 8.67195 1
      vertex 4.21568 7.95161 1
    endloop
  endfacet
  facet normal 0 0 1
    outer loop
      vertex 1.20208 11.437 1
      vertex 2.40775 8.67195 1
      vertex 3.55369 10.9371 1
    endloop
  endfacet
  facet normal 0 0 1
    outer loop
      vertex 1.20208 11.437 1
      vertex 0.487249 8.9868 1
      vertex 2.40775 8.67195 1
    endloop
  endfacet
  facet normal -0 0 1
    outer loop
      vertex -1.20208 11.437 1
      vertex 0.487249 8.9868 1
      vertex 1.20208 11.437 1
    endloop
  endfacet
  facet normal 0 0 1
    outer loop
      vertex -1.20208 11.437 1
      vertex -1.45604 8.88144 1
      vertex 0.487249 8.9868 1
    endloop
  endfacet
  facet normal -0 0 1
    outer loop
      vertex -3.55369 10.9371 1
      vertex -1.45604 8.88144 1
      vertex -1.20208 11.437 1
    endloop
  endfacet
  facet normal 0 0 1
    outer loop
      vertex -1.45604 8.88144 1
      vertex -3.55369 10.9371 1
      vertex -3.33124 8.36079 1
    endloop
  endfacet
  facet normal -0 0 1
    outer loop
      vertex -5.75 9.95929 1
      vertex -3.33124 8.36079 1
      vertex -3.55369 10.9371 1
    endloop
  endfacet
  facet normal 0 0 1
    outer loop
      vertex -3.33124 8.36079 1
      vertex -5.75 9.95929 1
      vertex -5.05068 7.4492 1
    endloop
  endfacet
  facet normal -0 0 1
    outer loop
      vertex -7.695 8.54617 1
      vertex -5.05068 7.4492 1
      vertex -5.75 9.95929 1
    endloop
  endfacet
  facet normal 0 0 1
    outer loop
      vertex -5.05068 7.4492 1
      vertex -7.695 8.54617 1
      vertex -6.53396 6.18929 1
    endloop
  endfacet
  facet normal -0 0 1
    outer loop
      vertex -9.30369 6.75953 1
      vertex -6.53396 6.18929 1
      vertex -7.695 8.54617 1
    endloop
  endfacet
  facet normal 0 0 1
    outer loop
      vertex -6.53396 6.18929 1
      vertex -9.30369 6.75953 1
      vertex -7.71171 4.63998 1
    endloop
  endfacet
  facet normal -0 0 1
    outer loop
      vertex -10.5058 4.67747 1
      vertex -7.71171 4.63998 1
      vertex -9.30369 6.75953 1
    endloop
  endfacet
  facet normal 0 0 1
    outer loop
      vertex -11.2487 2.39098 1
      vertex -8.52888 2.87371 1
      vertex -10.5058 4.67747 1
    endloop
  endfacet
  facet normal 0 0 1
    outer loop
      vertex -7.71171 4.63998 1
      vertex -10.5058 4.67747 1
      vertex -8.52888 2.87371 1
    endloop
  endfacet
  facet normal -0 0 1
    outer loop
      vertex 8.16818 -3.779 1
      vertex 10.5058 -4.67747 1
      vertex 8.78958 -1.93473 1
    endloop
  endfacet
  facet normal 0 0 1
    outer loop
      vertex 10.5058 -4.67747 1
      vertex 8.16818 -3.779 1
      vertex 9.30369 -6.75953 1
    endloop
  endfacet
  facet normal -0 0 1
    outer loop
      vertex 7.16484 -5.44657 1
      vertex 9.30369 -6.75953 1
      vertex 8.16818 -3.779 1
    endloop
  endfacet
  facet normal 0 0 1
    outer loop
      vertex 9.30369 -6.75953 1
      vertex 7.16484 -5.44657 1
      vertex 7.695 -8.54617 1
    endloop
  endfacet
  facet normal -0 0 1
    outer loop
      vertex 5.82648 -6.85946 1
      vertex 7.695 -8.54617 1
      vertex 7.16484 -5.44657 1
    endloop
  endfacet
  facet normal 0 0 1
    outer loop
      vertex 5.82648 -6.85946 1
      vertex 5.75 -9.95929 1
      vertex 7.695 -8.54617 1
    endloop
  endfacet
  facet normal -0 0 1
    outer loop
      vertex 4.21568 -7.95161 1
      vertex 5.75 -9.95929 1
      vertex 5.82648 -6.85946 1
    endloop
  endfacet
  facet normal 0 0 1
    outer loop
      vertex 4.21568 -7.95161 1
      vertex 3.55369 -10.9371 1
      vertex 5.75 -9.95929 1
    endloop
  endfacet
  facet normal -0 0 1
    outer loop
      vertex 2.40775 -8.67195 1
      vertex 3.55369 -10.9371 1
      vertex 4.21568 -7.95161 1
    endloop
  endfacet
  facet normal 0 0 1
    outer loop
      vertex 2.40775 -8.67195 1
      vertex 1.20208 -11.437 1
      vertex 3.55369 -10.9371 1
    endloop
  endfacet
  facet normal -0 0 1
    outer loop
      vertex 0.487249 -8.9868 1
      vertex 1.20208 -11.437 1
      vertex 2.40775 -8.67195 1
    endloop
  endfacet
  facet normal 0 0 1
    outer loop
      vertex 0.487249 -8.9868 1
      vertex -1.20208 -11.437 1
      vertex 1.20208 -11.437 1
    endloop
  endfacet
  facet normal 0 0 1
    outer loop
      vertex -1.45604 -8.88144 1
      vertex -1.20208 -11.437 1
      vertex 0.487249 -8.9868 1
    endloop
  endfacet
  facet normal 0 0 1
    outer loop
      vertex -3.55369 -10.9371 1
      vertex -1.45604 -8.88144 1
      vertex -3.33124 -8.36079 1
    endloop
  endfacet
  facet normal 0 0 1
    outer loop
      vertex -1.45604 -8.88144 1
      vertex -3.55369 -10.9371 1
      vertex -1.20208 -11.437 1
    endloop
  endfacet
  facet normal 0 0 1
    outer loop
      vertex -5.75 -9.95929 1
      vertex -3.33124 -8.36079 1
      vertex -5.05068 -7.4492 1
    endloop
  endfacet
  facet normal 0 0 1
    outer loop
      vertex -3.33124 -8.36079 1
      vertex -5.75 -9.95929 1
      vertex -3.55369 -10.9371 1
    endloop
  endfacet
  facet normal 0 0 1
    outer loop
      vertex -7.695 -8.54617 1
      vertex -5.05068 -7.4492 1
      vertex -6.53396 -6.18929 1
    endloop
  endfacet
  facet normal 0 0 1
    outer loop
      vertex -5.05068 -7.4492 1
      vertex -7.695 -8.54617 1
      vertex -5.75 -9.95929 1
    endloop
  endfacet
  facet normal 0 0 1
    outer loop
      vertex -9.30369 -6.75953 1
      vertex -6.53396 -6.18929 1
      vertex -7.71171 -4.63998 1
    endloop
  endfacet
  facet normal 0 0 1
    outer loop
      vertex -10.5058 -4.67747 1
      vertex -7.71171 -4.63998 1
      vertex -8.52888 -2.87371 1
    endloop
  endfacet
  facet normal -0 0 1
    outer loop
      vertex -11.2487 -2.39098 1
      vertex -8.52888 -2.87371 1
      vertex -8.94724 -0.973071 1
    endloop
  endfacet
  facet normal 0 0 1
    outer loop
      vertex -6.53396 -6.18929 1
      vertex -9.30369 -6.75953 1
      vertex -7.695 -8.54617 1
    endloop
  endfacet
  facet normal 0 0 1
    outer loop
      vertex -8.52888 2.87371 1
      vertex -11.2487 2.39098 1
      vertex -8.94724 0.973071 1
    endloop
  endfacet
  facet normal 0 0 1
    outer loop
      vertex -11.5 0 1
      vertex -8.94724 0.973071 1
      vertex -11.2487 2.39098 1
    endloop
  endfacet
  facet normal 0 0 1
    outer loop
      vertex -7.71171 -4.63998 1
      vertex -10.5058 -4.67747 1
      vertex -9.30369 -6.75953 1
    endloop
  endfacet
  facet normal 0 0 1
    outer loop
      vertex -8.94724 0.973071 1
      vertex -11.5 0 1
      vertex -8.94724 -0.973071 1
    endloop
  endfacet
  facet normal 0 0 1
    outer loop
      vertex -8.52888 -2.87371 1
      vertex -11.2487 -2.39098 1
      vertex -10.5058 -4.67747 1
    endloop
  endfacet
  facet normal 0 0 1
    outer loop
      vertex -8.94724 -0.973071 1
      vertex -11.5 0 1
      vertex -11.2487 -2.39098 1
    endloop
  endfacet
  facet normal -0.95106 0.309007 0
    outer loop
      vertex -11.2487 2.39098 0
      vertex -10.5058 4.67747 1
      vertex -10.5058 4.67747 0
    endloop
  endfacet
  facet normal -0.95106 0.309007 0
    outer loop
      vertex -10.5058 4.67747 1
      vertex -11.2487 2.39098 0
      vertex -11.2487 2.39098 1
    endloop
  endfacet
  facet normal 0 -1 0
    outer loop
      vertex -1.20208 -11.437 0
      vertex 1.20208 -11.437 1
      vertex -1.20208 -11.437 1
    endloop
  endfacet
  facet normal 0 -1 -0
    outer loop
      vertex 1.20208 -11.437 1
      vertex -1.20208 -11.437 0
      vertex 1.20208 -11.437 0
    endloop
  endfacet
  facet normal -0.994522 -0.104528 0
    outer loop
      vertex -11.2487 -2.39098 0
      vertex -11.5 0 1
      vertex -11.5 0 0
    endloop
  endfacet
  facet normal -0.994522 -0.104528 0
    outer loop
      vertex -11.5 0 1
      vertex -11.2487 -2.39098 0
      vertex -11.2487 -2.39098 1
    endloop
  endfacet
  facet normal 0 0 -1
    outer loop
      vertex 8 0 0
      vertex 11.5 0 0
      vertex 11.2487 -2.39098 0
    endloop
  endfacet
  facet normal 0 0 -1
    outer loop
      vertex 7.76753 -1.91453 0
      vertex 11.2487 -2.39098 0
      vertex 10.5058 -4.67747 0
    endloop
  endfacet
  facet normal 0 0 -1
    outer loop
      vertex 11.5 0 0
      vertex 8 0 0
      vertex 11.2487 2.39098 0
    endloop
  endfacet
  facet normal 0 0 -1
    outer loop
      vertex 7.08365 -3.71778 0
      vertex 10.5058 -4.67747 0
      vertex 9.30369 -6.75953 0
    endloop
  endfacet
  facet normal 0 0 -1
    outer loop
      vertex 7.76753 1.91453 0
      vertex 11.2487 2.39098 0
      vertex 8 0 0
    endloop
  endfacet
  facet normal -0 0 -1
    outer loop
      vertex 11.2487 2.39098 0
      vertex 7.76753 1.91453 0
      vertex 10.5058 4.67747 0
    endloop
  endfacet
  facet normal 0 0 -1
    outer loop
      vertex 11.2487 -2.39098 0
      vertex 7.76753 -1.91453 0
      vertex 8 0 0
    endloop
  endfacet
  facet normal 0 0 -1
    outer loop
      vertex 5.98809 -5.30498 0
      vertex 9.30369 -6.75953 0
      vertex 7.695 -8.54617 0
    endloop
  endfacet
  facet normal 0 0 -1
    outer loop
      vertex 10.5058 -4.67747 0
      vertex 7.08365 -3.71778 0
      vertex 7.76753 -1.91453 0
    endloop
  endfacet
  facet normal 0 0 -1
    outer loop
      vertex 9.30369 -6.75953 0
      vertex 5.98809 -5.30498 0
      vertex 7.08365 -3.71778 0
    endloop
  endfacet
  facet normal 0 0 -1
    outer loop
      vertex 4.54452 -6.58387 0
      vertex 7.695 -8.54617 0
      vertex 5.75 -9.95929 0
    endloop
  endfacet
  facet normal 0 0 -1
    outer loop
      vertex 7.695 -8.54617 0
      vertex 4.54452 -6.58387 0
      vertex 5.98809 -5.30498 0
    endloop
  endfacet
  facet normal 0 0 -1
    outer loop
      vertex 2.83684 -7.48013 0
      vertex 5.75 -9.95929 0
      vertex 3.55369 -10.9371 0
    endloop
  endfacet
  facet normal 0 0 -1
    outer loop
      vertex 5.75 -9.95929 0
      vertex 2.83684 -7.48013 0
      vertex 4.54452 -6.58387 0
    endloop
  endfacet
  facet normal 0 0 -1
    outer loop
      vertex 0.964293 -7.94167 0
      vertex 3.55369 -10.9371 0
      vertex 1.20208 -11.437 0
    endloop
  endfacet
  facet normal 0 0 -1
    outer loop
      vertex 3.55369 -10.9371 0
      vertex 0.964293 -7.94167 0
      vertex 2.83684 -7.48013 0
    endloop
  endfacet
  facet normal 0 0 -1
    outer loop
      vertex 1.20208 -11.437 0
      vertex -0.964293 -7.94167 0
      vertex 0.964293 -7.94167 0
    endloop
  endfacet
  facet normal 0 0 -1
    outer loop
      vertex -1.20208 -11.437 0
      vertex -0.964293 -7.94167 0
      vertex 1.20208 -11.437 0
    endloop
  endfacet
  facet normal 0 0 -1
    outer loop
      vertex -3.55369 -10.9371 0
      vertex -0.964293 -7.94167 0
      vertex -1.20208 -11.437 0
    endloop
  endfacet
  facet normal -0 0 -1
    outer loop
      vertex -0.964293 -7.94167 0
      vertex -3.55369 -10.9371 0
      vertex -2.83684 -7.48013 0
    endloop
  endfacet
  facet normal 0 0 -1
    outer loop
      vertex -5.75 -9.95929 0
      vertex -2.83684 -7.48013 0
      vertex -3.55369 -10.9371 0
    endloop
  endfacet
  facet normal -0 0 -1
    outer loop
      vertex -2.83684 -7.48013 0
      vertex -5.75 -9.95929 0
      vertex -4.54452 -6.58387 0
    endloop
  endfacet
  facet normal 0 0 -1
    outer loop
      vertex -7.695 -8.54617 0
      vertex -4.54452 -6.58387 0
      vertex -5.75 -9.95929 0
    endloop
  endfacet
  facet normal -0 0 -1
    outer loop
      vertex -4.54452 -6.58387 0
      vertex -7.695 -8.54617 0
      vertex -5.98809 -5.30498 0
    endloop
  endfacet
  facet normal 0 0 -1
    outer loop
      vertex -9.30369 -6.75953 0
      vertex -5.98809 -5.30498 0
      vertex -7.695 -8.54617 0
    endloop
  endfacet
  facet normal -0 0 -1
    outer loop
      vertex -5.98809 -5.30498 0
      vertex -9.30369 -6.75953 0
      vertex -7.08365 -3.71778 0
    endloop
  endfacet
  facet normal 0 0 -1
    outer loop
      vertex -10.5058 -4.67747 0
      vertex -7.08365 -3.71778 0
      vertex -9.30369 -6.75953 0
    endloop
  endfacet
  facet normal -0 0 -1
    outer loop
      vertex -7.08365 -3.71778 0
      vertex -10.5058 -4.67747 0
      vertex -7.76753 -1.91453 0
    endloop
  endfacet
  facet normal 0 0 -1
    outer loop
      vertex 7.08365 3.71778 0
      vertex 10.5058 4.67747 0
      vertex 7.76753 1.91453 0
    endloop
  endfacet
  facet normal -0 0 -1
    outer loop
      vertex 10.5058 4.67747 0
      vertex 7.08365 3.71778 0
      vertex 9.30369 6.75953 0
    endloop
  endfacet
  facet normal 0 0 -1
    outer loop
      vertex 5.98809 5.30498 0
      vertex 9.30369 6.75953 0
      vertex 7.08365 3.71778 0
    endloop
  endfacet
  facet normal -0 0 -1
    outer loop
      vertex 9.30369 6.75953 0
      vertex 5.98809 5.30498 0
      vertex 7.695 8.54617 0
    endloop
  endfacet
  facet normal 0 0 -1
    outer loop
      vertex 4.54452 6.58387 0
      vertex 7.695 8.54617 0
      vertex 5.98809 5.30498 0
    endloop
  endfacet
  facet normal -0 0 -1
    outer loop
      vertex 7.695 8.54617 0
      vertex 4.54452 6.58387 0
      vertex 5.75 9.95929 0
    endloop
  endfacet
  facet normal 0 0 -1
    outer loop
      vertex 2.83684 7.48013 0
      vertex 5.75 9.95929 0
      vertex 4.54452 6.58387 0
    endloop
  endfacet
  facet normal -0 0 -1
    outer loop
      vertex 5.75 9.95929 0
      vertex 2.83684 7.48013 0
      vertex 3.55369 10.9371 0
    endloop
  endfacet
  facet normal 0 0 -1
    outer loop
      vertex 0.964293 7.94167 0
      vertex 3.55369 10.9371 0
      vertex 2.83684 7.48013 0
    endloop
  endfacet
  facet normal -0 0 -1
    outer loop
      vertex 3.55369 10.9371 0
      vertex 0.964293 7.94167 0
      vertex 1.20208 11.437 0
    endloop
  endfacet
  facet normal 0 0 -1
    outer loop
      vertex -0.964293 7.94167 0
      vertex 1.20208 11.437 0
      vertex 0.964293 7.94167 0
    endloop
  endfacet
  facet normal 0 0 -1
    outer loop
      vertex -0.964293 7.94167 0
      vertex -1.20208 11.437 0
      vertex 1.20208 11.437 0
    endloop
  endfacet
  facet normal 0 0 -1
    outer loop
      vertex -3.55369 10.9371 0
      vertex -0.964293 7.94167 0
      vertex -2.83684 7.48013 0
    endloop
  endfacet
  facet normal 0 0 -1
    outer loop
      vertex -0.964293 7.94167 0
      vertex -3.55369 10.9371 0
      vertex -1.20208 11.437 0
    endloop
  endfacet
  facet normal 0 0 -1
    outer loop
      vertex -5.75 9.95929 0
      vertex -2.83684 7.48013 0
      vertex -4.54452 6.58387 0
    endloop
  endfacet
  facet normal 0 0 -1
    outer loop
      vertex -2.83684 7.48013 0
      vertex -5.75 9.95929 0
      vertex -3.55369 10.9371 0
    endloop
  endfacet
  facet normal 0 0 -1
    outer loop
      vertex -7.695 8.54617 0
      vertex -4.54452 6.58387 0
      vertex -5.98809 5.30498 0
    endloop
  endfacet
  facet normal 0 0 -1
    outer loop
      vertex -9.30369 6.75953 0
      vertex -5.98809 5.30498 0
      vertex -7.08365 3.71778 0
    endloop
  endfacet
  facet normal 0 0 -1
    outer loop
      vertex -4.54452 6.58387 0
      vertex -7.695 8.54617 0
      vertex -5.75 9.95929 0
    endloop
  endfacet
  facet normal 0 0 -1
    outer loop
      vertex -10.5058 4.67747 0
      vertex -7.08365 3.71778 0
      vertex -7.76753 1.91453 0
    endloop
  endfacet
  facet normal 0 0 -1
    outer loop
      vertex -11.2487 2.39098 0
      vertex -7.76753 1.91453 0
      vertex -8 0 0
    endloop
  endfacet
  facet normal 0 0 -1
    outer loop
      vertex -11.2487 -2.39098 0
      vertex -7.76753 -1.91453 0
      vertex -10.5058 -4.67747 0
    endloop
  endfacet
  facet normal 0 0 -1
    outer loop
      vertex -5.98809 5.30498 0
      vertex -9.30369 6.75953 0
      vertex -7.695 8.54617 0
    endloop
  endfacet
  facet normal -0 0 -1
    outer loop
      vertex -7.76753 -1.91453 0
      vertex -11.2487 -2.39098 0
      vertex -8 0 0
    endloop
  endfacet
  facet normal 0 0 -1
    outer loop
      vertex -7.08365 3.71778 0
      vertex -10.5058 4.67747 0
      vertex -9.30369 6.75953 0
    endloop
  endfacet
  facet normal 0 0 -1
    outer loop
      vertex -11.5 0 0
      vertex -8 0 0
      vertex -11.2487 -2.39098 0
    endloop
  endfacet
  facet normal 0 0 -1
    outer loop
      vertex -7.76753 1.91453 0
      vertex -11.2487 2.39098 0
      vertex -10.5058 4.67747 0
    endloop
  endfacet
  facet normal 0 0 -1
    outer loop
      vertex -8 0 0
      vertex -11.5 0 0
      vertex -11.2487 2.39098 0
    endloop
  endfacet
  facet normal -0.743146 -0.669129 0
    outer loop
      vertex -7.695 -8.54617 0
      vertex -9.30369 -6.75953 1
      vertex -9.30369 -6.75953 0
    endloop
  endfacet
  facet normal -0.743146 -0.669129 0
    outer loop
      vertex -9.30369 -6.75953 1
      vertex -7.695 -8.54617 0
      vertex -7.695 -8.54617 1
    endloop
  endfacet
  facet normal 0.406719 -0.913553 0
    outer loop
      vertex 3.55369 -10.9371 0
      vertex 5.75 -9.95929 1
      vertex 3.55369 -10.9371 1
    endloop
  endfacet
  facet normal 0.406719 -0.913553 0
    outer loop
      vertex 5.75 -9.95929 1
      vertex 3.55369 -10.9371 0
      vertex 5.75 -9.95929 0
    endloop
  endfacet
  facet normal 0.743146 -0.669129 0
    outer loop
      vertex 7.695 -8.54617 1
      vertex 9.30369 -6.75953 0
      vertex 9.30369 -6.75953 1
    endloop
  endfacet
  facet normal 0.743146 -0.669129 0
    outer loop
      vertex 9.30369 -6.75953 0
      vertex 7.695 -8.54617 1
      vertex 7.695 -8.54617 0
    endloop
  endfacet
  facet normal 0.86602 -0.50001 0
    outer loop
      vertex 9.30369 -6.75953 1
      vertex 10.5058 -4.67747 0
      vertex 10.5058 -4.67747 1
    endloop
  endfacet
  facet normal 0.86602 -0.50001 0
    outer loop
      vertex 10.5058 -4.67747 0
      vertex 9.30369 -6.75953 1
      vertex 9.30369 -6.75953 0
    endloop
  endfacet
  facet normal -0.406719 -0.913553 0
    outer loop
      vertex -5.75 -9.95929 0
      vertex -3.55369 -10.9371 1
      vertex -5.75 -9.95929 1
    endloop
  endfacet
  facet normal -0.406719 -0.913553 -0
    outer loop
      vertex -3.55369 -10.9371 1
      vertex -5.75 -9.95929 0
      vertex -3.55369 -10.9371 0
    endloop
  endfacet
  facet normal -0.95106 -0.309007 0
    outer loop
      vertex -10.5058 -4.67747 0
      vertex -11.2487 -2.39098 1
      vertex -11.2487 -2.39098 0
    endloop
  endfacet
  facet normal -0.95106 -0.309007 0
    outer loop
      vertex -11.2487 -2.39098 1
      vertex -10.5058 -4.67747 0
      vertex -10.5058 -4.67747 1
    endloop
  endfacet
  facet normal -0.207932 -0.978143 0
    outer loop
      vertex -3.55369 -10.9371 0
      vertex -1.20208 -11.437 1
      vertex -3.55369 -10.9371 1
    endloop
  endfacet
  facet normal -0.207932 -0.978143 -0
    outer loop
      vertex -1.20208 -11.437 1
      vertex -3.55369 -10.9371 0
      vertex -1.20208 -11.437 0
    endloop
  endfacet
  facet normal 0.994138 0.108122 0
    outer loop
      vertex 9 0 2
      vertex 8.78958 1.93473 1
      vertex 8.78958 1.93473 2
    endloop
  endfacet
  facet normal 0.994138 0.108122 0
    outer loop
      vertex 8.78958 1.93473 1
      vertex 9 0 2
      vertex 9 0 1
    endloop
  endfacet
  facet normal -1 0 0
    outer loop
      vertex -8.94724 -0.973071 1
      vertex -8.94724 0.973071 2
      vertex -8.94724 0.973071 1
    endloop
  endfacet
  facet normal -1 -0 0
    outer loop
      vertex -8.94724 0.973071 2
      vertex -8.94724 -0.973071 1
      vertex -8.94724 -0.973071 2
    endloop
  endfacet
  facet normal -0.0541378 0.998533 0
    outer loop
      vertex 0.487249 8.9868 1
      vertex -1.45604 8.88144 2
      vertex 0.487249 8.9868 2
    endloop
  endfacet
  facet normal -0.0541378 0.998533 0
    outer loop
      vertex -1.45604 8.88144 2
      vertex 0.487249 8.9868 1
      vertex -1.45604 8.88144 1
    endloop
  endfacet
  facet normal 0.161782 -0.986827 0
    outer loop
      vertex 0.487249 -8.9868 1
      vertex 2.40775 -8.67195 2
      vertex 0.487249 -8.9868 2
    endloop
  endfacet
  facet normal 0.161782 -0.986827 0
    outer loop
      vertex 2.40775 -8.67195 2
      vertex 0.487249 -8.9868 1
      vertex 2.40775 -8.67195 1
    endloop
  endfacet
  facet normal 0.725996 0.687699 0
    outer loop
      vertex 7.16484 5.44657 2
      vertex 5.82648 6.85946 1
      vertex 5.82648 6.85946 2
    endloop
  endfacet
  facet normal 0.725996 0.687699 0
    outer loop
      vertex 5.82648 6.85946 1
      vertex 7.16484 5.44657 2
      vertex 7.16484 5.44657 1
    endloop
  endfacet
  facet normal 0.947654 0.319298 0
    outer loop
      vertex 8.78958 1.93473 2
      vertex 8.16818 3.779 1
      vertex 8.16818 3.779 2
    endloop
  endfacet
  facet normal 0.947654 0.319298 0
    outer loop
      vertex 8.16818 3.779 1
      vertex 8.78958 1.93473 2
      vertex 8.78958 1.93473 1
    endloop
  endfacet
  facet normal -0.647386 0.762162 0
    outer loop
      vertex -5.05068 7.4492 1
      vertex -6.53396 6.18929 2
      vertex -5.05068 7.4492 2
    endloop
  endfacet
  facet normal -0.647386 0.762162 0
    outer loop
      vertex -6.53396 6.18929 2
      vertex -5.05068 7.4492 1
      vertex -6.53396 6.18929 1
    endloop
  endfacet
  facet normal -0.26753 0.96355 0
    outer loop
      vertex -1.45604 8.88144 1
      vertex -3.33124 8.36079 2
      vertex -1.45604 8.88144 2
    endloop
  endfacet
  facet normal -0.26753 0.96355 0
    outer loop
      vertex -3.33124 8.36079 2
      vertex -1.45604 8.88144 1
      vertex -3.33124 8.36079 1
    endloop
  endfacet
  facet normal 0.856858 -0.515553 0
    outer loop
      vertex 7.16484 -5.44657 2
      vertex 8.16818 -3.779 1
      vertex 8.16818 -3.779 2
    endloop
  endfacet
  facet normal 0.856858 -0.515553 0
    outer loop
      vertex 8.16818 -3.779 1
      vertex 7.16484 -5.44657 2
      vertex 7.16484 -5.44657 1
    endloop
  endfacet
  facet normal 0.856858 0.515553 0
    outer loop
      vertex 8.16818 3.779 2
      vertex 7.16484 5.44657 1
      vertex 7.16484 5.44657 2
    endloop
  endfacet
  facet normal 0.856858 0.515553 0
    outer loop
      vertex 7.16484 5.44657 1
      vertex 8.16818 3.779 2
      vertex 8.16818 3.779 1
    endloop
  endfacet
  facet normal 0.370136 0.928978 -0
    outer loop
      vertex 4.21568 7.95161 1
      vertex 2.40775 8.67195 2
      vertex 4.21568 7.95161 2
    endloop
  endfacet
  facet normal 0.370136 0.928978 0
    outer loop
      vertex 2.40775 8.67195 2
      vertex 4.21568 7.95161 1
      vertex 2.40775 8.67195 1
    endloop
  endfacet
  facet normal 0.161782 0.986827 -0
    outer loop
      vertex 2.40775 8.67195 1
      vertex 0.487249 8.9868 2
      vertex 2.40775 8.67195 2
    endloop
  endfacet
  facet normal 0.161782 0.986827 0
    outer loop
      vertex 0.487249 8.9868 2
      vertex 2.40775 8.67195 1
      vertex 0.487249 8.9868 1
    endloop
  endfacet
  facet normal 0.561187 0.827689 -0
    outer loop
      vertex 5.82648 6.85946 1
      vertex 4.21568 7.95161 2
      vertex 5.82648 6.85946 2
    endloop
  endfacet
  facet normal 0.561187 0.827689 0
    outer loop
      vertex 4.21568 7.95161 2
      vertex 5.82648 6.85946 1
      vertex 4.21568 7.95161 1
    endloop
  endfacet
  facet normal -0.907574 0.419892 0
    outer loop
      vertex -8.52888 2.87371 1
      vertex -7.71171 4.63998 2
      vertex -7.71171 4.63998 1
    endloop
  endfacet
  facet normal -0.907574 0.419892 0
    outer loop
      vertex -7.71171 4.63998 2
      vertex -8.52888 2.87371 1
      vertex -8.52888 2.87371 2
    endloop
  endfacet
  facet normal -0.796094 0.605173 0
    outer loop
      vertex -7.71171 4.63998 1
      vertex -6.53396 6.18929 2
      vertex -6.53396 6.18929 1
    endloop
  endfacet
  facet normal -0.796094 0.605173 0
    outer loop
      vertex -6.53396 6.18929 2
      vertex -7.71171 4.63998 1
      vertex -7.71171 4.63998 2
    endloop
  endfacet
  facet normal -0.976621 0.214969 0
    outer loop
      vertex -8.94724 0.973071 1
      vertex -8.52888 2.87371 2
      vertex -8.52888 2.87371 1
    endloop
  endfacet
  facet normal -0.976621 0.214969 0
    outer loop
      vertex -8.52888 2.87371 2
      vertex -8.94724 0.973071 1
      vertex -8.94724 0.973071 2
    endloop
  endfacet
  facet normal 0 0 1
    outer loop
      vertex 8 0 2
      vertex 9 0 2
      vertex 8.78958 1.93473 2
    endloop
  endfacet
  facet normal 0 0 1
    outer loop
      vertex 7.76753 1.91453 2
      vertex 8.78958 1.93473 2
      vertex 8.16818 3.779 2
    endloop
  endfacet
  facet normal 0 0 1
    outer loop
      vertex 9 0 2
      vertex 8 0 2
      vertex 8.78958 -1.93473 2
    endloop
  endfacet
  facet normal -0 0 1
    outer loop
      vertex 7.76753 -1.91453 2
      vertex 8.78958 -1.93473 2
      vertex 8 0 2
    endloop
  endfacet
  facet normal 0 0 1
    outer loop
      vertex 8.78958 1.93473 2
      vertex 7.76753 1.91453 2
      vertex 8 0 2
    endloop
  endfacet
  facet normal 0 0 1
    outer loop
      vertex 7.08365 3.71778 2
      vertex 8.16818 3.779 2
      vertex 7.16484 5.44657 2
    endloop
  endfacet
  facet normal 0 0 1
    outer loop
      vertex 8.16818 3.779 2
      vertex 7.08365 3.71778 2
      vertex 7.76753 1.91453 2
    endloop
  endfacet
  facet normal 0 0 1
    outer loop
      vertex 7.16484 5.44657 2
      vertex 5.98809 5.30498 2
      vertex 7.08365 3.71778 2
    endloop
  endfacet
  facet normal 0 0 1
    outer loop
      vertex 5.82648 6.85946 2
      vertex 5.98809 5.30498 2
      vertex 7.16484 5.44657 2
    endloop
  endfacet
  facet normal 0 0 1
    outer loop
      vertex 5.82648 6.85946 2
      vertex 4.54452 6.58387 2
      vertex 5.98809 5.30498 2
    endloop
  endfacet
  facet normal 0 0 1
    outer loop
      vertex 4.21568 7.95161 2
      vertex 4.54452 6.58387 2
      vertex 5.82648 6.85946 2
    endloop
  endfacet
  facet normal 0 0 1
    outer loop
      vertex 4.21568 7.95161 2
      vertex 2.83684 7.48013 2
      vertex 4.54452 6.58387 2
    endloop
  endfacet
  facet normal 0 0 1
    outer loop
      vertex 2.40775 8.67195 2
      vertex 2.83684 7.48013 2
      vertex 4.21568 7.95161 2
    endloop
  endfacet
  facet normal 0 0 1
    outer loop
      vertex 2.40775 8.67195 2
      vertex 0.964293 7.94167 2
      vertex 2.83684 7.48013 2
    endloop
  endfacet
  facet normal 0 0 1
    outer loop
      vertex 0.487249 8.9868 2
      vertex 0.964293 7.94167 2
      vertex 2.40775 8.67195 2
    endloop
  endfacet
  facet normal 0 0 1
    outer loop
      vertex 0.487249 8.9868 2
      vertex -0.964293 7.94167 2
      vertex 0.964293 7.94167 2
    endloop
  endfacet
  facet normal -0 0 1
    outer loop
      vertex -1.45604 8.88144 2
      vertex -0.964293 7.94167 2
      vertex 0.487249 8.9868 2
    endloop
  endfacet
  facet normal 0 0 1
    outer loop
      vertex -1.45604 8.88144 2
      vertex -2.83684 7.48013 2
      vertex -0.964293 7.94167 2
    endloop
  endfacet
  facet normal -0 0 1
    outer loop
      vertex -3.33124 8.36079 2
      vertex -2.83684 7.48013 2
      vertex -1.45604 8.88144 2
    endloop
  endfacet
  facet normal 0 0 1
    outer loop
      vertex -3.33124 8.36079 2
      vertex -4.54452 6.58387 2
      vertex -2.83684 7.48013 2
    endloop
  endfacet
  facet normal -0 0 1
    outer loop
      vertex -5.05068 7.4492 2
      vertex -4.54452 6.58387 2
      vertex -3.33124 8.36079 2
    endloop
  endfacet
  facet normal 0 0 1
    outer loop
      vertex -6.53396 6.18929 2
      vertex -4.54452 6.58387 2
      vertex -5.05068 7.4492 2
    endloop
  endfacet
  facet normal 0 0 1
    outer loop
      vertex -4.54452 6.58387 2
      vertex -6.53396 6.18929 2
      vertex -5.98809 5.30498 2
    endloop
  endfacet
  facet normal 0 0 1
    outer loop
      vertex -7.71171 4.63998 2
      vertex -5.98809 5.30498 2
      vertex -6.53396 6.18929 2
    endloop
  endfacet
  facet normal 0 0 1
    outer loop
      vertex -5.98809 5.30498 2
      vertex -7.71171 4.63998 2
      vertex -7.08365 3.71778 2
    endloop
  endfacet
  facet normal 0 0 1
    outer loop
      vertex -8.52888 2.87371 2
      vertex -7.08365 3.71778 2
      vertex -7.71171 4.63998 2
    endloop
  endfacet
  facet normal 0 0 1
    outer loop
      vertex -7.08365 3.71778 2
      vertex -8.52888 2.87371 2
      vertex -7.76753 1.91453 2
    endloop
  endfacet
  facet normal 0 0 1
    outer loop
      vertex -8.94724 0.973071 2
      vertex -7.76753 1.91453 2
      vertex -8.52888 2.87371 2
    endloop
  endfacet
  facet normal 0 0 1
    outer loop
      vertex 8.78958 -1.93473 2
      vertex 7.76753 -1.91453 2
      vertex 8.16818 -3.779 2
    endloop
  endfacet
  facet normal -0 0 1
    outer loop
      vertex 7.08365 -3.71778 2
      vertex 8.16818 -3.779 2
      vertex 7.76753 -1.91453 2
    endloop
  endfacet
  facet normal 0 0 1
    outer loop
      vertex 8.16818 -3.779 2
      vertex 7.08365 -3.71778 2
      vertex 7.16484 -5.44657 2
    endloop
  endfacet
  facet normal -0 0 1
    outer loop
      vertex 5.98809 -5.30498 2
      vertex 7.16484 -5.44657 2
      vertex 7.08365 -3.71778 2
    endloop
  endfacet
  facet normal 0 0 1
    outer loop
      vertex 5.98809 -5.30498 2
      vertex 5.82648 -6.85946 2
      vertex 7.16484 -5.44657 2
    endloop
  endfacet
  facet normal -0 0 1
    outer loop
      vertex 4.54452 -6.58387 2
      vertex 5.82648 -6.85946 2
      vertex 5.98809 -5.30498 2
    endloop
  endfacet
  facet normal 0 0 1
    outer loop
      vertex 4.54452 -6.58387 2
      vertex 4.21568 -7.95161 2
      vertex 5.82648 -6.85946 2
    endloop
  endfacet
  facet normal -0 0 1
    outer loop
      vertex 2.83684 -7.48013 2
      vertex 4.21568 -7.95161 2
      vertex 4.54452 -6.58387 2
    endloop
  endfacet
  facet normal 0 0 1
    outer loop
      vertex 2.83684 -7.48013 2
      vertex 2.40775 -8.67195 2
      vertex 4.21568 -7.95161 2
    endloop
  endfacet
  facet normal -0 0 1
    outer loop
      vertex 0.964293 -7.94167 2
      vertex 2.40775 -8.67195 2
      vertex 2.83684 -7.48013 2
    endloop
  endfacet
  facet normal 0 0 1
    outer loop
      vertex 0.964293 -7.94167 2
      vertex 0.487249 -8.9868 2
      vertex 2.40775 -8.67195 2
    endloop
  endfacet
  facet normal -0 0 1
    outer loop
      vertex -0.964293 -7.94167 2
      vertex 0.487249 -8.9868 2
      vertex 0.964293 -7.94167 2
    endloop
  endfacet
  facet normal 0 0 1
    outer loop
      vertex -0.964293 -7.94167 2
      vertex -1.45604 -8.88144 2
      vertex 0.487249 -8.9868 2
    endloop
  endfacet
  facet normal 0 0 1
    outer loop
      vertex -2.83684 -7.48013 2
      vertex -1.45604 -8.88144 2
      vertex -0.964293 -7.94167 2
    endloop
  endfacet
  facet normal 0 0 1
    outer loop
      vertex -2.83684 -7.48013 2
      vertex -3.33124 -8.36079 2
      vertex -1.45604 -8.88144 2
    endloop
  endfacet
  facet normal 0 0 1
    outer loop
      vertex -4.54452 -6.58387 2
      vertex -3.33124 -8.36079 2
      vertex -2.83684 -7.48013 2
    endloop
  endfacet
  facet normal 0 0 1
    outer loop
      vertex -4.54452 -6.58387 2
      vertex -5.05068 -7.4492 2
      vertex -3.33124 -8.36079 2
    endloop
  endfacet
  facet normal -0 0 1
    outer loop
      vertex -6.53396 -6.18929 2
      vertex -4.54452 -6.58387 2
      vertex -5.98809 -5.30498 2
    endloop
  endfacet
  facet normal 0 0 1
    outer loop
      vertex -4.54452 -6.58387 2
      vertex -6.53396 -6.18929 2
      vertex -5.05068 -7.4492 2
    endloop
  endfacet
  facet normal -0 0 1
    outer loop
      vertex -7.71171 -4.63998 2
      vertex -5.98809 -5.30498 2
      vertex -7.08365 -3.71778 2
    endloop
  endfacet
  facet normal 0 0 1
    outer loop
      vertex -5.98809 -5.30498 2
      vertex -7.71171 -4.63998 2
      vertex -6.53396 -6.18929 2
    endloop
  endfacet
  facet normal -0 0 1
    outer loop
      vertex -8.52888 -2.87371 2
      vertex -7.08365 -3.71778 2
      vertex -7.76753 -1.91453 2
    endloop
  endfacet
  facet normal -0 0 1
    outer loop
      vertex -8.94724 -0.973071 2
      vertex -7.76753 -1.91453 2
      vertex -8 0 2
    endloop
  endfacet
  facet normal 0 0 1
    outer loop
      vertex -7.76753 1.91453 2
      vertex -8.94724 0.973071 2
      vertex -8 0 2
    endloop
  endfacet
  facet normal 0 0 1
    outer loop
      vertex -7.08365 -3.71778 2
      vertex -8.52888 -2.87371 2
      vertex -7.71171 -4.63998 2
    endloop
  endfacet
  facet normal 0 0 1
    outer loop
      vertex -8.94724 -0.973071 2
      vertex -8 0 2
      vertex -8.94724 0.973071 2
    endloop
  endfacet
  facet normal 0 0 1
    outer loop
      vertex -7.76753 -1.91453 2
      vertex -8.94724 -0.973071 2
      vertex -8.52888 -2.87371 2
    endloop
  endfacet
  facet normal -0.468409 0.883512 0
    outer loop
      vertex -3.33124 8.36079 1
      vertex -5.05068 7.4492 2
      vertex -3.33124 8.36079 2
    endloop
  endfacet
  facet normal -0.468409 0.883512 0
    outer loop
      vertex -5.05068 7.4492 2
      vertex -3.33124 8.36079 1
      vertex -5.05068 7.4492 1
    endloop
  endfacet
  facet normal 0.994138 -0.108122 0
    outer loop
      vertex 8.78958 -1.93473 2
      vertex 9 0 1
      vertex 9 0 2
    endloop
  endfacet
  facet normal 0.994138 -0.108122 0
    outer loop
      vertex 9 0 1
      vertex 8.78958 -1.93473 2
      vertex 8.78958 -1.93473 1
    endloop
  endfacet
  facet normal -0.976621 -0.214969 0
    outer loop
      vertex -8.52888 -2.87371 1
      vertex -8.94724 -0.973071 2
      vertex -8.94724 -0.973071 1
    endloop
  endfacet
  facet normal -0.976621 -0.214969 0
    outer loop
      vertex -8.94724 -0.973071 2
      vertex -8.52888 -2.87371 1
      vertex -8.52888 -2.87371 2
    endloop
  endfacet
  facet normal 0.947654 -0.319298 0
    outer loop
      vertex 8.16818 -3.779 2
      vertex 8.78958 -1.93473 1
      vertex 8.78958 -1.93473 2
    endloop
  endfacet
  facet normal 0.947654 -0.319298 0
    outer loop
      vertex 8.78958 -1.93473 1
      vertex 8.16818 -3.779 2
      vertex 8.16818 -3.779 1
    endloop
  endfacet
  facet normal -0.796094 -0.605173 0
    outer loop
      vertex -6.53396 -6.18929 1
      vertex -7.71171 -4.63998 2
      vertex -7.71171 -4.63998 1
    endloop
  endfacet
  facet normal -0.796094 -0.605173 0
    outer loop
      vertex -7.71171 -4.63998 2
      vertex -6.53396 -6.18929 1
      vertex -6.53396 -6.18929 2
    endloop
  endfacet
  facet normal -0.907574 -0.419892 0
    outer loop
      vertex -7.71171 -4.63998 1
      vertex -8.52888 -2.87371 2
      vertex -8.52888 -2.87371 1
    endloop
  endfacet
  facet normal -0.907574 -0.419892 0
    outer loop
      vertex -8.52888 -2.87371 2
      vertex -7.71171 -4.63998 1
      vertex -7.71171 -4.63998 2
    endloop
  endfacet
  facet normal 0.370136 -0.928978 0
    outer loop
      vertex 2.40775 -8.67195 1
      vertex 4.21568 -7.95161 2
      vertex 2.40775 -8.67195 2
    endloop
  endfacet
  facet normal 0.370136 -0.928978 0
    outer loop
      vertex 4.21568 -7.95161 2
      vertex 2.40775 -8.67195 1
      vertex 4.21568 -7.95161 1
    endloop
  endfacet
  facet normal 0.725996 -0.687699 0
    outer loop
      vertex 5.82648 -6.85946 2
      vertex 7.16484 -5.44657 1
      vertex 7.16484 -5.44657 2
    endloop
  endfacet
  facet normal 0.725996 -0.687699 0
    outer loop
      vertex 7.16484 -5.44657 1
      vertex 5.82648 -6.85946 2
      vertex 5.82648 -6.85946 1
    endloop
  endfacet
  facet normal -0.468409 -0.883512 0
    outer loop
      vertex -5.05068 -7.4492 1
      vertex -3.33124 -8.36079 2
      vertex -5.05068 -7.4492 2
    endloop
  endfacet
  facet normal -0.468409 -0.883512 -0
    outer loop
      vertex -3.33124 -8.36079 2
      vertex -5.05068 -7.4492 1
      vertex -3.33124 -8.36079 1
    endloop
  endfacet
  facet normal -0.26753 -0.96355 0
    outer loop
      vertex -3.33124 -8.36079 1
      vertex -1.45604 -8.88144 2
      vertex -3.33124 -8.36079 2
    endloop
  endfacet
  facet normal -0.26753 -0.96355 -0
    outer loop
      vertex -1.45604 -8.88144 2
      vertex -3.33124 -8.36079 1
      vertex -1.45604 -8.88144 1
    endloop
  endfacet
  facet normal -0.0541378 -0.998533 0
    outer loop
      vertex -1.45604 -8.88144 1
      vertex 0.487249 -8.9868 2
      vertex -1.45604 -8.88144 2
    endloop
  endfacet
  facet normal -0.0541378 -0.998533 -0
    outer loop
      vertex 0.487249 -8.9868 2
      vertex -1.45604 -8.88144 1
      vertex 0.487249 -8.9868 1
    endloop
  endfacet
  facet normal -0.647386 -0.762162 0
    outer loop
      vertex -6.53396 -6.18929 1
      vertex -5.05068 -7.4492 2
      vertex -6.53396 -6.18929 2
    endloop
  endfacet
  facet normal -0.647386 -0.762162 -0
    outer loop
      vertex -5.05068 -7.4492 2
      vertex -6.53396 -6.18929 1
      vertex -5.05068 -7.4492 1
    endloop
  endfacet
  facet normal 0.561187 -0.827689 0
    outer loop
      vertex 4.21568 -7.95161 1
      vertex 5.82648 -6.85946 2
      vertex 4.21568 -7.95161 2
    endloop
  endfacet
  facet normal 0.561187 -0.827689 0
    outer loop
      vertex 5.82648 -6.85946 2
      vertex 4.21568 -7.95161 1
      vertex 5.82648 -6.85946 1
    endloop
  endfacet
  facet normal -0.992709 -0.120539 0
    outer loop
      vertex 8 0 0
      vertex 7.76753 1.91453 2
      vertex 7.76753 1.91453 0
    endloop
  endfacet
  facet normal -0.992709 -0.120539 0
    outer loop
      vertex 7.76753 1.91453 2
      vertex 8 0 0
      vertex 8 0 2
    endloop
  endfacet
  facet normal 0.992709 -0.120539 0
    outer loop
      vertex -8 0 2
      vertex -7.76753 1.91453 0
      vertex -7.76753 1.91453 2
    endloop
  endfacet
  facet normal 0.992709 -0.120539 0
    outer loop
      vertex -7.76753 1.91453 0
      vertex -8 0 2
      vertex -8 0 0
    endloop
  endfacet
  facet normal 0 -1 0
    outer loop
      vertex -0.964293 7.94167 0
      vertex 0.964293 7.94167 2
      vertex -0.964293 7.94167 2
    endloop
  endfacet
  facet normal 0 -1 -0
    outer loop
      vertex 0.964293 7.94167 2
      vertex -0.964293 7.94167 0
      vertex 0.964293 7.94167 0
    endloop
  endfacet
  facet normal 0 1 -0
    outer loop
      vertex 0.964293 -7.94167 0
      vertex -0.964293 -7.94167 2
      vertex 0.964293 -7.94167 2
    endloop
  endfacet
  facet normal 0 1 0
    outer loop
      vertex -0.964293 -7.94167 2
      vertex 0.964293 -7.94167 0
      vertex -0.964293 -7.94167 0
    endloop
  endfacet
  facet normal -0.663122 -0.748511 0
    outer loop
      vertex 4.54452 6.58387 0
      vertex 5.98809 5.30498 2
      vertex 4.54452 6.58387 2
    endloop
  endfacet
  facet normal -0.663122 -0.748511 -0
    outer loop
      vertex 5.98809 5.30498 2
      vertex 4.54452 6.58387 0
      vertex 5.98809 5.30498 0
    endloop
  endfacet
  facet normal 0.663122 -0.748511 0
    outer loop
      vertex -5.98809 5.30498 0
      vertex -4.54452 6.58387 2
      vertex -5.98809 5.30498 2
    endloop
  endfacet
  facet normal 0.663122 -0.748511 0
    outer loop
      vertex -4.54452 6.58387 2
      vertex -5.98809 5.30498 0
      vertex -4.54452 6.58387 0
    endloop
  endfacet
  facet normal 0.464723 -0.885456 0
    outer loop
      vertex -4.54452 6.58387 0
      vertex -2.83684 7.48013 2
      vertex -4.54452 6.58387 2
    endloop
  endfacet
  facet normal 0.464723 -0.885456 0
    outer loop
      vertex -2.83684 7.48013 2
      vertex -4.54452 6.58387 0
      vertex -2.83684 7.48013 0
    endloop
  endfacet
  facet normal -0.822985 -0.568063 0
    outer loop
      vertex 7.08365 3.71778 0
      vertex 5.98809 5.30498 2
      vertex 5.98809 5.30498 0
    endloop
  endfacet
  facet normal -0.822985 -0.568063 0
    outer loop
      vertex 5.98809 5.30498 2
      vertex 7.08365 3.71778 0
      vertex 7.08365 3.71778 2
    endloop
  endfacet
  facet normal -0.935017 -0.354604 0
    outer loop
      vertex 7.76753 1.91453 0
      vertex 7.08365 3.71778 2
      vertex 7.08365 3.71778 0
    endloop
  endfacet
  facet normal -0.935017 -0.354604 0
    outer loop
      vertex 7.08365 3.71778 2
      vertex 7.76753 1.91453 0
      vertex 7.76753 1.91453 2
    endloop
  endfacet
  facet normal -0.239315 -0.970942 0
    outer loop
      vertex 0.964293 7.94167 0
      vertex 2.83684 7.48013 2
      vertex 0.964293 7.94167 2
    endloop
  endfacet
  facet normal -0.239315 -0.970942 -0
    outer loop
      vertex 2.83684 7.48013 2
      vertex 0.964293 7.94167 0
      vertex 2.83684 7.48013 0
    endloop
  endfacet
  facet normal -0.464723 -0.885456 0
    outer loop
      vertex 2.83684 7.48013 0
      vertex 4.54452 6.58387 2
      vertex 2.83684 7.48013 2
    endloop
  endfacet
  facet normal -0.464723 -0.885456 -0
    outer loop
      vertex 4.54452 6.58387 2
      vertex 2.83684 7.48013 0
      vertex 4.54452 6.58387 0
    endloop
  endfacet
  facet normal 0.822985 -0.568063 0
    outer loop
      vertex -7.08365 3.71778 2
      vertex -5.98809 5.30498 0
      vertex -5.98809 5.30498 2
    endloop
  endfacet
  facet normal 0.822985 -0.568063 0
    outer loop
      vertex -5.98809 5.30498 0
      vertex -7.08365 3.71778 2
      vertex -7.08365 3.71778 0
    endloop
  endfacet
  facet normal 0.935017 -0.354604 0
    outer loop
      vertex -7.76753 1.91453 2
      vertex -7.08365 3.71778 0
      vertex -7.08365 3.71778 2
    endloop
  endfacet
  facet normal 0.935017 -0.354604 0
    outer loop
      vertex -7.08365 3.71778 0
      vertex -7.76753 1.91453 2
      vertex -7.76753 1.91453 0
    endloop
  endfacet
  facet normal 0.239315 -0.970942 0
    outer loop
      vertex -2.83684 7.48013 0
      vertex -0.964293 7.94167 2
      vertex -2.83684 7.48013 2
    endloop
  endfacet
  facet normal 0.239315 -0.970942 0
    outer loop
      vertex -0.964293 7.94167 2
      vertex -2.83684 7.48013 0
      vertex -0.964293 7.94167 0
    endloop
  endfacet
  facet normal -0.992709 0.120539 0
    outer loop
      vertex 7.76753 -1.91453 0
      vertex 8 0 2
      vertex 8 0 0
    endloop
  endfacet
  facet normal -0.992709 0.120539 0
    outer loop
      vertex 8 0 2
      vertex 7.76753 -1.91453 0
      vertex 7.76753 -1.91453 2
    endloop
  endfacet
  facet normal -0.663122 0.748511 0
    outer loop
      vertex 5.98809 -5.30498 0
      vertex 4.54452 -6.58387 2
      vertex 5.98809 -5.30498 2
    endloop
  endfacet
  facet normal -0.663122 0.748511 0
    outer loop
      vertex 4.54452 -6.58387 2
      vertex 5.98809 -5.30498 0
      vertex 4.54452 -6.58387 0
    endloop
  endfacet
  facet normal -0.822985 0.568063 0
    outer loop
      vertex 5.98809 -5.30498 0
      vertex 7.08365 -3.71778 2
      vertex 7.08365 -3.71778 0
    endloop
  endfacet
  facet normal -0.822985 0.568063 0
    outer loop
      vertex 7.08365 -3.71778 2
      vertex 5.98809 -5.30498 0
      vertex 5.98809 -5.30498 2
    endloop
  endfacet
  facet normal 0.663122 0.748511 -0
    outer loop
      vertex -4.54452 -6.58387 0
      vertex -5.98809 -5.30498 2
      vertex -4.54452 -6.58387 2
    endloop
  endfacet
  facet normal 0.663122 0.748511 0
    outer loop
      vertex -5.98809 -5.30498 2
      vertex -4.54452 -6.58387 0
      vertex -5.98809 -5.30498 0
    endloop
  endfacet
  facet normal 0.935017 0.354604 0
    outer loop
      vertex -7.08365 -3.71778 2
      vertex -7.76753 -1.91453 0
      vertex -7.76753 -1.91453 2
    endloop
  endfacet
  facet normal 0.935017 0.354604 0
    outer loop
      vertex -7.76753 -1.91453 0
      vertex -7.08365 -3.71778 2
      vertex -7.08365 -3.71778 0
    endloop
  endfacet
  facet normal 0.992709 0.120539 0
    outer loop
      vertex -7.76753 -1.91453 2
      vertex -8 0 0
      vertex -8 0 2
    endloop
  endfacet
  facet normal 0.992709 0.120539 0
    outer loop
      vertex -8 0 0
      vertex -7.76753 -1.91453 2
      vertex -7.76753 -1.91453 0
    endloop
  endfacet
  facet normal 0.822985 0.568063 0
    outer loop
      vertex -5.98809 -5.30498 2
      vertex -7.08365 -3.71778 0
      vertex -7.08365 -3.71778 2
    endloop
  endfacet
  facet normal 0.822985 0.568063 0
    outer loop
      vertex -7.08365 -3.71778 0
      vertex -5.98809 -5.30498 2
      vertex -5.98809 -5.30498 0
    endloop
  endfacet
  facet normal -0.239315 0.970942 0
    outer loop
      vertex 2.83684 -7.48013 0
      vertex 0.964293 -7.94167 2
      vertex 2.83684 -7.48013 2
    endloop
  endfacet
  facet normal -0.239315 0.970942 0
    outer loop
      vertex 0.964293 -7.94167 2
      vertex 2.83684 -7.48013 0
      vertex 0.964293 -7.94167 0
    endloop
  endfacet
  facet normal -0.935017 0.354604 0
    outer loop
      vertex 7.08365 -3.71778 0
      vertex 7.76753 -1.91453 2
      vertex 7.76753 -1.91453 0
    endloop
  endfacet
  facet normal -0.935017 0.354604 0
    outer loop
      vertex 7.76753 -1.91453 2
      vertex 7.08365 -3.71778 0
      vertex 7.08365 -3.71778 2
    endloop
  endfacet
  facet normal 0.239315 0.970942 -0
    outer loop
      vertex -0.964293 -7.94167 0
      vertex -2.83684 -7.48013 2
      vertex -0.964293 -7.94167 2
    endloop
  endfacet
  facet normal 0.239315 0.970942 0
    outer loop
      vertex -2.83684 -7.48013 2
      vertex -0.964293 -7.94167 0
      vertex -2.83684 -7.48013 0
    endloop
  endfacet
  facet normal -0.464723 0.885456 0
    outer loop
      vertex 4.54452 -6.58387 0
      vertex 2.83684 -7.48013 2
      vertex 4.54452 -6.58387 2
    endloop
  endfacet
  facet normal -0.464723 0.885456 0
    outer loop
      vertex 2.83684 -7.48013 2
      vertex 4.54452 -6.58387 0
      vertex 2.83684 -7.48013 0
    endloop
  endfacet
  facet normal 0.464723 0.885456 -0
    outer loop
      vertex -2.83684 -7.48013 0
      vertex -4.54452 -6.58387 2
      vertex -2.83684 -7.48013 2
    endloop
  endfacet
  facet normal 0.464723 0.885456 0
    outer loop
      vertex -4.54452 -6.58387 2
      vertex -2.83684 -7.48013 0
      vertex -4.54452 -6.58387 0
    endloop
  endfacet
endsolid OpenSCAD_Model
