solid OpenSCAD_Model
  facet normal -1 0 0
    outer loop
      vertex 0 0 0
      vertex 0 30 1.5
      vertex 0 30 0
    endloop
  endfacet
  facet normal -1 -0 0
    outer loop
      vertex 0 30 1.5
      vertex 0 0 0
      vertex 0 0 1.5
    endloop
  endfacet
  facet normal 0 0 1
    outer loop
      vertex 40 30 1.5
      vertex 28 13 1.5
      vertex 40 0 1.5
    endloop
  endfacet
  facet normal 0 0 1
    outer loop
      vertex 40 30 1.5
      vertex 27.7675 14.9145 1.5
      vertex 28 13 1.5
    endloop
  endfacet
  facet normal 0 0 1
    outer loop
      vertex 40 30 1.5
      vertex 27.0836 16.7178 1.5
      vertex 27.7675 14.9145 1.5
    endloop
  endfacet
  facet normal 0 0 1
    outer loop
      vertex 40 30 1.5
      vertex 25.9881 18.305 1.5
      vertex 27.0836 16.7178 1.5
    endloop
  endfacet
  facet normal 0 0 1
    outer loop
      vertex 40 30 1.5
      vertex 24.5445 19.5839 1.5
      vertex 25.9881 18.305 1.5
    endloop
  endfacet
  facet normal 0 0 1
    outer loop
      vertex 40 30 1.5
      vertex 22.8368 20.4801 1.5
      vertex 24.5445 19.5839 1.5
    endloop
  endfacet
  facet normal 0 0 1
    outer loop
      vertex 40 30 1.5
      vertex 20.9643 20.9417 1.5
      vertex 22.8368 20.4801 1.5
    endloop
  endfacet
  facet normal 0 0 1
    outer loop
      vertex 40 30 1.5
      vertex 19.0357 20.9417 1.5
      vertex 20.9643 20.9417 1.5
    endloop
  endfacet
  facet normal -0 0 1
    outer loop
      vertex 0 30 1.5
      vertex 19.0357 20.9417 1.5
      vertex 40 30 1.5
    endloop
  endfacet
  facet normal 0 0 1
    outer loop
      vertex 12.2325 14.9145 1.5
      vertex 0 30 1.5
      vertex 12 13 1.5
    endloop
  endfacet
  facet normal 0 0 1
    outer loop
      vertex 12.9164 16.7178 1.5
      vertex 0 30 1.5
      vertex 12.2325 14.9145 1.5
    endloop
  endfacet
  facet normal 0 0 1
    outer loop
      vertex 14.0119 18.305 1.5
      vertex 0 30 1.5
      vertex 12.9164 16.7178 1.5
    endloop
  endfacet
  facet normal 0 0 1
    outer loop
      vertex 15.4555 19.5839 1.5
      vertex 0 30 1.5
      vertex 14.0119 18.305 1.5
    endloop
  endfacet
  facet normal 0 0 1
    outer loop
      vertex 17.1632 20.4801 1.5
      vertex 0 30 1.5
      vertex 15.4555 19.5839 1.5
    endloop
  endfacet
  facet normal 0 0 1
    outer loop
      vertex 19.0357 20.9417 1.5
      vertex 0 30 1.5
      vertex 17.1632 20.4801 1.5
    endloop
  endfacet
  facet normal -0 0 1
    outer loop
      vertex 27.7675 11.0855 1.5
      vertex 40 0 1.5
      vertex 28 13 1.5
    endloop
  endfacet
  facet normal -0 0 1
    outer loop
      vertex 27.0836 9.28221 1.5
      vertex 40 0 1.5
      vertex 27.7675 11.0855 1.5
    endloop
  endfacet
  facet normal -0 0 1
    outer loop
      vertex 25.9881 7.69502 1.5
      vertex 40 0 1.5
      vertex 27.0836 9.28221 1.5
    endloop
  endfacet
  facet normal -0 0 1
    outer loop
      vertex 24.5445 6.41613 1.5
      vertex 40 0 1.5
      vertex 25.9881 7.69502 1.5
    endloop
  endfacet
  facet normal -0 0 1
    outer loop
      vertex 22.8368 5.51987 1.5
      vertex 40 0 1.5
      vertex 24.5445 6.41613 1.5
    endloop
  endfacet
  facet normal -0 0 1
    outer loop
      vertex 20.9643 5.05833 1.5
      vertex 40 0 1.5
      vertex 22.8368 5.51987 1.5
    endloop
  endfacet
  facet normal -0 0 1
    outer loop
      vertex 19.0357 5.05833 1.5
      vertex 40 0 1.5
      vertex 20.9643 5.05833 1.5
    endloop
  endfacet
  facet normal 0 0 1
    outer loop
      vertex 0 0 1.5
      vertex 12 13 1.5
      vertex 0 30 1.5
    endloop
  endfacet
  facet normal 0 0 1
    outer loop
      vertex 12 13 1.5
      vertex 0 0 1.5
      vertex 12.2325 11.0855 1.5
    endloop
  endfacet
  facet normal 0 0 1
    outer loop
      vertex 19.0357 5.05833 1.5
      vertex 0 0 1.5
      vertex 40 0 1.5
    endloop
  endfacet
  facet normal 0 0 1
    outer loop
      vertex 17.1632 5.51987 1.5
      vertex 0 0 1.5
      vertex 19.0357 5.05833 1.5
    endloop
  endfacet
  facet normal 0 0 1
    outer loop
      vertex 15.4555 6.41613 1.5
      vertex 0 0 1.5
      vertex 17.1632 5.51987 1.5
    endloop
  endfacet
  facet normal 0 0 1
    outer loop
      vertex 14.0119 7.69502 1.5
      vertex 0 0 1.5
      vertex 15.4555 6.41613 1.5
    endloop
  endfacet
  facet normal 0 0 1
    outer loop
      vertex 12.9164 9.28221 1.5
      vertex 0 0 1.5
      vertex 14.0119 7.69502 1.5
    endloop
  endfacet
  facet normal 0 0 1
    outer loop
      vertex 12.2325 11.0855 1.5
      vertex 0 0 1.5
      vertex 12.9164 9.28221 1.5
    endloop
  endfacet
  facet normal 1 -0 0
    outer loop
      vertex 40 0 1.5
      vertex 40 30 0
      vertex 40 30 1.5
    endloop
  endfacet
  facet normal 1 0 0
    outer loop
      vertex 40 30 0
      vertex 40 0 1.5
      vertex 40 0 0
    endloop
  endfacet
  facet normal 0 1 -0
    outer loop
      vertex 40 30 0
      vertex 0 30 1.5
      vertex 40 30 1.5
    endloop
  endfacet
  facet normal 0 1 0
    outer loop
      vertex 0 30 1.5
      vertex 40 30 0
      vertex 0 30 0
    endloop
  endfacet
  facet normal 0 0 -1
    outer loop
      vertex 40 0 0
      vertex 28 13 0
      vertex 40 30 0
    endloop
  endfacet
  facet normal 0 0 -1
    outer loop
      vertex 40 0 0
      vertex 27.7675 11.0855 0
      vertex 28 13 0
    endloop
  endfacet
  facet normal 0 0 -1
    outer loop
      vertex 40 0 0
      vertex 27.0836 9.28221 0
      vertex 27.7675 11.0855 0
    endloop
  endfacet
  facet normal 0 0 -1
    outer loop
      vertex 40 0 0
      vertex 25.9881 7.69502 0
      vertex 27.0836 9.28221 0
    endloop
  endfacet
  facet normal 0 0 -1
    outer loop
      vertex 40 0 0
      vertex 24.5445 6.41613 0
      vertex 25.9881 7.69502 0
    endloop
  endfacet
  facet normal 0 0 -1
    outer loop
      vertex 40 0 0
      vertex 22.8368 5.51987 0
      vertex 24.5445 6.41613 0
    endloop
  endfacet
  facet normal 0 0 -1
    outer loop
      vertex 40 0 0
      vertex 20.9643 5.05833 0
      vertex 22.8368 5.51987 0
    endloop
  endfacet
  facet normal 0 0 -1
    outer loop
      vertex 40 0 0
      vertex 19.0357 5.05833 0
      vertex 20.9643 5.05833 0
    endloop
  endfacet
  facet normal -0 0 -1
    outer loop
      vertex 12.2325 11.0855 0
      vertex 0 0 0
      vertex 12 13 0
    endloop
  endfacet
  facet normal -0 0 -1
    outer loop
      vertex 12.9164 9.28221 0
      vertex 0 0 0
      vertex 12.2325 11.0855 0
    endloop
  endfacet
  facet normal -0 0 -1
    outer loop
      vertex 14.0119 7.69502 0
      vertex 0 0 0
      vertex 12.9164 9.28221 0
    endloop
  endfacet
  facet normal -0 0 -1
    outer loop
      vertex 15.4555 6.41613 0
      vertex 0 0 0
      vertex 14.0119 7.69502 0
    endloop
  endfacet
  facet normal -0 0 -1
    outer loop
      vertex 17.1632 5.51987 0
      vertex 0 0 0
      vertex 15.4555 6.41613 0
    endloop
  endfacet
  facet normal -0 0 -1
    outer loop
      vertex 19.0357 5.05833 0
      vertex 0 0 0
      vertex 17.1632 5.51987 0
    endloop
  endfacet
  facet normal 0 0 -1
    outer loop
      vertex 0 0 0
      vertex 19.0357 5.05833 0
      vertex 40 0 0
    endloop
  endfacet
  facet normal 0 0 -1
    outer loop
      vertex 27.7675 14.9145 0
      vertex 40 30 0
      vertex 28 13 0
    endloop
  endfacet
  facet normal 0 0 -1
    outer loop
      vertex 27.0836 16.7178 0
      vertex 40 30 0
      vertex 27.7675 14.9145 0
    endloop
  endfacet
  facet normal 0 0 -1
    outer loop
      vertex 25.9881 18.305 0
      vertex 40 30 0
      vertex 27.0836 16.7178 0
    endloop
  endfacet
  facet normal 0 0 -1
    outer loop
      vertex 24.5445 19.5839 0
      vertex 40 30 0
      vertex 25.9881 18.305 0
    endloop
  endfacet
  facet normal 0 0 -1
    outer loop
      vertex 22.8368 20.4801 0
      vertex 40 30 0
      vertex 24.5445 19.5839 0
    endloop
  endfacet
  facet normal 0 0 -1
    outer loop
      vertex 20.9643 20.9417 0
      vertex 40 30 0
      vertex 22.8368 20.4801 0
    endloop
  endfacet
  facet normal 0 0 -1
    outer loop
      vertex 19.0357 20.9417 0
      vertex 40 30 0
      vertex 20.9643 20.9417 0
    endloop
  endfacet
  facet normal 0 0 -1
    outer loop
      vertex 0 30 0
      vertex 19.0357 20.9417 0
      vertex 17.1632 20.4801 0
    endloop
  endfacet
  facet normal 0 0 -1
    outer loop
      vertex 0 30 0
      vertex 12 13 0
      vertex 0 0 0
    endloop
  endfacet
  facet normal 0 0 -1
    outer loop
      vertex 12 13 0
      vertex 0 30 0
      vertex 12.2325 14.9145 0
    endloop
  endfacet
  facet normal 0 0 -1
    outer loop
      vertex 12.2325 14.9145 0
      vertex 0 30 0
      vertex 12.9164 16.7178 0
    endloop
  endfacet
  facet normal 0 0 -1
    outer loop
      vertex 19.0357 20.9417 0
      vertex 0 30 0
      vertex 40 30 0
    endloop
  endfacet
  facet normal 0 0 -1
    outer loop
      vertex 15.4555 19.5839 0
      vertex 0 30 0
      vertex 17.1632 20.4801 0
    endloop
  endfacet
  facet normal 0 0 -1
    outer loop
      vertex 14.0119 18.305 0
      vertex 0 30 0
      vertex 15.4555 19.5839 0
    endloop
  endfacet
  facet normal 0 0 -1
    outer loop
      vertex 12.9164 16.7178 0
      vertex 0 30 0
      vertex 14.0119 18.305 0
    endloop
  endfacet
  facet normal 0 -1 0
    outer loop
      vertex 0 0 0
      vertex 40 0 1.5
      vertex 0 0 1.5
    endloop
  endfacet
  facet normal 0 -1 -0
    outer loop
      vertex 40 0 1.5
      vertex 0 0 0
      vertex 40 0 0
    endloop
  endfacet
  facet normal -0.823 -0.568042 0
    outer loop
      vertex 27.0836 16.7178 0
      vertex 25.9881 18.305 1.5
      vertex 25.9881 18.305 0
    endloop
  endfacet
  facet normal -0.823 -0.568042 0
    outer loop
      vertex 25.9881 18.305 1.5
      vertex 27.0836 16.7178 0
      vertex 27.0836 16.7178 1.5
    endloop
  endfacet
  facet normal -0.992707 -0.120556 0
    outer loop
      vertex 28 13 0
      vertex 27.7675 14.9145 1.5
      vertex 27.7675 14.9145 0
    endloop
  endfacet
  facet normal -0.992707 -0.120556 0
    outer loop
      vertex 27.7675 14.9145 1.5
      vertex 28 13 0
      vertex 28 13 1.5
    endloop
  endfacet
  facet normal 0.992707 -0.120556 0
    outer loop
      vertex 12 13 1.5
      vertex 12.2325 14.9145 0
      vertex 12.2325 14.9145 1.5
    endloop
  endfacet
  facet normal 0.992707 -0.120556 0
    outer loop
      vertex 12.2325 14.9145 0
      vertex 12 13 1.5
      vertex 12 13 0
    endloop
  endfacet
  facet normal -0.663117 -0.748515 0
    outer loop
      vertex 24.5445 19.5839 0
      vertex 25.9881 18.305 1.5
      vertex 24.5445 19.5839 1.5
    endloop
  endfacet
  facet normal -0.663117 -0.748515 -0
    outer loop
      vertex 25.9881 18.305 1.5
      vertex 24.5445 19.5839 0
      vertex 25.9881 18.305 0
    endloop
  endfacet
  facet normal 0 -1 0
    outer loop
      vertex 19.0357 20.9417 0
      vertex 20.9643 20.9417 1.5
      vertex 19.0357 20.9417 1.5
    endloop
  endfacet
  facet normal 0 -1 -0
    outer loop
      vertex 20.9643 20.9417 1.5
      vertex 19.0357 20.9417 0
      vertex 20.9643 20.9417 0
    endloop
  endfacet
  facet normal -0.23935 -0.970933 0
    outer loop
      vertex 20.9643 20.9417 0
      vertex 22.8368 20.4801 1.5
      vertex 20.9643 20.9417 1.5
    endloop
  endfacet
  facet normal -0.23935 -0.970933 -0
    outer loop
      vertex 22.8368 20.4801 1.5
      vertex 20.9643 20.9417 0
      vertex 22.8368 20.4801 0
    endloop
  endfacet
  facet normal 0.663117 -0.748515 0
    outer loop
      vertex 14.0119 18.305 0
      vertex 15.4555 19.5839 1.5
      vertex 14.0119 18.305 1.5
    endloop
  endfacet
  facet normal 0.663117 -0.748515 0
    outer loop
      vertex 15.4555 19.5839 1.5
      vertex 14.0119 18.305 0
      vertex 15.4555 19.5839 0
    endloop
  endfacet
  facet normal 0.823 -0.568042 0
    outer loop
      vertex 12.9164 16.7178 1.5
      vertex 14.0119 18.305 0
      vertex 14.0119 18.305 1.5
    endloop
  endfacet
  facet normal 0.823 -0.568042 0
    outer loop
      vertex 14.0119 18.305 0
      vertex 12.9164 16.7178 1.5
      vertex 12.9164 16.7178 0
    endloop
  endfacet
  facet normal 0.23935 -0.970933 0
    outer loop
      vertex 17.1632 20.4801 0
      vertex 19.0357 20.9417 1.5
      vertex 17.1632 20.4801 1.5
    endloop
  endfacet
  facet normal 0.23935 -0.970933 0
    outer loop
      vertex 19.0357 20.9417 1.5
      vertex 17.1632 20.4801 0
      vertex 19.0357 20.9417 0
    endloop
  endfacet
  facet normal -0.464695 -0.885471 0
    outer loop
      vertex 22.8368 20.4801 0
      vertex 24.5445 19.5839 1.5
      vertex 22.8368 20.4801 1.5
    endloop
  endfacet
  facet normal -0.464695 -0.885471 -0
    outer loop
      vertex 24.5445 19.5839 1.5
      vertex 22.8368 20.4801 0
      vertex 24.5445 19.5839 0
    endloop
  endfacet
  facet normal 0.992707 0.120556 0
    outer loop
      vertex 12.2325 11.0855 1.5
      vertex 12 13 0
      vertex 12 13 1.5
    endloop
  endfacet
  facet normal 0.992707 0.120556 0
    outer loop
      vertex 12 13 0
      vertex 12.2325 11.0855 1.5
      vertex 12.2325 11.0855 0
    endloop
  endfacet
  facet normal 0.935016 -0.354604 0
    outer loop
      vertex 12.2325 14.9145 1.5
      vertex 12.9164 16.7178 0
      vertex 12.9164 16.7178 1.5
    endloop
  endfacet
  facet normal 0.935016 -0.354604 0
    outer loop
      vertex 12.9164 16.7178 0
      vertex 12.2325 14.9145 1.5
      vertex 12.2325 14.9145 0
    endloop
  endfacet
  facet normal 0.464695 -0.885471 0
    outer loop
      vertex 15.4555 19.5839 0
      vertex 17.1632 20.4801 1.5
      vertex 15.4555 19.5839 1.5
    endloop
  endfacet
  facet normal 0.464695 -0.885471 0
    outer loop
      vertex 17.1632 20.4801 1.5
      vertex 15.4555 19.5839 0
      vertex 17.1632 20.4801 0
    endloop
  endfacet
  facet normal 0.464719 0.885458 -0
    outer loop
      vertex 17.1632 5.51987 0
      vertex 15.4555 6.41613 1.5
      vertex 17.1632 5.51987 1.5
    endloop
  endfacet
  facet normal 0.464719 0.885458 0
    outer loop
      vertex 15.4555 6.41613 1.5
      vertex 17.1632 5.51987 0
      vertex 15.4555 6.41613 0
    endloop
  endfacet
  facet normal 0.663115 0.748518 -0
    outer loop
      vertex 15.4555 6.41613 0
      vertex 14.0119 7.69502 1.5
      vertex 15.4555 6.41613 1.5
    endloop
  endfacet
  facet normal 0.663115 0.748518 0
    outer loop
      vertex 14.0119 7.69502 1.5
      vertex 15.4555 6.41613 0
      vertex 14.0119 7.69502 0
    endloop
  endfacet
  facet normal -0.822998 0.568044 0
    outer loop
      vertex 25.9881 7.69502 0
      vertex 27.0836 9.28221 1.5
      vertex 27.0836 9.28221 0
    endloop
  endfacet
  facet normal -0.822998 0.568044 0
    outer loop
      vertex 27.0836 9.28221 1.5
      vertex 25.9881 7.69502 0
      vertex 25.9881 7.69502 1.5
    endloop
  endfacet
  facet normal -0.935016 -0.354604 0
    outer loop
      vertex 27.7675 14.9145 0
      vertex 27.0836 16.7178 1.5
      vertex 27.0836 16.7178 0
    endloop
  endfacet
  facet normal -0.935016 -0.354604 0
    outer loop
      vertex 27.0836 16.7178 1.5
      vertex 27.7675 14.9145 0
      vertex 27.7675 14.9145 1.5
    endloop
  endfacet
  facet normal -0.992707 0.120556 0
    outer loop
      vertex 27.7675 11.0855 0
      vertex 28 13 1.5
      vertex 28 13 0
    endloop
  endfacet
  facet normal -0.992707 0.120556 0
    outer loop
      vertex 28 13 1.5
      vertex 27.7675 11.0855 0
      vertex 27.7675 11.0855 1.5
    endloop
  endfacet
  facet normal 0.935016 0.354606 0
    outer loop
      vertex 12.9164 9.28221 1.5
      vertex 12.2325 11.0855 0
      vertex 12.2325 11.0855 1.5
    endloop
  endfacet
  facet normal 0.935016 0.354606 0
    outer loop
      vertex 12.2325 11.0855 0
      vertex 12.9164 9.28221 1.5
      vertex 12.9164 9.28221 0
    endloop
  endfacet
  facet normal -0.464719 0.885458 0
    outer loop
      vertex 24.5445 6.41613 0
      vertex 22.8368 5.51987 1.5
      vertex 24.5445 6.41613 1.5
    endloop
  endfacet
  facet normal -0.464719 0.885458 0
    outer loop
      vertex 22.8368 5.51987 1.5
      vertex 24.5445 6.41613 0
      vertex 22.8368 5.51987 0
    endloop
  endfacet
  facet normal -0.663115 0.748518 0
    outer loop
      vertex 25.9881 7.69502 0
      vertex 24.5445 6.41613 1.5
      vertex 25.9881 7.69502 1.5
    endloop
  endfacet
  facet normal -0.663115 0.748518 0
    outer loop
      vertex 24.5445 6.41613 1.5
      vertex 25.9881 7.69502 0
      vertex 24.5445 6.41613 0
    endloop
  endfacet
  facet normal -0.935016 0.354606 0
    outer loop
      vertex 27.0836 9.28221 0
      vertex 27.7675 11.0855 1.5
      vertex 27.7675 11.0855 0
    endloop
  endfacet
  facet normal -0.935016 0.354606 0
    outer loop
      vertex 27.7675 11.0855 1.5
      vertex 27.0836 9.28221 0
      vertex 27.0836 9.28221 1.5
    endloop
  endfacet
  facet normal -0.239321 0.970941 0
    outer loop
      vertex 22.8368 5.51987 0
      vertex 20.9643 5.05833 1.5
      vertex 22.8368 5.51987 1.5
    endloop
  endfacet
  facet normal -0.239321 0.970941 0
    outer loop
      vertex 20.9643 5.05833 1.5
      vertex 22.8368 5.51987 0
      vertex 20.9643 5.05833 0
    endloop
  endfacet
  facet normal 0 1 -0
    outer loop
      vertex 20.9643 5.05833 0
      vertex 19.0357 5.05833 1.5
      vertex 20.9643 5.05833 1.5
    endloop
  endfacet
  facet normal 0 1 0
    outer loop
      vertex 19.0357 5.05833 1.5
      vertex 20.9643 5.05833 0
      vertex 19.0357 5.05833 0
    endloop
  endfacet
  facet normal 0.822998 0.568044 0
    outer loop
      vertex 14.0119 7.69502 1.5
      vertex 12.9164 9.28221 0
      vertex 12.9164 9.28221 1.5
    endloop
  endfacet
  facet normal 0.822998 0.568044 0
    outer loop
      vertex 12.9164 9.28221 0
      vertex 14.0119 7.69502 1.5
      vertex 14.0119 7.69502 0
    endloop
  endfacet
  facet normal 0.239321 0.970941 -0
    outer loop
      vertex 19.0357 5.05833 0
      vertex 17.1632 5.51987 1.5
      vertex 19.0357 5.05833 1.5
    endloop
  endfacet
  facet normal 0.239321 0.970941 0
    outer loop
      vertex 17.1632 5.51987 1.5
      vertex 19.0357 5.05833 0
      vertex 17.1632 5.51987 0
    endloop
  endfacet
endsolid OpenSCAD_Model
