solid OpenSCAD_Model
  facet normal -0.707107 -0.707107 0
    outer loop
      vertex 51.0278 44.4183 -9.8
      vertex 47.9183 47.5278 -1
      vertex 47.9183 47.5278 -9.8
    endloop
  endfacet
  facet normal -0.707107 -0.707107 0
    outer loop
      vertex 47.9183 47.5278 -1
      vertex 51.0278 44.4183 -9.8
      vertex 51.0278 44.4183 -1
    endloop
  endfacet
  facet normal -0.82708 -0.562084 0
    outer loop
      vertex 58.5 34.8951 -9.8
      vertex 56.6312 37.645 -1
      vertex 56.6312 37.645 -9.8
    endloop
  endfacet
  facet normal -0.82708 -0.562084 0
    outer loop
      vertex 56.6312 37.645 -1
      vertex 58.5 34.8951 -9.8
      vertex 58.5 34.8951 -1
    endloop
  endfacet
  facet normal -0.612907 -0.790155 0
    outer loop
      vertex 43.5 51.3044 -9.8
      vertex 44.6197 50.4359 -1
      vertex 43.5 51.3044 -1
    endloop
  endfacet
  facet normal -0.612907 -0.790155 -0
    outer loop
      vertex 44.6197 50.4359 -1
      vertex 43.5 51.3044 -9.8
      vertex 44.6197 50.4359 -9.8
    endloop
  endfacet
  facet normal 0 0 1
    outer loop
      vertex 43.5 -53.49 -9.8
      vertex 58.5 34.8951 -9.8
      vertex 56.6312 37.645 -9.8
    endloop
  endfacet
  facet normal 0 0 1
    outer loop
      vertex 58.5 34.8951 -9.8
      vertex 56.1306 -42.7101 -9.8
      vertex 58.5 -40.0226 -9.8
    endloop
  endfacet
  facet normal 0 0 1
    outer loop
      vertex 43.5 -53.49 -9.8
      vertex 56.6312 37.645 -9.8
      vertex 53.9359 41.1197 -9.8
    endloop
  endfacet
  facet normal 0 0 1
    outer loop
      vertex 58.5 34.8951 -9.8
      vertex 52.7101 -46.1306 -9.8
      vertex 56.1306 -42.7101 -9.8
    endloop
  endfacet
  facet normal 0 0 1
    outer loop
      vertex 43.5 -53.49 -9.8
      vertex 53.9359 41.1197 -9.8
      vertex 51.0278 44.4183 -9.8
    endloop
  endfacet
  facet normal 0 0 1
    outer loop
      vertex 58.5 34.8951 -9.8
      vertex 49.0816 -49.3295 -9.8
      vertex 52.7101 -46.1306 -9.8
    endloop
  endfacet
  facet normal 0 0 1
    outer loop
      vertex 43.5 -53.49 -9.8
      vertex 51.0278 44.4183 -9.8
      vertex 47.9183 47.5278 -9.8
    endloop
  endfacet
  facet normal 0 0 1
    outer loop
      vertex 58.5 34.8951 -9.8
      vertex 45.2595 -52.2943 -9.8
      vertex 49.0816 -49.3295 -9.8
    endloop
  endfacet
  facet normal 0 0 1
    outer loop
      vertex 43.5 51.3044 -9.8
      vertex 47.9183 47.5278 -9.8
      vertex 44.6197 50.4359 -9.8
    endloop
  endfacet
  facet normal 0 0 1
    outer loop
      vertex 47.9183 47.5278 -9.8
      vertex 43.5 51.3044 -9.8
      vertex 43.5 -53.49 -9.8
    endloop
  endfacet
  facet normal 0 0 1
    outer loop
      vertex 58.5 34.8951 -9.8
      vertex 43.5 -53.49 -9.8
      vertex 45.2595 -52.2943 -9.8
    endloop
  endfacet
  facet normal -0.790155 -0.612906 0
    outer loop
      vertex 56.6312 37.645 -9.8
      vertex 53.9359 41.1197 -1
      vertex 53.9359 41.1197 -9.8
    endloop
  endfacet
  facet normal -0.790155 -0.612906 0
    outer loop
      vertex 53.9359 41.1197 -1
      vertex 56.6312 37.645 -9.8
      vertex 56.6312 37.645 -1
    endloop
  endfacet
  facet normal -0.750111 -0.661312 0
    outer loop
      vertex 53.9359 41.1197 -9.8
      vertex 51.0278 44.4183 -1
      vertex 51.0278 44.4183 -9.8
    endloop
  endfacet
  facet normal -0.750111 -0.661312 0
    outer loop
      vertex 51.0278 44.4183 -1
      vertex 53.9359 41.1197 -9.8
      vertex 53.9359 41.1197 -1
    endloop
  endfacet
  facet normal -0.661312 -0.750111 0
    outer loop
      vertex 44.6197 50.4359 -9.8
      vertex 47.9183 47.5278 -1
      vertex 44.6197 50.4359 -1
    endloop
  endfacet
  facet normal -0.661312 -0.750111 -0
    outer loop
      vertex 47.9183 47.5278 -1
      vertex 44.6197 50.4359 -9.8
      vertex 47.9183 47.5278 -9.8
    endloop
  endfacet
  facet normal -0.661312 0.750111 0
    outer loop
      vertex 52.7101 -46.1306 -9.8
      vertex 49.0816 -49.3295 -1
      vertex 52.7101 -46.1306 -1
    endloop
  endfacet
  facet normal -0.661312 0.750111 0
    outer loop
      vertex 49.0816 -49.3295 -1
      vertex 52.7101 -46.1306 -9.8
      vertex 49.0816 -49.3295 -9.8
    endloop
  endfacet
  facet normal -0.612907 0.790155 0
    outer loop
      vertex 49.0816 -49.3295 -9.8
      vertex 45.2595 -52.2943 -1
      vertex 49.0816 -49.3295 -1
    endloop
  endfacet
  facet normal -0.612907 0.790155 0
    outer loop
      vertex 45.2595 -52.2943 -1
      vertex 49.0816 -49.3295 -9.8
      vertex 45.2595 -52.2943 -9.8
    endloop
  endfacet
  facet normal -0.707106 0.707107 0
    outer loop
      vertex 56.1306 -42.7101 -9.8
      vertex 52.7101 -46.1306 -1
      vertex 56.1306 -42.7101 -1
    endloop
  endfacet
  facet normal -0.707106 0.707107 0
    outer loop
      vertex 52.7101 -46.1306 -1
      vertex 56.1306 -42.7101 -9.8
      vertex 52.7101 -46.1306 -9.8
    endloop
  endfacet
  facet normal -0.750111 0.661312 0
    outer loop
      vertex 56.1306 -42.7101 -9.8
      vertex 58.5 -40.0226 -1
      vertex 58.5 -40.0226 -9.8
    endloop
  endfacet
  facet normal -0.750111 0.661312 0
    outer loop
      vertex 58.5 -40.0226 -1
      vertex 56.1306 -42.7101 -9.8
      vertex 56.1306 -42.7101 -1
    endloop
  endfacet
  facet normal -0.562084 0.82708 0
    outer loop
      vertex 45.2595 -52.2943 -9.8
      vertex 43.5 -53.49 -1
      vertex 45.2595 -52.2943 -1
    endloop
  endfacet
  facet normal -0.562084 0.82708 0
    outer loop
      vertex 43.5 -53.49 -1
      vertex 45.2595 -52.2943 -9.8
      vertex 43.5 -53.49 -9.8
    endloop
  endfacet
  facet normal -1 0 0
    outer loop
      vertex 43.5 60 -13
      vertex 43.5 51.3044 -9.8
      vertex 43.5 60 -1
    endloop
  endfacet
  facet normal -1 0 0
    outer loop
      vertex 43.5 -60 -13
      vertex 43.5 51.3044 -9.8
      vertex 43.5 60 -13
    endloop
  endfacet
  facet normal -1 -0 0
    outer loop
      vertex 43.5 51.3044 -9.8
      vertex 43.5 -60 -13
      vertex 43.5 -53.49 -9.8
    endloop
  endfacet
  facet normal -1 0 0
    outer loop
      vertex 43.5 -60 -1
      vertex 43.5 -53.49 -9.8
      vertex 43.5 -60 -13
    endloop
  endfacet
  facet normal -1 0 0
    outer loop
      vertex 43.5 -53.49 -9.8
      vertex 43.5 -60 -1
      vertex 43.5 -53.49 -1
    endloop
  endfacet
  facet normal -1 -0 0
    outer loop
      vertex 43.5 60 -1
      vertex 43.5 51.3044 -9.8
      vertex 43.5 51.3044 -1
    endloop
  endfacet
  facet normal 0 0 1
    outer loop
      vertex 58.5 -60 -1
      vertex 52.9563 -52.0842 -1
      vertex 53 -52.5 -1
    endloop
  endfacet
  facet normal 0 0 1
    outer loop
      vertex 56.1306 -42.7101 -1
      vertex 52.8271 -51.6865 -1
      vertex 52.9563 -52.0842 -1
    endloop
  endfacet
  facet normal -0 0 1
    outer loop
      vertex 52.7101 -46.1306 -1
      vertex 52.8271 -51.6865 -1
      vertex 56.1306 -42.7101 -1
    endloop
  endfacet
  facet normal 0 0 1
    outer loop
      vertex 52.7101 -46.1306 -1
      vertex 52.618 -51.3244 -1
      vertex 52.8271 -51.6865 -1
    endloop
  endfacet
  facet normal 0 0 1
    outer loop
      vertex 52.7101 -46.1306 -1
      vertex 52.3383 -51.0137 -1
      vertex 52.618 -51.3244 -1
    endloop
  endfacet
  facet normal 0 0 1
    outer loop
      vertex 52.7101 -46.1306 -1
      vertex 52 -50.7679 -1
      vertex 52.3383 -51.0137 -1
    endloop
  endfacet
  facet normal 0 0 1
    outer loop
      vertex 52.7101 -46.1306 -1
      vertex 51.618 -50.5979 -1
      vertex 52 -50.7679 -1
    endloop
  endfacet
  facet normal 0 0 1
    outer loop
      vertex 52.7101 -46.1306 -1
      vertex 51.2091 -50.511 -1
      vertex 51.618 -50.5979 -1
    endloop
  endfacet
  facet normal -0 0 1
    outer loop
      vertex 49.0816 -49.3295 -1
      vertex 51.2091 -50.511 -1
      vertex 52.7101 -46.1306 -1
    endloop
  endfacet
  facet normal 0 0 1
    outer loop
      vertex 51.2091 -50.511 -1
      vertex 49.0816 -49.3295 -1
      vertex 50.7909 -50.511 -1
    endloop
  endfacet
  facet normal 0 0 1
    outer loop
      vertex 50.7909 -50.511 -1
      vertex 49.0816 -49.3295 -1
      vertex 50.382 -50.5979 -1
    endloop
  endfacet
  facet normal 0 0 1
    outer loop
      vertex 50.382 -50.5979 -1
      vertex 49.0816 -49.3295 -1
      vertex 50 -50.7679 -1
    endloop
  endfacet
  facet normal 0 0 1
    outer loop
      vertex 50 -50.7679 -1
      vertex 49.0816 -49.3295 -1
      vertex 49.6617 -51.0137 -1
    endloop
  endfacet
  facet normal 0 0 1
    outer loop
      vertex 49.6617 -51.0137 -1
      vertex 49.0816 -49.3295 -1
      vertex 49.382 -51.3244 -1
    endloop
  endfacet
  facet normal 0 0 1
    outer loop
      vertex 49.0816 -49.3295 -1
      vertex 49.1729 -51.6865 -1
      vertex 49.382 -51.3244 -1
    endloop
  endfacet
  facet normal 0 0 1
    outer loop
      vertex 45.2595 -52.2943 -1
      vertex 49.1729 -51.6865 -1
      vertex 49.0816 -49.3295 -1
    endloop
  endfacet
  facet normal 0 0 1
    outer loop
      vertex 49.1729 -51.6865 -1
      vertex 45.2595 -52.2943 -1
      vertex 49.0437 -52.0842 -1
    endloop
  endfacet
  facet normal 0 0 1
    outer loop
      vertex 49.0437 -52.0842 -1
      vertex 45.2595 -52.2943 -1
      vertex 49 -52.5 -1
    endloop
  endfacet
  facet normal -0 0 1
    outer loop
      vertex 56.1306 -42.7101 -1
      vertex 58.5 -60 -1
      vertex 58.5 -40.0226 -1
    endloop
  endfacet
  facet normal -0 0 1
    outer loop
      vertex 52.9563 -52.0842 -1
      vertex 58.5 -60 -1
      vertex 56.1306 -42.7101 -1
    endloop
  endfacet
  facet normal -0 0 1
    outer loop
      vertex 52.9563 -52.9158 -1
      vertex 58.5 -60 -1
      vertex 53 -52.5 -1
    endloop
  endfacet
  facet normal -0 0 1
    outer loop
      vertex 52.8271 -53.3135 -1
      vertex 58.5 -60 -1
      vertex 52.9563 -52.9158 -1
    endloop
  endfacet
  facet normal -0 0 1
    outer loop
      vertex 52.618 -53.6756 -1
      vertex 58.5 -60 -1
      vertex 52.8271 -53.3135 -1
    endloop
  endfacet
  facet normal -0 0 1
    outer loop
      vertex 52.3383 -53.9863 -1
      vertex 58.5 -60 -1
      vertex 52.618 -53.6756 -1
    endloop
  endfacet
  facet normal -0 0 1
    outer loop
      vertex 52 -54.232 -1
      vertex 58.5 -60 -1
      vertex 52.3383 -53.9863 -1
    endloop
  endfacet
  facet normal -0 0 1
    outer loop
      vertex 51.618 -54.4021 -1
      vertex 58.5 -60 -1
      vertex 52 -54.232 -1
    endloop
  endfacet
  facet normal -0 0 1
    outer loop
      vertex 51.2091 -54.489 -1
      vertex 58.5 -60 -1
      vertex 51.618 -54.4021 -1
    endloop
  endfacet
  facet normal -0 0 1
    outer loop
      vertex 50.7909 -54.489 -1
      vertex 58.5 -60 -1
      vertex 51.2091 -54.489 -1
    endloop
  endfacet
  facet normal 0 0 1
    outer loop
      vertex 43.5 -60 -1
      vertex 50.7909 -54.489 -1
      vertex 50.382 -54.4021 -1
    endloop
  endfacet
  facet normal 0 0 1
    outer loop
      vertex 43.5 -60 -1
      vertex 50.382 -54.4021 -1
      vertex 50 -54.232 -1
    endloop
  endfacet
  facet normal 0 0 1
    outer loop
      vertex 45.2595 -52.2943 -1
      vertex 49.0437 -52.9158 -1
      vertex 49 -52.5 -1
    endloop
  endfacet
  facet normal 0 0 1
    outer loop
      vertex 45.2595 -52.2943 -1
      vertex 49.1729 -53.3135 -1
      vertex 49.0437 -52.9158 -1
    endloop
  endfacet
  facet normal 0 0 1
    outer loop
      vertex 45.2595 -52.2943 -1
      vertex 49.382 -53.6756 -1
      vertex 49.1729 -53.3135 -1
    endloop
  endfacet
  facet normal -0 0 1
    outer loop
      vertex 43.5 -53.49 -1
      vertex 49.382 -53.6756 -1
      vertex 45.2595 -52.2943 -1
    endloop
  endfacet
  facet normal 0 0 1
    outer loop
      vertex 49.382 -53.6756 -1
      vertex 43.5 -53.49 -1
      vertex 49.6617 -53.9863 -1
    endloop
  endfacet
  facet normal 0 0 1
    outer loop
      vertex 43.5 -60 -1
      vertex 49.6617 -53.9863 -1
      vertex 43.5 -53.49 -1
    endloop
  endfacet
  facet normal 0 0 1
    outer loop
      vertex 49.6617 -53.9863 -1
      vertex 43.5 -60 -1
      vertex 50 -54.232 -1
    endloop
  endfacet
  facet normal 0 0 1
    outer loop
      vertex 50.7909 -54.489 -1
      vertex 43.5 -60 -1
      vertex 58.5 -60 -1
    endloop
  endfacet
  facet normal 0 0 1
    outer loop
      vertex 58.5 60 -1
      vertex 56.6312 37.645 -1
      vertex 58.5 34.8951 -1
    endloop
  endfacet
  facet normal -0 0 1
    outer loop
      vertex 52.9563 52.0842 -1
      vertex 56.6312 37.645 -1
      vertex 58.5 60 -1
    endloop
  endfacet
  facet normal 0 0 1
    outer loop
      vertex 52.9563 52.0842 -1
      vertex 58.5 60 -1
      vertex 53 52.5 -1
    endloop
  endfacet
  facet normal 0 0 1
    outer loop
      vertex 58.5 60 -1
      vertex 52.9563 52.9158 -1
      vertex 53 52.5 -1
    endloop
  endfacet
  facet normal 0 0 1
    outer loop
      vertex 58.5 60 -1
      vertex 52.8271 53.3135 -1
      vertex 52.9563 52.9158 -1
    endloop
  endfacet
  facet normal 0 0 1
    outer loop
      vertex 58.5 60 -1
      vertex 52.618 53.6756 -1
      vertex 52.8271 53.3135 -1
    endloop
  endfacet
  facet normal 0 0 1
    outer loop
      vertex 58.5 60 -1
      vertex 52.3383 53.9863 -1
      vertex 52.618 53.6756 -1
    endloop
  endfacet
  facet normal 0 0 1
    outer loop
      vertex 58.5 60 -1
      vertex 52 54.232 -1
      vertex 52.3383 53.9863 -1
    endloop
  endfacet
  facet normal 0 0 1
    outer loop
      vertex 58.5 60 -1
      vertex 51.618 54.4021 -1
      vertex 52 54.232 -1
    endloop
  endfacet
  facet normal 0 0 1
    outer loop
      vertex 58.5 60 -1
      vertex 51.2091 54.489 -1
      vertex 51.618 54.4021 -1
    endloop
  endfacet
  facet normal 0 0 1
    outer loop
      vertex 58.5 60 -1
      vertex 50.7909 54.489 -1
      vertex 51.2091 54.489 -1
    endloop
  endfacet
  facet normal -0 0 1
    outer loop
      vertex 43.5 60 -1
      vertex 50.7909 54.489 -1
      vertex 58.5 60 -1
    endloop
  endfacet
  facet normal 0 0 1
    outer loop
      vertex 50.7909 54.489 -1
      vertex 43.5 60 -1
      vertex 50.382 54.4021 -1
    endloop
  endfacet
  facet normal 0 0 1
    outer loop
      vertex 44.6197 50.4359 -1
      vertex 49 52.5 -1
      vertex 49.0437 52.9158 -1
    endloop
  endfacet
  facet normal 0 0 1
    outer loop
      vertex 49 52.5 -1
      vertex 44.6197 50.4359 -1
      vertex 47.9183 47.5278 -1
    endloop
  endfacet
  facet normal 0 0 1
    outer loop
      vertex 43.5 51.3044 -1
      vertex 49.0437 52.9158 -1
      vertex 49.1729 53.3135 -1
    endloop
  endfacet
  facet normal 0 0 1
    outer loop
      vertex 43.5 60 -1
      vertex 49.1729 53.3135 -1
      vertex 49.382 53.6756 -1
    endloop
  endfacet
  facet normal 0 0 1
    outer loop
      vertex 43.5 60 -1
      vertex 49.382 53.6756 -1
      vertex 49.6617 53.9863 -1
    endloop
  endfacet
  facet normal 0 0 1
    outer loop
      vertex 43.5 60 -1
      vertex 49.6617 53.9863 -1
      vertex 50 54.232 -1
    endloop
  endfacet
  facet normal 0 0 1
    outer loop
      vertex 50.382 54.4021 -1
      vertex 43.5 60 -1
      vertex 50 54.232 -1
    endloop
  endfacet
  facet normal 0 0 1
    outer loop
      vertex 49.1729 53.3135 -1
      vertex 43.5 60 -1
      vertex 43.5 51.3044 -1
    endloop
  endfacet
  facet normal 0 0 1
    outer loop
      vertex 49.0437 52.9158 -1
      vertex 43.5 51.3044 -1
      vertex 44.6197 50.4359 -1
    endloop
  endfacet
  facet normal 0 0 1
    outer loop
      vertex 56.6312 37.645 -1
      vertex 52.9563 52.0842 -1
      vertex 53.9359 41.1197 -1
    endloop
  endfacet
  facet normal -0 0 1
    outer loop
      vertex 52.8271 51.6865 -1
      vertex 53.9359 41.1197 -1
      vertex 52.9563 52.0842 -1
    endloop
  endfacet
  facet normal -0 0 1
    outer loop
      vertex 52.618 51.3244 -1
      vertex 53.9359 41.1197 -1
      vertex 52.8271 51.6865 -1
    endloop
  endfacet
  facet normal -0 0 1
    outer loop
      vertex 52.3383 51.0137 -1
      vertex 53.9359 41.1197 -1
      vertex 52.618 51.3244 -1
    endloop
  endfacet
  facet normal 0 0 1
    outer loop
      vertex 51.0278 44.4183 -1
      vertex 52.3383 51.0137 -1
      vertex 52 50.7679 -1
    endloop
  endfacet
  facet normal 0 0 1
    outer loop
      vertex 51.0278 44.4183 -1
      vertex 52 50.7679 -1
      vertex 51.618 50.5979 -1
    endloop
  endfacet
  facet normal 0 0 1
    outer loop
      vertex 51.0278 44.4183 -1
      vertex 51.618 50.5979 -1
      vertex 51.2091 50.511 -1
    endloop
  endfacet
  facet normal 0 0 1
    outer loop
      vertex 52.3383 51.0137 -1
      vertex 51.0278 44.4183 -1
      vertex 53.9359 41.1197 -1
    endloop
  endfacet
  facet normal -0 0 1
    outer loop
      vertex 50.7909 50.511 -1
      vertex 51.0278 44.4183 -1
      vertex 51.2091 50.511 -1
    endloop
  endfacet
  facet normal 0 0 1
    outer loop
      vertex 47.9183 47.5278 -1
      vertex 50.7909 50.511 -1
      vertex 50.382 50.5979 -1
    endloop
  endfacet
  facet normal 0 0 1
    outer loop
      vertex 47.9183 47.5278 -1
      vertex 50.382 50.5979 -1
      vertex 50 50.7679 -1
    endloop
  endfacet
  facet normal 0 0 1
    outer loop
      vertex 47.9183 47.5278 -1
      vertex 50 50.7679 -1
      vertex 49.6617 51.0137 -1
    endloop
  endfacet
  facet normal 0 0 1
    outer loop
      vertex 47.9183 47.5278 -1
      vertex 49.6617 51.0137 -1
      vertex 49.382 51.3244 -1
    endloop
  endfacet
  facet normal 0 0 1
    outer loop
      vertex 47.9183 47.5278 -1
      vertex 49.382 51.3244 -1
      vertex 49.1729 51.6865 -1
    endloop
  endfacet
  facet normal 0 0 1
    outer loop
      vertex 47.9183 47.5278 -1
      vertex 49.1729 51.6865 -1
      vertex 49.0437 52.0842 -1
    endloop
  endfacet
  facet normal 0 0 1
    outer loop
      vertex 50.7909 50.511 -1
      vertex 47.9183 47.5278 -1
      vertex 51.0278 44.4183 -1
    endloop
  endfacet
  facet normal 0 0 1
    outer loop
      vertex 47.9183 47.5278 -1
      vertex 49.0437 52.0842 -1
      vertex 49 52.5 -1
    endloop
  endfacet
  facet normal 1 0 0
    outer loop
      vertex 58.5 -40.0226 -1
      vertex 58.5 -60 -1
      vertex 58.5 -40.0226 -9.8
    endloop
  endfacet
  facet normal 1 0 0
    outer loop
      vertex 58.5 34.8951 -9.8
      vertex 58.5 60 -1
      vertex 58.5 34.8951 -1
    endloop
  endfacet
  facet normal 1 0 0
    outer loop
      vertex 58.5 60 -1
      vertex 58.5 34.8951 -9.8
      vertex 58.5 60 -13
    endloop
  endfacet
  facet normal 1 0 0
    outer loop
      vertex 58.5 -60 -13
      vertex 58.5 34.8951 -9.8
      vertex 58.5 -40.0226 -9.8
    endloop
  endfacet
  facet normal 1 0 0
    outer loop
      vertex 58.5 34.8951 -9.8
      vertex 58.5 -60 -13
      vertex 58.5 60 -13
    endloop
  endfacet
  facet normal 1 0 0
    outer loop
      vertex 58.5 -60 -13
      vertex 58.5 -40.0226 -9.8
      vertex 58.5 -60 -1
    endloop
  endfacet
  facet normal 0 0 -1
    outer loop
      vertex 52.618 -51.3244 -13
      vertex 58.5 -60 -13
      vertex 52.8271 -51.6865 -13
    endloop
  endfacet
  facet normal 0 0 -1
    outer loop
      vertex 58.5 60 -13
      vertex 52.9563 52.0842 -13
      vertex 53 52.5 -13
    endloop
  endfacet
  facet normal 0 0 -1
    outer loop
      vertex 58.5 -60 -13
      vertex 52.618 -51.3244 -13
      vertex 58.5 60 -13
    endloop
  endfacet
  facet normal 0 0 -1
    outer loop
      vertex 58.5 60 -13
      vertex 52.8271 51.6865 -13
      vertex 52.9563 52.0842 -13
    endloop
  endfacet
  facet normal 0 0 -1
    outer loop
      vertex 52.618 51.3244 -13
      vertex 58.5 60 -13
      vertex 52.618 -51.3244 -13
    endloop
  endfacet
  facet normal 0 0 -1
    outer loop
      vertex 58.5 60 -13
      vertex 52.618 51.3244 -13
      vertex 52.8271 51.6865 -13
    endloop
  endfacet
  facet normal 0 0 -1
    outer loop
      vertex 52.3383 -51.0137 -13
      vertex 52.618 51.3244 -13
      vertex 52.618 -51.3244 -13
    endloop
  endfacet
  facet normal 0 0 -1
    outer loop
      vertex 52.3383 -51.0137 -13
      vertex 52.3383 51.0137 -13
      vertex 52.618 51.3244 -13
    endloop
  endfacet
  facet normal 0 0 -1
    outer loop
      vertex 52 -50.7679 -13
      vertex 52.3383 51.0137 -13
      vertex 52.3383 -51.0137 -13
    endloop
  endfacet
  facet normal 0 0 -1
    outer loop
      vertex 52 -50.7679 -13
      vertex 52 50.7679 -13
      vertex 52.3383 51.0137 -13
    endloop
  endfacet
  facet normal 0 0 -1
    outer loop
      vertex 51.618 -50.5979 -13
      vertex 52 50.7679 -13
      vertex 52 -50.7679 -13
    endloop
  endfacet
  facet normal 0 0 -1
    outer loop
      vertex 51.618 -50.5979 -13
      vertex 51.618 50.5979 -13
      vertex 52 50.7679 -13
    endloop
  endfacet
  facet normal 0 0 -1
    outer loop
      vertex 51.2091 -50.511 -13
      vertex 51.618 50.5979 -13
      vertex 51.618 -50.5979 -13
    endloop
  endfacet
  facet normal 0 0 -1
    outer loop
      vertex 51.2091 -50.511 -13
      vertex 51.2091 50.511 -13
      vertex 51.618 50.5979 -13
    endloop
  endfacet
  facet normal 0 0 -1
    outer loop
      vertex 50.7909 -50.511 -13
      vertex 51.2091 50.511 -13
      vertex 51.2091 -50.511 -13
    endloop
  endfacet
  facet normal 0 0 -1
    outer loop
      vertex 50.7909 -50.511 -13
      vertex 50.7909 50.511 -13
      vertex 51.2091 50.511 -13
    endloop
  endfacet
  facet normal 0 0 -1
    outer loop
      vertex 50.382 -50.5979 -13
      vertex 50.7909 50.511 -13
      vertex 50.7909 -50.511 -13
    endloop
  endfacet
  facet normal 0 0 -1
    outer loop
      vertex 50.382 -50.5979 -13
      vertex 50.382 50.5979 -13
      vertex 50.7909 50.511 -13
    endloop
  endfacet
  facet normal 0 0 -1
    outer loop
      vertex 50 -50.7679 -13
      vertex 50.382 50.5979 -13
      vertex 50.382 -50.5979 -13
    endloop
  endfacet
  facet normal 0 0 -1
    outer loop
      vertex 50 -50.7679 -13
      vertex 50 50.7679 -13
      vertex 50.382 50.5979 -13
    endloop
  endfacet
  facet normal 0 0 -1
    outer loop
      vertex 49.6617 -51.0137 -13
      vertex 50 50.7679 -13
      vertex 50 -50.7679 -13
    endloop
  endfacet
  facet normal 0 0 -1
    outer loop
      vertex 49.6617 -51.0137 -13
      vertex 49.6617 51.0137 -13
      vertex 50 50.7679 -13
    endloop
  endfacet
  facet normal 0 0 -1
    outer loop
      vertex 49.382 -51.3244 -13
      vertex 49.6617 51.0137 -13
      vertex 49.6617 -51.0137 -13
    endloop
  endfacet
  facet normal 0 0 -1
    outer loop
      vertex 49.382 -51.3244 -13
      vertex 49.382 51.3244 -13
      vertex 49.6617 51.0137 -13
    endloop
  endfacet
  facet normal 0 0 -1
    outer loop
      vertex 43.5 -60 -13
      vertex 49.382 -51.3244 -13
      vertex 49.1729 -51.6865 -13
    endloop
  endfacet
  facet normal -0 0 -1
    outer loop
      vertex 49.382 -51.3244 -13
      vertex 43.5 -60 -13
      vertex 49.382 51.3244 -13
    endloop
  endfacet
  facet normal 0 0 -1
    outer loop
      vertex 43.5 -60 -13
      vertex 49.1729 -51.6865 -13
      vertex 49.0437 -52.0842 -13
    endloop
  endfacet
  facet normal 0 0 -1
    outer loop
      vertex 43.5 60 -13
      vertex 49.382 51.3244 -13
      vertex 43.5 -60 -13
    endloop
  endfacet
  facet normal 0 0 -1
    outer loop
      vertex 43.5 -60 -13
      vertex 49.0437 -52.0842 -13
      vertex 49 -52.5 -13
    endloop
  endfacet
  facet normal 0 0 -1
    outer loop
      vertex 49.382 51.3244 -13
      vertex 43.5 60 -13
      vertex 49.1729 51.6865 -13
    endloop
  endfacet
  facet normal 0 0 -1
    outer loop
      vertex 52.9563 -52.0842 -13
      vertex 58.5 -60 -13
      vertex 53 -52.5 -13
    endloop
  endfacet
  facet normal 0 0 -1
    outer loop
      vertex 58.5 -60 -13
      vertex 52.9563 -52.9158 -13
      vertex 53 -52.5 -13
    endloop
  endfacet
  facet normal 0 0 -1
    outer loop
      vertex 58.5 -60 -13
      vertex 52.8271 -53.3135 -13
      vertex 52.9563 -52.9158 -13
    endloop
  endfacet
  facet normal 0 0 -1
    outer loop
      vertex 58.5 -60 -13
      vertex 52.618 -53.6756 -13
      vertex 52.8271 -53.3135 -13
    endloop
  endfacet
  facet normal 0 0 -1
    outer loop
      vertex 58.5 -60 -13
      vertex 52.3383 -53.9863 -13
      vertex 52.618 -53.6756 -13
    endloop
  endfacet
  facet normal 0 0 -1
    outer loop
      vertex 58.5 -60 -13
      vertex 52 -54.232 -13
      vertex 52.3383 -53.9863 -13
    endloop
  endfacet
  facet normal 0 0 -1
    outer loop
      vertex 58.5 -60 -13
      vertex 51.618 -54.4021 -13
      vertex 52 -54.232 -13
    endloop
  endfacet
  facet normal 0 0 -1
    outer loop
      vertex 58.5 -60 -13
      vertex 51.2091 -54.489 -13
      vertex 51.618 -54.4021 -13
    endloop
  endfacet
  facet normal 0 0 -1
    outer loop
      vertex 58.5 -60 -13
      vertex 50.7909 -54.489 -13
      vertex 51.2091 -54.489 -13
    endloop
  endfacet
  facet normal 0 0 -1
    outer loop
      vertex 43.5 -60 -13
      vertex 50.7909 -54.489 -13
      vertex 58.5 -60 -13
    endloop
  endfacet
  facet normal -0 0 -1
    outer loop
      vertex 50.7909 -54.489 -13
      vertex 43.5 -60 -13
      vertex 50.382 -54.4021 -13
    endloop
  endfacet
  facet normal 0 0 -1
    outer loop
      vertex 49.1729 51.6865 -13
      vertex 43.5 60 -13
      vertex 49.0437 52.0842 -13
    endloop
  endfacet
  facet normal -0 0 -1
    outer loop
      vertex 49.0437 -52.9158 -13
      vertex 43.5 -60 -13
      vertex 49 -52.5 -13
    endloop
  endfacet
  facet normal -0 0 -1
    outer loop
      vertex 49.1729 -53.3135 -13
      vertex 43.5 -60 -13
      vertex 49.0437 -52.9158 -13
    endloop
  endfacet
  facet normal -0 0 -1
    outer loop
      vertex 49.382 -53.6756 -13
      vertex 43.5 -60 -13
      vertex 49.1729 -53.3135 -13
    endloop
  endfacet
  facet normal -0 0 -1
    outer loop
      vertex 49.6617 -53.9863 -13
      vertex 43.5 -60 -13
      vertex 49.382 -53.6756 -13
    endloop
  endfacet
  facet normal -0 0 -1
    outer loop
      vertex 50 -54.232 -13
      vertex 43.5 -60 -13
      vertex 49.6617 -53.9863 -13
    endloop
  endfacet
  facet normal -0 0 -1
    outer loop
      vertex 50.382 -54.4021 -13
      vertex 43.5 -60 -13
      vertex 50 -54.232 -13
    endloop
  endfacet
  facet normal 0 0 -1
    outer loop
      vertex 52.8271 -51.6865 -13
      vertex 58.5 -60 -13
      vertex 52.9563 -52.0842 -13
    endloop
  endfacet
  facet normal 0 0 -1
    outer loop
      vertex 52.9563 52.9158 -13
      vertex 58.5 60 -13
      vertex 53 52.5 -13
    endloop
  endfacet
  facet normal 0 0 -1
    outer loop
      vertex 52.8271 53.3135 -13
      vertex 58.5 60 -13
      vertex 52.9563 52.9158 -13
    endloop
  endfacet
  facet normal 0 0 -1
    outer loop
      vertex 52.618 53.6756 -13
      vertex 58.5 60 -13
      vertex 52.8271 53.3135 -13
    endloop
  endfacet
  facet normal 0 0 -1
    outer loop
      vertex 52.3383 53.9863 -13
      vertex 58.5 60 -13
      vertex 52.618 53.6756 -13
    endloop
  endfacet
  facet normal 0 0 -1
    outer loop
      vertex 52 54.232 -13
      vertex 58.5 60 -13
      vertex 52.3383 53.9863 -13
    endloop
  endfacet
  facet normal 0 0 -1
    outer loop
      vertex 51.618 54.4021 -13
      vertex 58.5 60 -13
      vertex 52 54.232 -13
    endloop
  endfacet
  facet normal 0 0 -1
    outer loop
      vertex 51.2091 54.489 -13
      vertex 58.5 60 -13
      vertex 51.618 54.4021 -13
    endloop
  endfacet
  facet normal 0 0 -1
    outer loop
      vertex 50.7909 54.489 -13
      vertex 58.5 60 -13
      vertex 51.2091 54.489 -13
    endloop
  endfacet
  facet normal 0 0 -1
    outer loop
      vertex 43.5 60 -13
      vertex 50.7909 54.489 -13
      vertex 50.382 54.4021 -13
    endloop
  endfacet
  facet normal 0 0 -1
    outer loop
      vertex 43.5 60 -13
      vertex 50.382 54.4021 -13
      vertex 50 54.232 -13
    endloop
  endfacet
  facet normal 0 0 -1
    outer loop
      vertex 50.7909 54.489 -13
      vertex 43.5 60 -13
      vertex 58.5 60 -13
    endloop
  endfacet
  facet normal 0 0 -1
    outer loop
      vertex 49.6617 53.9863 -13
      vertex 43.5 60 -13
      vertex 50 54.232 -13
    endloop
  endfacet
  facet normal 0 0 -1
    outer loop
      vertex 49.382 53.6756 -13
      vertex 43.5 60 -13
      vertex 49.6617 53.9863 -13
    endloop
  endfacet
  facet normal 0 0 -1
    outer loop
      vertex 49.1729 53.3135 -13
      vertex 43.5 60 -13
      vertex 49.382 53.6756 -13
    endloop
  endfacet
  facet normal 0 0 -1
    outer loop
      vertex 49.0437 52.9158 -13
      vertex 43.5 60 -13
      vertex 49.1729 53.3135 -13
    endloop
  endfacet
  facet normal 0 0 -1
    outer loop
      vertex 49 52.5 -13
      vertex 43.5 60 -13
      vertex 49.0437 52.9158 -13
    endloop
  endfacet
  facet normal 0 0 -1
    outer loop
      vertex 49.0437 52.0842 -13
      vertex 43.5 60 -13
      vertex 49 52.5 -13
    endloop
  endfacet
  facet normal 0 -1 0
    outer loop
      vertex 43.5 -60 -13
      vertex 58.5 -60 -1
      vertex 43.5 -60 -1
    endloop
  endfacet
  facet normal 0 -1 -0
    outer loop
      vertex 58.5 -60 -1
      vertex 43.5 -60 -13
      vertex 58.5 -60 -13
    endloop
  endfacet
  facet normal 0 1 -0
    outer loop
      vertex 58.5 60 -13
      vertex 43.5 60 -1
      vertex 58.5 60 -1
    endloop
  endfacet
  facet normal 0 1 0
    outer loop
      vertex 43.5 60 -1
      vertex 58.5 60 -13
      vertex 43.5 60 -13
    endloop
  endfacet
  facet normal -0.994522 -0.104529 0
    outer loop
      vertex 53 52.5 -13
      vertex 52.9563 52.9158 -1
      vertex 52.9563 52.9158 -13
    endloop
  endfacet
  facet normal -0.994522 -0.104529 0
    outer loop
      vertex 52.9563 52.9158 -1
      vertex 53 52.5 -13
      vertex 53 52.5 -1
    endloop
  endfacet
  facet normal 0.207908 -0.978148 0
    outer loop
      vertex 50.382 54.4021 -13
      vertex 50.7909 54.489 -1
      vertex 50.382 54.4021 -1
    endloop
  endfacet
  facet normal 0.207908 -0.978148 0
    outer loop
      vertex 50.7909 54.489 -1
      vertex 50.382 54.4021 -13
      vertex 50.7909 54.489 -13
    endloop
  endfacet
  facet normal -0.406739 0.913545 0
    outer loop
      vertex 52 50.7679 -13
      vertex 51.618 50.5979 -1
      vertex 52 50.7679 -1
    endloop
  endfacet
  facet normal -0.406739 0.913545 0
    outer loop
      vertex 51.618 50.5979 -1
      vertex 52 50.7679 -13
      vertex 51.618 50.5979 -13
    endloop
  endfacet
  facet normal -0.587781 -0.80902 0
    outer loop
      vertex 52 54.232 -13
      vertex 52.3383 53.9863 -1
      vertex 52 54.232 -1
    endloop
  endfacet
  facet normal -0.587781 -0.80902 -0
    outer loop
      vertex 52.3383 53.9863 -1
      vertex 52 54.232 -13
      vertex 52.3383 53.9863 -13
    endloop
  endfacet
  facet normal 0.743143 -0.669133 0
    outer loop
      vertex 49.382 53.6756 -1
      vertex 49.6617 53.9863 -13
      vertex 49.6617 53.9863 -1
    endloop
  endfacet
  facet normal 0.743143 -0.669133 0
    outer loop
      vertex 49.6617 53.9863 -13
      vertex 49.382 53.6756 -1
      vertex 49.382 53.6756 -13
    endloop
  endfacet
  facet normal 0.587781 -0.80902 0
    outer loop
      vertex 49.6617 53.9863 -13
      vertex 50 54.232 -1
      vertex 49.6617 53.9863 -1
    endloop
  endfacet
  facet normal 0.587781 -0.80902 0
    outer loop
      vertex 50 54.232 -1
      vertex 49.6617 53.9863 -13
      vertex 50 54.232 -13
    endloop
  endfacet
  facet normal -0.866026 -0.499998 0
    outer loop
      vertex 52.8271 53.3135 -13
      vertex 52.618 53.6756 -1
      vertex 52.618 53.6756 -13
    endloop
  endfacet
  facet normal -0.866026 -0.499998 0
    outer loop
      vertex 52.618 53.6756 -1
      vertex 52.8271 53.3135 -13
      vertex 52.8271 53.3135 -1
    endloop
  endfacet
  facet normal -0.951056 -0.309017 0
    outer loop
      vertex 52.9563 52.9158 -13
      vertex 52.8271 53.3135 -1
      vertex 52.8271 53.3135 -13
    endloop
  endfacet
  facet normal -0.951056 -0.309017 0
    outer loop
      vertex 52.8271 53.3135 -1
      vertex 52.9563 52.9158 -13
      vertex 52.9563 52.9158 -1
    endloop
  endfacet
  facet normal -0.743143 -0.669133 0
    outer loop
      vertex 52.618 53.6756 -13
      vertex 52.3383 53.9863 -1
      vertex 52.3383 53.9863 -13
    endloop
  endfacet
  facet normal -0.743143 -0.669133 0
    outer loop
      vertex 52.3383 53.9863 -1
      vertex 52.618 53.6756 -13
      vertex 52.618 53.6756 -1
    endloop
  endfacet
  facet normal -0.207908 -0.978148 0
    outer loop
      vertex 51.2091 54.489 -13
      vertex 51.618 54.4021 -1
      vertex 51.2091 54.489 -1
    endloop
  endfacet
  facet normal -0.207908 -0.978148 -0
    outer loop
      vertex 51.618 54.4021 -1
      vertex 51.2091 54.489 -13
      vertex 51.618 54.4021 -13
    endloop
  endfacet
  facet normal 0 -1 0
    outer loop
      vertex 50.7909 54.489 -13
      vertex 51.2091 54.489 -1
      vertex 50.7909 54.489 -1
    endloop
  endfacet
  facet normal 0 -1 -0
    outer loop
      vertex 51.2091 54.489 -1
      vertex 50.7909 54.489 -13
      vertex 51.2091 54.489 -13
    endloop
  endfacet
  facet normal -0.406746 -0.913541 0
    outer loop
      vertex 51.618 54.4021 -13
      vertex 52 54.232 -1
      vertex 51.618 54.4021 -1
    endloop
  endfacet
  facet normal -0.406746 -0.913541 -0
    outer loop
      vertex 52 54.232 -1
      vertex 51.618 54.4021 -13
      vertex 52 54.232 -13
    endloop
  endfacet
  facet normal 0.951056 -0.309017 0
    outer loop
      vertex 49.0437 52.9158 -1
      vertex 49.1729 53.3135 -13
      vertex 49.1729 53.3135 -1
    endloop
  endfacet
  facet normal 0.951056 -0.309017 0
    outer loop
      vertex 49.1729 53.3135 -13
      vertex 49.0437 52.9158 -1
      vertex 49.0437 52.9158 -13
    endloop
  endfacet
  facet normal 0.866026 -0.499998 0
    outer loop
      vertex 49.1729 53.3135 -1
      vertex 49.382 53.6756 -13
      vertex 49.382 53.6756 -1
    endloop
  endfacet
  facet normal 0.866026 -0.499998 0
    outer loop
      vertex 49.382 53.6756 -13
      vertex 49.1729 53.3135 -1
      vertex 49.1729 53.3135 -13
    endloop
  endfacet
  facet normal 0.994522 -0.104529 0
    outer loop
      vertex 49 52.5 -1
      vertex 49.0437 52.9158 -13
      vertex 49.0437 52.9158 -1
    endloop
  endfacet
  facet normal 0.994522 -0.104529 0
    outer loop
      vertex 49.0437 52.9158 -13
      vertex 49 52.5 -1
      vertex 49 52.5 -13
    endloop
  endfacet
  facet normal 0.406746 -0.913541 0
    outer loop
      vertex 50 54.232 -13
      vertex 50.382 54.4021 -1
      vertex 50 54.232 -1
    endloop
  endfacet
  facet normal 0.406746 -0.913541 0
    outer loop
      vertex 50.382 54.4021 -1
      vertex 50 54.232 -13
      vertex 50.382 54.4021 -13
    endloop
  endfacet
  facet normal -0.866026 0.499998 0
    outer loop
      vertex 52.618 51.3244 -13
      vertex 52.8271 51.6865 -1
      vertex 52.8271 51.6865 -13
    endloop
  endfacet
  facet normal -0.866026 0.499998 0
    outer loop
      vertex 52.8271 51.6865 -1
      vertex 52.618 51.3244 -13
      vertex 52.618 51.3244 -1
    endloop
  endfacet
  facet normal -0.994522 0.104529 0
    outer loop
      vertex 52.9563 52.0842 -13
      vertex 53 52.5 -1
      vertex 53 52.5 -13
    endloop
  endfacet
  facet normal -0.994522 0.104529 0
    outer loop
      vertex 53 52.5 -1
      vertex 52.9563 52.0842 -13
      vertex 52.9563 52.0842 -1
    endloop
  endfacet
  facet normal 0 1 -0
    outer loop
      vertex 51.2091 50.511 -13
      vertex 50.7909 50.511 -1
      vertex 51.2091 50.511 -1
    endloop
  endfacet
  facet normal 0 1 0
    outer loop
      vertex 50.7909 50.511 -1
      vertex 51.2091 50.511 -13
      vertex 50.7909 50.511 -13
    endloop
  endfacet
  facet normal 0.994522 0.104529 0
    outer loop
      vertex 49.0437 52.0842 -1
      vertex 49 52.5 -13
      vertex 49 52.5 -1
    endloop
  endfacet
  facet normal 0.994522 0.104529 0
    outer loop
      vertex 49 52.5 -13
      vertex 49.0437 52.0842 -1
      vertex 49.0437 52.0842 -13
    endloop
  endfacet
  facet normal -0.587787 0.809016 0
    outer loop
      vertex 52.3383 51.0137 -13
      vertex 52 50.7679 -1
      vertex 52.3383 51.0137 -1
    endloop
  endfacet
  facet normal -0.587787 0.809016 0
    outer loop
      vertex 52 50.7679 -1
      vertex 52.3383 51.0137 -13
      vertex 52 50.7679 -13
    endloop
  endfacet
  facet normal 0.743143 0.669133 0
    outer loop
      vertex 49.6617 51.0137 -1
      vertex 49.382 51.3244 -13
      vertex 49.382 51.3244 -1
    endloop
  endfacet
  facet normal 0.743143 0.669133 0
    outer loop
      vertex 49.382 51.3244 -13
      vertex 49.6617 51.0137 -1
      vertex 49.6617 51.0137 -13
    endloop
  endfacet
  facet normal 0.951056 0.309017 0
    outer loop
      vertex 49.1729 51.6865 -1
      vertex 49.0437 52.0842 -13
      vertex 49.0437 52.0842 -1
    endloop
  endfacet
  facet normal 0.951056 0.309017 0
    outer loop
      vertex 49.0437 52.0842 -13
      vertex 49.1729 51.6865 -1
      vertex 49.1729 51.6865 -13
    endloop
  endfacet
  facet normal 0.866026 0.499998 0
    outer loop
      vertex 49.382 51.3244 -1
      vertex 49.1729 51.6865 -13
      vertex 49.1729 51.6865 -1
    endloop
  endfacet
  facet normal 0.866026 0.499998 0
    outer loop
      vertex 49.1729 51.6865 -13
      vertex 49.382 51.3244 -1
      vertex 49.382 51.3244 -13
    endloop
  endfacet
  facet normal -0.951056 0.309017 0
    outer loop
      vertex 52.8271 51.6865 -13
      vertex 52.9563 52.0842 -1
      vertex 52.9563 52.0842 -13
    endloop
  endfacet
  facet normal -0.951056 0.309017 0
    outer loop
      vertex 52.9563 52.0842 -1
      vertex 52.8271 51.6865 -13
      vertex 52.8271 51.6865 -1
    endloop
  endfacet
  facet normal -0.207908 0.978148 0
    outer loop
      vertex 51.618 50.5979 -13
      vertex 51.2091 50.511 -1
      vertex 51.618 50.5979 -1
    endloop
  endfacet
  facet normal -0.207908 0.978148 0
    outer loop
      vertex 51.2091 50.511 -1
      vertex 51.618 50.5979 -13
      vertex 51.2091 50.511 -13
    endloop
  endfacet
  facet normal 0.207908 0.978148 -0
    outer loop
      vertex 50.7909 50.511 -13
      vertex 50.382 50.5979 -1
      vertex 50.7909 50.511 -1
    endloop
  endfacet
  facet normal 0.207908 0.978148 0
    outer loop
      vertex 50.382 50.5979 -1
      vertex 50.7909 50.511 -13
      vertex 50.382 50.5979 -13
    endloop
  endfacet
  facet normal 0.587787 0.809016 -0
    outer loop
      vertex 50 50.7679 -13
      vertex 49.6617 51.0137 -1
      vertex 50 50.7679 -1
    endloop
  endfacet
  facet normal 0.587787 0.809016 0
    outer loop
      vertex 49.6617 51.0137 -1
      vertex 50 50.7679 -13
      vertex 49.6617 51.0137 -13
    endloop
  endfacet
  facet normal -0.743143 0.669133 0
    outer loop
      vertex 52.3383 51.0137 -13
      vertex 52.618 51.3244 -1
      vertex 52.618 51.3244 -13
    endloop
  endfacet
  facet normal -0.743143 0.669133 0
    outer loop
      vertex 52.618 51.3244 -1
      vertex 52.3383 51.0137 -13
      vertex 52.3383 51.0137 -1
    endloop
  endfacet
  facet normal 0.406739 0.913545 -0
    outer loop
      vertex 50.382 50.5979 -13
      vertex 50 50.7679 -1
      vertex 50.382 50.5979 -1
    endloop
  endfacet
  facet normal 0.406739 0.913545 0
    outer loop
      vertex 50 50.7679 -1
      vertex 50.382 50.5979 -13
      vertex 50 50.7679 -13
    endloop
  endfacet
  facet normal -0.866026 -0.499998 0
    outer loop
      vertex 52.8271 -51.6865 -13
      vertex 52.618 -51.3244 -1
      vertex 52.618 -51.3244 -13
    endloop
  endfacet
  facet normal -0.866026 -0.499998 0
    outer loop
      vertex 52.618 -51.3244 -1
      vertex 52.8271 -51.6865 -13
      vertex 52.8271 -51.6865 -1
    endloop
  endfacet
  facet normal -0.743143 -0.669133 0
    outer loop
      vertex 52.618 -51.3244 -13
      vertex 52.3383 -51.0137 -1
      vertex 52.3383 -51.0137 -13
    endloop
  endfacet
  facet normal -0.743143 -0.669133 0
    outer loop
      vertex 52.3383 -51.0137 -1
      vertex 52.618 -51.3244 -13
      vertex 52.618 -51.3244 -1
    endloop
  endfacet
  facet normal 0 -1 0
    outer loop
      vertex 50.7909 -50.511 -13
      vertex 51.2091 -50.511 -1
      vertex 50.7909 -50.511 -1
    endloop
  endfacet
  facet normal 0 -1 -0
    outer loop
      vertex 51.2091 -50.511 -1
      vertex 50.7909 -50.511 -13
      vertex 51.2091 -50.511 -13
    endloop
  endfacet
  facet normal -0.207908 -0.978148 0
    outer loop
      vertex 51.2091 -50.511 -13
      vertex 51.618 -50.5979 -1
      vertex 51.2091 -50.511 -1
    endloop
  endfacet
  facet normal -0.207908 -0.978148 -0
    outer loop
      vertex 51.618 -50.5979 -1
      vertex 51.2091 -50.511 -13
      vertex 51.618 -50.5979 -13
    endloop
  endfacet
  facet normal 0.587787 -0.809016 0
    outer loop
      vertex 49.6617 -51.0137 -13
      vertex 50 -50.7679 -1
      vertex 49.6617 -51.0137 -1
    endloop
  endfacet
  facet normal 0.587787 -0.809016 0
    outer loop
      vertex 50 -50.7679 -1
      vertex 49.6617 -51.0137 -13
      vertex 50 -50.7679 -13
    endloop
  endfacet
  facet normal 0.951056 -0.309017 0
    outer loop
      vertex 49.0437 -52.0842 -1
      vertex 49.1729 -51.6865 -13
      vertex 49.1729 -51.6865 -1
    endloop
  endfacet
  facet normal 0.951056 -0.309017 0
    outer loop
      vertex 49.1729 -51.6865 -13
      vertex 49.0437 -52.0842 -1
      vertex 49.0437 -52.0842 -13
    endloop
  endfacet
  facet normal 0.743143 -0.669133 0
    outer loop
      vertex 49.382 -51.3244 -1
      vertex 49.6617 -51.0137 -13
      vertex 49.6617 -51.0137 -1
    endloop
  endfacet
  facet normal 0.743143 -0.669133 0
    outer loop
      vertex 49.6617 -51.0137 -13
      vertex 49.382 -51.3244 -1
      vertex 49.382 -51.3244 -13
    endloop
  endfacet
  facet normal -0.994522 0.104529 0
    outer loop
      vertex 52.9563 -52.9158 -13
      vertex 53 -52.5 -1
      vertex 53 -52.5 -13
    endloop
  endfacet
  facet normal -0.994522 0.104529 0
    outer loop
      vertex 53 -52.5 -1
      vertex 52.9563 -52.9158 -13
      vertex 52.9563 -52.9158 -1
    endloop
  endfacet
  facet normal -0.951056 -0.309017 0
    outer loop
      vertex 52.9563 -52.0842 -13
      vertex 52.8271 -51.6865 -1
      vertex 52.8271 -51.6865 -13
    endloop
  endfacet
  facet normal -0.951056 -0.309017 0
    outer loop
      vertex 52.8271 -51.6865 -1
      vertex 52.9563 -52.0842 -13
      vertex 52.9563 -52.0842 -1
    endloop
  endfacet
  facet normal -0.587787 -0.809016 0
    outer loop
      vertex 52 -50.7679 -13
      vertex 52.3383 -51.0137 -1
      vertex 52 -50.7679 -1
    endloop
  endfacet
  facet normal -0.587787 -0.809016 -0
    outer loop
      vertex 52.3383 -51.0137 -1
      vertex 52 -50.7679 -13
      vertex 52.3383 -51.0137 -13
    endloop
  endfacet
  facet normal 0.207908 -0.978148 0
    outer loop
      vertex 50.382 -50.5979 -13
      vertex 50.7909 -50.511 -1
      vertex 50.382 -50.5979 -1
    endloop
  endfacet
  facet normal 0.207908 -0.978148 0
    outer loop
      vertex 50.7909 -50.511 -1
      vertex 50.382 -50.5979 -13
      vertex 50.7909 -50.511 -13
    endloop
  endfacet
  facet normal -0.406739 -0.913545 0
    outer loop
      vertex 51.618 -50.5979 -13
      vertex 52 -50.7679 -1
      vertex 51.618 -50.5979 -1
    endloop
  endfacet
  facet normal -0.406739 -0.913545 -0
    outer loop
      vertex 52 -50.7679 -1
      vertex 51.618 -50.5979 -13
      vertex 52 -50.7679 -13
    endloop
  endfacet
  facet normal 0.994522 0.104529 0
    outer loop
      vertex 49.0437 -52.9158 -1
      vertex 49 -52.5 -13
      vertex 49 -52.5 -1
    endloop
  endfacet
  facet normal 0.994522 0.104529 0
    outer loop
      vertex 49 -52.5 -13
      vertex 49.0437 -52.9158 -1
      vertex 49.0437 -52.9158 -13
    endloop
  endfacet
  facet normal 0.866026 -0.499998 0
    outer loop
      vertex 49.1729 -51.6865 -1
      vertex 49.382 -51.3244 -13
      vertex 49.382 -51.3244 -1
    endloop
  endfacet
  facet normal 0.866026 -0.499998 0
    outer loop
      vertex 49.382 -51.3244 -13
      vertex 49.1729 -51.6865 -1
      vertex 49.1729 -51.6865 -13
    endloop
  endfacet
  facet normal 0.406739 -0.913545 0
    outer loop
      vertex 50 -50.7679 -13
      vertex 50.382 -50.5979 -1
      vertex 50 -50.7679 -1
    endloop
  endfacet
  facet normal 0.406739 -0.913545 0
    outer loop
      vertex 50.382 -50.5979 -1
      vertex 50 -50.7679 -13
      vertex 50.382 -50.5979 -13
    endloop
  endfacet
  facet normal -0.994522 -0.104529 0
    outer loop
      vertex 53 -52.5 -13
      vertex 52.9563 -52.0842 -1
      vertex 52.9563 -52.0842 -13
    endloop
  endfacet
  facet normal -0.994522 -0.104529 0
    outer loop
      vertex 52.9563 -52.0842 -1
      vertex 53 -52.5 -13
      vertex 53 -52.5 -1
    endloop
  endfacet
  facet normal -0.587781 0.80902 0
    outer loop
      vertex 52.3383 -53.9863 -13
      vertex 52 -54.232 -1
      vertex 52.3383 -53.9863 -1
    endloop
  endfacet
  facet normal -0.587781 0.80902 0
    outer loop
      vertex 52 -54.232 -1
      vertex 52.3383 -53.9863 -13
      vertex 52 -54.232 -13
    endloop
  endfacet
  facet normal -0.866026 0.499998 0
    outer loop
      vertex 52.618 -53.6756 -13
      vertex 52.8271 -53.3135 -1
      vertex 52.8271 -53.3135 -13
    endloop
  endfacet
  facet normal -0.866026 0.499998 0
    outer loop
      vertex 52.8271 -53.3135 -1
      vertex 52.618 -53.6756 -13
      vertex 52.618 -53.6756 -1
    endloop
  endfacet
  facet normal 0 1 -0
    outer loop
      vertex 51.2091 -54.489 -13
      vertex 50.7909 -54.489 -1
      vertex 51.2091 -54.489 -1
    endloop
  endfacet
  facet normal 0 1 0
    outer loop
      vertex 50.7909 -54.489 -1
      vertex 51.2091 -54.489 -13
      vertex 50.7909 -54.489 -13
    endloop
  endfacet
  facet normal -0.406746 0.913541 0
    outer loop
      vertex 52 -54.232 -13
      vertex 51.618 -54.4021 -1
      vertex 52 -54.232 -1
    endloop
  endfacet
  facet normal -0.406746 0.913541 0
    outer loop
      vertex 51.618 -54.4021 -1
      vertex 52 -54.232 -13
      vertex 51.618 -54.4021 -13
    endloop
  endfacet
  facet normal 0.994522 -0.104529 0
    outer loop
      vertex 49 -52.5 -1
      vertex 49.0437 -52.0842 -13
      vertex 49.0437 -52.0842 -1
    endloop
  endfacet
  facet normal 0.994522 -0.104529 0
    outer loop
      vertex 49.0437 -52.0842 -13
      vertex 49 -52.5 -1
      vertex 49 -52.5 -13
    endloop
  endfacet
  facet normal 0.951056 0.309017 0
    outer loop
      vertex 49.1729 -53.3135 -1
      vertex 49.0437 -52.9158 -13
      vertex 49.0437 -52.9158 -1
    endloop
  endfacet
  facet normal 0.951056 0.309017 0
    outer loop
      vertex 49.0437 -52.9158 -13
      vertex 49.1729 -53.3135 -1
      vertex 49.1729 -53.3135 -13
    endloop
  endfacet
  facet normal 0.743143 0.669133 0
    outer loop
      vertex 49.6617 -53.9863 -1
      vertex 49.382 -53.6756 -13
      vertex 49.382 -53.6756 -1
    endloop
  endfacet
  facet normal 0.743143 0.669133 0
    outer loop
      vertex 49.382 -53.6756 -13
      vertex 49.6617 -53.9863 -1
      vertex 49.6617 -53.9863 -13
    endloop
  endfacet
  facet normal -0.951056 0.309017 0
    outer loop
      vertex 52.8271 -53.3135 -13
      vertex 52.9563 -52.9158 -1
      vertex 52.9563 -52.9158 -13
    endloop
  endfacet
  facet normal -0.951056 0.309017 0
    outer loop
      vertex 52.9563 -52.9158 -1
      vertex 52.8271 -53.3135 -13
      vertex 52.8271 -53.3135 -1
    endloop
  endfacet
  facet normal 0.207908 0.978148 -0
    outer loop
      vertex 50.7909 -54.489 -13
      vertex 50.382 -54.4021 -1
      vertex 50.7909 -54.489 -1
    endloop
  endfacet
  facet normal 0.207908 0.978148 0
    outer loop
      vertex 50.382 -54.4021 -1
      vertex 50.7909 -54.489 -13
      vertex 50.382 -54.4021 -13
    endloop
  endfacet
  facet normal -0.207908 0.978148 0
    outer loop
      vertex 51.618 -54.4021 -13
      vertex 51.2091 -54.489 -1
      vertex 51.618 -54.4021 -1
    endloop
  endfacet
  facet normal -0.207908 0.978148 0
    outer loop
      vertex 51.2091 -54.489 -1
      vertex 51.618 -54.4021 -13
      vertex 51.2091 -54.489 -13
    endloop
  endfacet
  facet normal 0.866026 0.499998 0
    outer loop
      vertex 49.382 -53.6756 -1
      vertex 49.1729 -53.3135 -13
      vertex 49.1729 -53.3135 -1
    endloop
  endfacet
  facet normal 0.866026 0.499998 0
    outer loop
      vertex 49.1729 -53.3135 -13
      vertex 49.382 -53.6756 -1
      vertex 49.382 -53.6756 -13
    endloop
  endfacet
  facet normal 0.587781 0.80902 -0
    outer loop
      vertex 50 -54.232 -13
      vertex 49.6617 -53.9863 -1
      vertex 50 -54.232 -1
    endloop
  endfacet
  facet normal 0.587781 0.80902 0
    outer loop
      vertex 49.6617 -53.9863 -1
      vertex 50 -54.232 -13
      vertex 49.6617 -53.9863 -13
    endloop
  endfacet
  facet normal -0.743143 0.669133 0
    outer loop
      vertex 52.3383 -53.9863 -13
      vertex 52.618 -53.6756 -1
      vertex 52.618 -53.6756 -13
    endloop
  endfacet
  facet normal -0.743143 0.669133 0
    outer loop
      vertex 52.618 -53.6756 -1
      vertex 52.3383 -53.9863 -13
      vertex 52.3383 -53.9863 -1
    endloop
  endfacet
  facet normal 0.406746 0.913541 -0
    outer loop
      vertex 50.382 -54.4021 -13
      vertex 50 -54.232 -1
      vertex 50.382 -54.4021 -1
    endloop
  endfacet
  facet normal 0.406746 0.913541 0
    outer loop
      vertex 50 -54.232 -1
      vertex 50.382 -54.4021 -13
      vertex 50 -54.232 -13
    endloop
  endfacet
endsolid OpenSCAD_Model
