solid OpenSCAD_Model
  facet normal 0 -0.500041 -0.866002
    outer loop
      vertex 2 4.02876 23.1876
      vertex 12 4.26412 23.0517
      vertex 12 4.02876 23.1876
    endloop
  endfacet
  facet normal -0 -0.500041 -0.866002
    outer loop
      vertex 12 4.26412 23.0517
      vertex 2 4.02876 23.1876
      vertex 2 4.26412 23.0517
    endloop
  endfacet
  facet normal 0 -0.309066 0.951041
    outer loop
      vertex 2 4.02876 20.8124
      vertex 12 3.77028 20.7284
      vertex 12 4.02876 20.8124
    endloop
  endfacet
  facet normal 0 -0.309066 0.951041
    outer loop
      vertex 12 3.77028 20.7284
      vertex 2 4.02876 20.8124
      vertex 2 3.77028 20.7284
    endloop
  endfacet
  facet normal 0 -0.66902 -0.743245
    outer loop
      vertex 2 4.26412 23.0517
      vertex 12 4.46609 22.8699
      vertex 12 4.26412 23.0517
    endloop
  endfacet
  facet normal -0 -0.66902 -0.743245
    outer loop
      vertex 12 4.46609 22.8699
      vertex 2 4.26412 23.0517
      vertex 2 4.46609 22.8699
    endloop
  endfacet
  facet normal 0 -0.978138 -0.207956
    outer loop
      vertex 2 4.79288 22.1359
      vertex 12 4.73637 22.4017
      vertex 2 4.73637 22.4017
    endloop
  endfacet
  facet normal 0 -0.978138 -0.207956
    outer loop
      vertex 12 4.73637 22.4017
      vertex 2 4.79288 22.1359
      vertex 12 4.79288 22.1359
    endloop
  endfacet
  facet normal 0 -0.91356 0.406705
    outer loop
      vertex 2 4.62583 21.35
      vertex 12 4.73637 21.5983
      vertex 2 4.73637 21.5983
    endloop
  endfacet
  facet normal 0 -0.91356 0.406705
    outer loop
      vertex 12 4.73637 21.5983
      vertex 2 4.62583 21.35
      vertex 12 4.62583 21.35
    endloop
  endfacet
  facet normal 0 -0.500041 0.866002
    outer loop
      vertex 2 4.26412 20.9483
      vertex 12 4.02876 20.8124
      vertex 12 4.26412 20.9483
    endloop
  endfacet
  facet normal 0 -0.500041 0.866002
    outer loop
      vertex 12 4.02876 20.8124
      vertex 2 4.26412 20.9483
      vertex 2 4.02876 20.8124
    endloop
  endfacet
  facet normal 0 0.104501 -0.994525
    outer loop
      vertex 2 3.22972 23.2716
      vertex 12 3.5 23.3
      vertex 12 3.22972 23.2716
    endloop
  endfacet
  facet normal 0 0.104501 -0.994525
    outer loop
      vertex 12 3.5 23.3
      vertex 2 3.22972 23.2716
      vertex 2 3.5 23.3
    endloop
  endfacet
  facet normal 0 -0.809064 -0.587721
    outer loop
      vertex 2 4.62583 22.65
      vertex 12 4.46609 22.8699
      vertex 2 4.46609 22.8699
    endloop
  endfacet
  facet normal 0 -0.809064 -0.587721
    outer loop
      vertex 12 4.46609 22.8699
      vertex 2 4.62583 22.65
      vertex 12 4.62583 22.65
    endloop
  endfacet
  facet normal 0 -1 0
    outer loop
      vertex 2 4.79288 21.8641
      vertex 12 4.79288 22.1359
      vertex 2 4.79288 22.1359
    endloop
  endfacet
  facet normal 0 -1 -0
    outer loop
      vertex 12 4.79288 22.1359
      vertex 2 4.79288 21.8641
      vertex 12 4.79288 21.8641
    endloop
  endfacet
  facet normal 0 -0.91356 -0.406705
    outer loop
      vertex 2 4.73637 22.4017
      vertex 12 4.62583 22.65
      vertex 2 4.62583 22.65
    endloop
  endfacet
  facet normal 0 -0.91356 -0.406705
    outer loop
      vertex 12 4.62583 22.65
      vertex 2 4.73637 22.4017
      vertex 12 4.73637 22.4017
    endloop
  endfacet
  facet normal 0 -0.104501 0.994525
    outer loop
      vertex 2 3.77028 20.7284
      vertex 12 3.5 20.7
      vertex 12 3.77028 20.7284
    endloop
  endfacet
  facet normal 0 -0.104501 0.994525
    outer loop
      vertex 12 3.5 20.7
      vertex 2 3.77028 20.7284
      vertex 2 3.5 20.7
    endloop
  endfacet
  facet normal 0 -0.809064 0.587721
    outer loop
      vertex 2 4.46609 21.1301
      vertex 12 4.62583 21.35
      vertex 2 4.62583 21.35
    endloop
  endfacet
  facet normal 0 -0.809064 0.587721
    outer loop
      vertex 12 4.62583 21.35
      vertex 2 4.46609 21.1301
      vertex 12 4.46609 21.1301
    endloop
  endfacet
  facet normal 0 -0.978138 0.207956
    outer loop
      vertex 2 4.73637 21.5983
      vertex 12 4.79288 21.8641
      vertex 2 4.79288 21.8641
    endloop
  endfacet
  facet normal 0 -0.978138 0.207956
    outer loop
      vertex 12 4.79288 21.8641
      vertex 2 4.73637 21.5983
      vertex 12 4.73637 21.5983
    endloop
  endfacet
  facet normal 0 -0.66902 0.743245
    outer loop
      vertex 2 4.46609 21.1301
      vertex 12 4.26412 20.9483
      vertex 12 4.46609 21.1301
    endloop
  endfacet
  facet normal 0 -0.66902 0.743245
    outer loop
      vertex 12 4.26412 20.9483
      vertex 2 4.46609 21.1301
      vertex 2 4.26412 20.9483
    endloop
  endfacet
  facet normal 0 -0.104501 -0.994525
    outer loop
      vertex 2 3.5 23.3
      vertex 12 3.77028 23.2716
      vertex 12 3.5 23.3
    endloop
  endfacet
  facet normal -0 -0.104501 -0.994525
    outer loop
      vertex 12 3.77028 23.2716
      vertex 2 3.5 23.3
      vertex 2 3.77028 23.2716
    endloop
  endfacet
  facet normal 0 0.809064 -0.587721
    outer loop
      vertex 12 2.37417 22.65
      vertex 2 2.53391 22.8699
      vertex 12 2.53391 22.8699
    endloop
  endfacet
  facet normal 0 0.809064 -0.587721
    outer loop
      vertex 2 2.53391 22.8699
      vertex 12 2.37417 22.65
      vertex 2 2.37417 22.65
    endloop
  endfacet
  facet normal 0 0.309066 -0.951041
    outer loop
      vertex 2 2.97124 23.1876
      vertex 12 3.22972 23.2716
      vertex 12 2.97124 23.1876
    endloop
  endfacet
  facet normal 0 0.309066 -0.951041
    outer loop
      vertex 12 3.22972 23.2716
      vertex 2 2.97124 23.1876
      vertex 2 3.22972 23.2716
    endloop
  endfacet
  facet normal 0 0.978138 0.207956
    outer loop
      vertex 12 2.26363 21.5983
      vertex 2 2.20712 21.8641
      vertex 12 2.20712 21.8641
    endloop
  endfacet
  facet normal 0 0.978138 0.207956
    outer loop
      vertex 2 2.20712 21.8641
      vertex 12 2.26363 21.5983
      vertex 2 2.26363 21.5983
    endloop
  endfacet
  facet normal 0 -0.309066 -0.951041
    outer loop
      vertex 2 3.77028 23.2716
      vertex 12 4.02876 23.1876
      vertex 12 3.77028 23.2716
    endloop
  endfacet
  facet normal -0 -0.309066 -0.951041
    outer loop
      vertex 12 4.02876 23.1876
      vertex 2 3.77028 23.2716
      vertex 2 4.02876 23.1876
    endloop
  endfacet
  facet normal 1 0 0
    outer loop
      vertex 2 4.73637 22.4017
      vertex 2 4.79288 21.8641
      vertex 2 4.79288 22.1359
    endloop
  endfacet
  facet normal 1 0 0
    outer loop
      vertex 2 4.73637 22.4017
      vertex 2 4.73637 21.5983
      vertex 2 4.79288 21.8641
    endloop
  endfacet
  facet normal 1 0 0
    outer loop
      vertex 2 4.62583 22.65
      vertex 2 4.73637 21.5983
      vertex 2 4.73637 22.4017
    endloop
  endfacet
  facet normal 1 0 0
    outer loop
      vertex 2 4.62583 22.65
      vertex 2 4.62583 21.35
      vertex 2 4.73637 21.5983
    endloop
  endfacet
  facet normal 1 0 0
    outer loop
      vertex 2 4.46609 22.8699
      vertex 2 4.62583 21.35
      vertex 2 4.62583 22.65
    endloop
  endfacet
  facet normal 1 0 0
    outer loop
      vertex 2 4.46609 22.8699
      vertex 2 4.46609 21.1301
      vertex 2 4.62583 21.35
    endloop
  endfacet
  facet normal 1 0 0
    outer loop
      vertex 2 4.26412 23.0517
      vertex 2 4.46609 21.1301
      vertex 2 4.46609 22.8699
    endloop
  endfacet
  facet normal 1 0 0
    outer loop
      vertex 2 4.26412 23.0517
      vertex 2 4.26412 20.9483
      vertex 2 4.46609 21.1301
    endloop
  endfacet
  facet normal 1 0 0
    outer loop
      vertex 2 4.02876 23.1876
      vertex 2 4.26412 20.9483
      vertex 2 4.26412 23.0517
    endloop
  endfacet
  facet normal 1 0 0
    outer loop
      vertex 2 4.02876 23.1876
      vertex 2 4.02876 20.8124
      vertex 2 4.26412 20.9483
    endloop
  endfacet
  facet normal 1 0 0
    outer loop
      vertex 2 3.77028 23.2716
      vertex 2 4.02876 20.8124
      vertex 2 4.02876 23.1876
    endloop
  endfacet
  facet normal 1 0 0
    outer loop
      vertex 2 3.77028 23.2716
      vertex 2 3.77028 20.7284
      vertex 2 4.02876 20.8124
    endloop
  endfacet
  facet normal 1 0 0
    outer loop
      vertex 2 3.5 23.3
      vertex 2 3.77028 20.7284
      vertex 2 3.77028 23.2716
    endloop
  endfacet
  facet normal 1 0 0
    outer loop
      vertex 2 3.5 23.3
      vertex 2 3.5 20.7
      vertex 2 3.77028 20.7284
    endloop
  endfacet
  facet normal 1 -0 0
    outer loop
      vertex 2 3.22972 23.2716
      vertex 2 3.5 20.7
      vertex 2 3.5 23.3
    endloop
  endfacet
  facet normal 1 0 0
    outer loop
      vertex 2 3.22972 23.2716
      vertex 2 3.22972 20.7284
      vertex 2 3.5 20.7
    endloop
  endfacet
  facet normal 1 -0 0
    outer loop
      vertex 2 2.97124 23.1876
      vertex 2 3.22972 20.7284
      vertex 2 3.22972 23.2716
    endloop
  endfacet
  facet normal 1 0 0
    outer loop
      vertex 2 2.97124 23.1876
      vertex 2 2.97124 20.8124
      vertex 2 3.22972 20.7284
    endloop
  endfacet
  facet normal 1 -0 0
    outer loop
      vertex 2 2.73588 23.0517
      vertex 2 2.97124 20.8124
      vertex 2 2.97124 23.1876
    endloop
  endfacet
  facet normal 1 0 0
    outer loop
      vertex 2 2.73588 23.0517
      vertex 2 2.73588 20.9483
      vertex 2 2.97124 20.8124
    endloop
  endfacet
  facet normal 1 -0 0
    outer loop
      vertex 2 2.53391 22.8699
      vertex 2 2.73588 20.9483
      vertex 2 2.73588 23.0517
    endloop
  endfacet
  facet normal 1 0 0
    outer loop
      vertex 2 2.53391 22.8699
      vertex 2 2.53391 21.1301
      vertex 2 2.73588 20.9483
    endloop
  endfacet
  facet normal 1 -0 0
    outer loop
      vertex 2 2.37417 22.65
      vertex 2 2.53391 21.1301
      vertex 2 2.53391 22.8699
    endloop
  endfacet
  facet normal 1 0 0
    outer loop
      vertex 2 2.37417 22.65
      vertex 2 2.37417 21.35
      vertex 2 2.53391 21.1301
    endloop
  endfacet
  facet normal 1 -0 0
    outer loop
      vertex 2 2.26363 22.4017
      vertex 2 2.37417 21.35
      vertex 2 2.37417 22.65
    endloop
  endfacet
  facet normal 1 0 0
    outer loop
      vertex 2 2.26363 22.4017
      vertex 2 2.26363 21.5983
      vertex 2 2.37417 21.35
    endloop
  endfacet
  facet normal 1 -0 0
    outer loop
      vertex 2 2.20712 22.1359
      vertex 2 2.26363 21.5983
      vertex 2 2.26363 22.4017
    endloop
  endfacet
  facet normal 1 0 0
    outer loop
      vertex 2 2.26363 21.5983
      vertex 2 2.20712 22.1359
      vertex 2 2.20712 21.8641
    endloop
  endfacet
  facet normal 0 0.500041 -0.866002
    outer loop
      vertex 2 2.73588 23.0517
      vertex 12 2.97124 23.1876
      vertex 12 2.73588 23.0517
    endloop
  endfacet
  facet normal 0 0.500041 -0.866002
    outer loop
      vertex 12 2.97124 23.1876
      vertex 2 2.73588 23.0517
      vertex 2 2.97124 23.1876
    endloop
  endfacet
  facet normal -0 0.104501 0.994525
    outer loop
      vertex 2 3.5 20.7
      vertex 12 3.22972 20.7284
      vertex 12 3.5 20.7
    endloop
  endfacet
  facet normal 0 0.104501 0.994525
    outer loop
      vertex 12 3.22972 20.7284
      vertex 2 3.5 20.7
      vertex 2 3.22972 20.7284
    endloop
  endfacet
  facet normal -0 0.500041 0.866002
    outer loop
      vertex 2 2.97124 20.8124
      vertex 12 2.73588 20.9483
      vertex 12 2.97124 20.8124
    endloop
  endfacet
  facet normal 0 0.500041 0.866002
    outer loop
      vertex 12 2.73588 20.9483
      vertex 2 2.97124 20.8124
      vertex 2 2.73588 20.9483
    endloop
  endfacet
  facet normal 0 0.978138 -0.207956
    outer loop
      vertex 12 2.20712 22.1359
      vertex 2 2.26363 22.4017
      vertex 12 2.26363 22.4017
    endloop
  endfacet
  facet normal 0 0.978138 -0.207956
    outer loop
      vertex 2 2.26363 22.4017
      vertex 12 2.20712 22.1359
      vertex 2 2.20712 22.1359
    endloop
  endfacet
  facet normal 0 0.91356 -0.406705
    outer loop
      vertex 12 2.26363 22.4017
      vertex 2 2.37417 22.65
      vertex 12 2.37417 22.65
    endloop
  endfacet
  facet normal 0 0.91356 -0.406705
    outer loop
      vertex 2 2.37417 22.65
      vertex 12 2.26363 22.4017
      vertex 2 2.26363 22.4017
    endloop
  endfacet
  facet normal 0 0.91356 0.406705
    outer loop
      vertex 12 2.37417 21.35
      vertex 2 2.26363 21.5983
      vertex 12 2.26363 21.5983
    endloop
  endfacet
  facet normal 0 0.91356 0.406705
    outer loop
      vertex 2 2.26363 21.5983
      vertex 12 2.37417 21.35
      vertex 2 2.37417 21.35
    endloop
  endfacet
  facet normal 0 1 -0
    outer loop
      vertex 12 2.20712 21.8641
      vertex 2 2.20712 22.1359
      vertex 12 2.20712 22.1359
    endloop
  endfacet
  facet normal 0 1 0
    outer loop
      vertex 2 2.20712 22.1359
      vertex 12 2.20712 21.8641
      vertex 2 2.20712 21.8641
    endloop
  endfacet
  facet normal -0 0.309066 0.951041
    outer loop
      vertex 2 3.22972 20.7284
      vertex 12 2.97124 20.8124
      vertex 12 3.22972 20.7284
    endloop
  endfacet
  facet normal 0 0.309066 0.951041
    outer loop
      vertex 12 2.97124 20.8124
      vertex 2 3.22972 20.7284
      vertex 2 2.97124 20.8124
    endloop
  endfacet
  facet normal -0 0.66902 0.743245
    outer loop
      vertex 2 2.73588 20.9483
      vertex 12 2.53391 21.1301
      vertex 12 2.73588 20.9483
    endloop
  endfacet
  facet normal 0 0.66902 0.743245
    outer loop
      vertex 12 2.53391 21.1301
      vertex 2 2.73588 20.9483
      vertex 2 2.53391 21.1301
    endloop
  endfacet
  facet normal 0 0.66902 -0.743245
    outer loop
      vertex 2 2.53391 22.8699
      vertex 12 2.73588 23.0517
      vertex 12 2.53391 22.8699
    endloop
  endfacet
  facet normal 0 0.66902 -0.743245
    outer loop
      vertex 12 2.73588 23.0517
      vertex 2 2.53391 22.8699
      vertex 2 2.73588 23.0517
    endloop
  endfacet
  facet normal 0 0.809064 0.587721
    outer loop
      vertex 12 2.53391 21.1301
      vertex 2 2.37417 21.35
      vertex 12 2.37417 21.35
    endloop
  endfacet
  facet normal 0 0.809064 0.587721
    outer loop
      vertex 2 2.37417 21.35
      vertex 12 2.53391 21.1301
      vertex 2 2.53391 21.1301
    endloop
  endfacet
  facet normal 0 -0.104501 -0.994525
    outer loop
      vertex 2 3.5 49.3
      vertex 12 3.77028 49.2716
      vertex 12 3.5 49.3
    endloop
  endfacet
  facet normal -0 -0.104501 -0.994525
    outer loop
      vertex 12 3.77028 49.2716
      vertex 2 3.5 49.3
      vertex 2 3.77028 49.2716
    endloop
  endfacet
  facet normal 0 -0.104501 0.994525
    outer loop
      vertex 2 3.77028 46.7284
      vertex 12 3.5 46.7
      vertex 12 3.77028 46.7284
    endloop
  endfacet
  facet normal 0 -0.104501 0.994525
    outer loop
      vertex 12 3.5 46.7
      vertex 2 3.77028 46.7284
      vertex 2 3.5 46.7
    endloop
  endfacet
  facet normal 0 -1 0
    outer loop
      vertex 2 4.79288 47.8641
      vertex 12 4.79288 48.1359
      vertex 2 4.79288 48.1359
    endloop
  endfacet
  facet normal 0 -1 -0
    outer loop
      vertex 12 4.79288 48.1359
      vertex 2 4.79288 47.8641
      vertex 12 4.79288 47.8641
    endloop
  endfacet
  facet normal 0 1 -0
    outer loop
      vertex 12 2.20712 47.8641
      vertex 2 2.20712 48.1359
      vertex 12 2.20712 48.1359
    endloop
  endfacet
  facet normal 0 1 0
    outer loop
      vertex 2 2.20712 48.1359
      vertex 12 2.20712 47.8641
      vertex 2 2.20712 47.8641
    endloop
  endfacet
  facet normal 0 -0.809064 -0.587721
    outer loop
      vertex 2 4.62583 48.65
      vertex 12 4.46609 48.8699
      vertex 2 4.46609 48.8699
    endloop
  endfacet
  facet normal 0 -0.809064 -0.587721
    outer loop
      vertex 12 4.46609 48.8699
      vertex 2 4.62583 48.65
      vertex 12 4.62583 48.65
    endloop
  endfacet
  facet normal 0 -0.91356 -0.406705
    outer loop
      vertex 2 4.73637 48.4017
      vertex 12 4.62583 48.65
      vertex 2 4.62583 48.65
    endloop
  endfacet
  facet normal 0 -0.91356 -0.406705
    outer loop
      vertex 12 4.62583 48.65
      vertex 2 4.73637 48.4017
      vertex 12 4.73637 48.4017
    endloop
  endfacet
  facet normal 0 -0.66902 0.743245
    outer loop
      vertex 2 4.46609 47.1301
      vertex 12 4.26412 46.9483
      vertex 12 4.46609 47.1301
    endloop
  endfacet
  facet normal 0 -0.66902 0.743245
    outer loop
      vertex 12 4.26412 46.9483
      vertex 2 4.46609 47.1301
      vertex 2 4.26412 46.9483
    endloop
  endfacet
  facet normal 0 -0.500041 0.866002
    outer loop
      vertex 2 4.26412 46.9483
      vertex 12 4.02876 46.8124
      vertex 12 4.26412 46.9483
    endloop
  endfacet
  facet normal 0 -0.500041 0.866002
    outer loop
      vertex 12 4.02876 46.8124
      vertex 2 4.26412 46.9483
      vertex 2 4.02876 46.8124
    endloop
  endfacet
  facet normal 0 -0.91356 0.406705
    outer loop
      vertex 2 4.62583 47.35
      vertex 12 4.73637 47.5983
      vertex 2 4.73637 47.5983
    endloop
  endfacet
  facet normal 0 -0.91356 0.406705
    outer loop
      vertex 12 4.73637 47.5983
      vertex 2 4.62583 47.35
      vertex 12 4.62583 47.35
    endloop
  endfacet
  facet normal 0 0.500041 -0.866002
    outer loop
      vertex 2 2.73588 49.0517
      vertex 12 2.97124 49.1876
      vertex 12 2.73588 49.0517
    endloop
  endfacet
  facet normal 0 0.500041 -0.866002
    outer loop
      vertex 12 2.97124 49.1876
      vertex 2 2.73588 49.0517
      vertex 2 2.97124 49.1876
    endloop
  endfacet
  facet normal 0 -0.500041 -0.866002
    outer loop
      vertex 2 4.02876 49.1876
      vertex 12 4.26412 49.0517
      vertex 12 4.02876 49.1876
    endloop
  endfacet
  facet normal -0 -0.500041 -0.866002
    outer loop
      vertex 12 4.26412 49.0517
      vertex 2 4.02876 49.1876
      vertex 2 4.26412 49.0517
    endloop
  endfacet
  facet normal 0 -0.309066 -0.951041
    outer loop
      vertex 2 3.77028 49.2716
      vertex 12 4.02876 49.1876
      vertex 12 3.77028 49.2716
    endloop
  endfacet
  facet normal -0 -0.309066 -0.951041
    outer loop
      vertex 12 4.02876 49.1876
      vertex 2 3.77028 49.2716
      vertex 2 4.02876 49.1876
    endloop
  endfacet
  facet normal 0 -0.66902 -0.743245
    outer loop
      vertex 2 4.26412 49.0517
      vertex 12 4.46609 48.8699
      vertex 12 4.26412 49.0517
    endloop
  endfacet
  facet normal -0 -0.66902 -0.743245
    outer loop
      vertex 12 4.46609 48.8699
      vertex 2 4.26412 49.0517
      vertex 2 4.46609 48.8699
    endloop
  endfacet
  facet normal 0 -0.978138 -0.207956
    outer loop
      vertex 2 4.79288 48.1359
      vertex 12 4.73637 48.4017
      vertex 2 4.73637 48.4017
    endloop
  endfacet
  facet normal 0 -0.978138 -0.207956
    outer loop
      vertex 12 4.73637 48.4017
      vertex 2 4.79288 48.1359
      vertex 12 4.79288 48.1359
    endloop
  endfacet
  facet normal 0 -0.309066 0.951041
    outer loop
      vertex 2 4.02876 46.8124
      vertex 12 3.77028 46.7284
      vertex 12 4.02876 46.8124
    endloop
  endfacet
  facet normal 0 -0.309066 0.951041
    outer loop
      vertex 12 3.77028 46.7284
      vertex 2 4.02876 46.8124
      vertex 2 3.77028 46.7284
    endloop
  endfacet
  facet normal 1 0 0
    outer loop
      vertex 2 4.73637 48.4017
      vertex 2 4.79288 47.8641
      vertex 2 4.79288 48.1359
    endloop
  endfacet
  facet normal 1 0 0
    outer loop
      vertex 2 4.73637 48.4017
      vertex 2 4.73637 47.5983
      vertex 2 4.79288 47.8641
    endloop
  endfacet
  facet normal 1 0 0
    outer loop
      vertex 2 4.62583 48.65
      vertex 2 4.73637 47.5983
      vertex 2 4.73637 48.4017
    endloop
  endfacet
  facet normal 1 0 0
    outer loop
      vertex 2 4.62583 48.65
      vertex 2 4.62583 47.35
      vertex 2 4.73637 47.5983
    endloop
  endfacet
  facet normal 1 0 0
    outer loop
      vertex 2 4.46609 48.8699
      vertex 2 4.62583 47.35
      vertex 2 4.62583 48.65
    endloop
  endfacet
  facet normal 1 0 0
    outer loop
      vertex 2 4.46609 48.8699
      vertex 2 4.46609 47.1301
      vertex 2 4.62583 47.35
    endloop
  endfacet
  facet normal 1 0 0
    outer loop
      vertex 2 4.26412 49.0517
      vertex 2 4.46609 47.1301
      vertex 2 4.46609 48.8699
    endloop
  endfacet
  facet normal 1 0 0
    outer loop
      vertex 2 4.26412 49.0517
      vertex 2 4.26412 46.9483
      vertex 2 4.46609 47.1301
    endloop
  endfacet
  facet normal 1 0 0
    outer loop
      vertex 2 4.02876 49.1876
      vertex 2 4.26412 46.9483
      vertex 2 4.26412 49.0517
    endloop
  endfacet
  facet normal 1 0 0
    outer loop
      vertex 2 4.02876 49.1876
      vertex 2 4.02876 46.8124
      vertex 2 4.26412 46.9483
    endloop
  endfacet
  facet normal 1 0 0
    outer loop
      vertex 2 3.77028 49.2716
      vertex 2 4.02876 46.8124
      vertex 2 4.02876 49.1876
    endloop
  endfacet
  facet normal 1 0 0
    outer loop
      vertex 2 3.77028 49.2716
      vertex 2 3.77028 46.7284
      vertex 2 4.02876 46.8124
    endloop
  endfacet
  facet normal 1 0 0
    outer loop
      vertex 2 3.5 49.3
      vertex 2 3.77028 46.7284
      vertex 2 3.77028 49.2716
    endloop
  endfacet
  facet normal 1 0 0
    outer loop
      vertex 2 3.5 49.3
      vertex 2 3.5 46.7
      vertex 2 3.77028 46.7284
    endloop
  endfacet
  facet normal 1 -0 0
    outer loop
      vertex 2 3.22972 49.2716
      vertex 2 3.5 46.7
      vertex 2 3.5 49.3
    endloop
  endfacet
  facet normal 1 0 0
    outer loop
      vertex 2 3.22972 49.2716
      vertex 2 3.22972 46.7284
      vertex 2 3.5 46.7
    endloop
  endfacet
  facet normal 1 -0 0
    outer loop
      vertex 2 2.97124 49.1876
      vertex 2 3.22972 46.7284
      vertex 2 3.22972 49.2716
    endloop
  endfacet
  facet normal 1 0 0
    outer loop
      vertex 2 2.97124 49.1876
      vertex 2 2.97124 46.8124
      vertex 2 3.22972 46.7284
    endloop
  endfacet
  facet normal 1 -0 0
    outer loop
      vertex 2 2.73588 49.0517
      vertex 2 2.97124 46.8124
      vertex 2 2.97124 49.1876
    endloop
  endfacet
  facet normal 1 0 0
    outer loop
      vertex 2 2.73588 49.0517
      vertex 2 2.73588 46.9483
      vertex 2 2.97124 46.8124
    endloop
  endfacet
  facet normal 1 -0 0
    outer loop
      vertex 2 2.53391 48.8699
      vertex 2 2.73588 46.9483
      vertex 2 2.73588 49.0517
    endloop
  endfacet
  facet normal 1 0 0
    outer loop
      vertex 2 2.53391 48.8699
      vertex 2 2.53391 47.1301
      vertex 2 2.73588 46.9483
    endloop
  endfacet
  facet normal 1 -0 0
    outer loop
      vertex 2 2.37417 48.65
      vertex 2 2.53391 47.1301
      vertex 2 2.53391 48.8699
    endloop
  endfacet
  facet normal 1 0 0
    outer loop
      vertex 2 2.37417 48.65
      vertex 2 2.37417 47.35
      vertex 2 2.53391 47.1301
    endloop
  endfacet
  facet normal 1 -0 0
    outer loop
      vertex 2 2.26363 48.4017
      vertex 2 2.37417 47.35
      vertex 2 2.37417 48.65
    endloop
  endfacet
  facet normal 1 0 0
    outer loop
      vertex 2 2.26363 48.4017
      vertex 2 2.26363 47.5983
      vertex 2 2.37417 47.35
    endloop
  endfacet
  facet normal 1 -0 0
    outer loop
      vertex 2 2.20712 48.1359
      vertex 2 2.26363 47.5983
      vertex 2 2.26363 48.4017
    endloop
  endfacet
  facet normal 1 0 0
    outer loop
      vertex 2 2.26363 47.5983
      vertex 2 2.20712 48.1359
      vertex 2 2.20712 47.8641
    endloop
  endfacet
  facet normal 0 -0.809064 0.587721
    outer loop
      vertex 2 4.46609 47.1301
      vertex 12 4.62583 47.35
      vertex 2 4.62583 47.35
    endloop
  endfacet
  facet normal 0 -0.809064 0.587721
    outer loop
      vertex 12 4.62583 47.35
      vertex 2 4.46609 47.1301
      vertex 12 4.46609 47.1301
    endloop
  endfacet
  facet normal 0 -0.978138 0.207956
    outer loop
      vertex 2 4.73637 47.5983
      vertex 12 4.79288 47.8641
      vertex 2 4.79288 47.8641
    endloop
  endfacet
  facet normal 0 -0.978138 0.207956
    outer loop
      vertex 12 4.79288 47.8641
      vertex 2 4.73637 47.5983
      vertex 12 4.73637 47.5983
    endloop
  endfacet
  facet normal 0 0.978138 -0.207956
    outer loop
      vertex 12 2.20712 48.1359
      vertex 2 2.26363 48.4017
      vertex 12 2.26363 48.4017
    endloop
  endfacet
  facet normal 0 0.978138 -0.207956
    outer loop
      vertex 2 2.26363 48.4017
      vertex 12 2.20712 48.1359
      vertex 2 2.20712 48.1359
    endloop
  endfacet
  facet normal 0 0.66902 -0.743245
    outer loop
      vertex 2 2.53391 48.8699
      vertex 12 2.73588 49.0517
      vertex 12 2.53391 48.8699
    endloop
  endfacet
  facet normal 0 0.66902 -0.743245
    outer loop
      vertex 12 2.73588 49.0517
      vertex 2 2.53391 48.8699
      vertex 2 2.73588 49.0517
    endloop
  endfacet
  facet normal 0 0.309066 -0.951041
    outer loop
      vertex 2 2.97124 49.1876
      vertex 12 3.22972 49.2716
      vertex 12 2.97124 49.1876
    endloop
  endfacet
  facet normal 0 0.309066 -0.951041
    outer loop
      vertex 12 3.22972 49.2716
      vertex 2 2.97124 49.1876
      vertex 2 3.22972 49.2716
    endloop
  endfacet
  facet normal 0 0.104501 -0.994525
    outer loop
      vertex 2 3.22972 49.2716
      vertex 12 3.5 49.3
      vertex 12 3.22972 49.2716
    endloop
  endfacet
  facet normal 0 0.104501 -0.994525
    outer loop
      vertex 12 3.5 49.3
      vertex 2 3.22972 49.2716
      vertex 2 3.5 49.3
    endloop
  endfacet
  facet normal -0 0.500041 0.866002
    outer loop
      vertex 2 2.97124 46.8124
      vertex 12 2.73588 46.9483
      vertex 12 2.97124 46.8124
    endloop
  endfacet
  facet normal 0 0.500041 0.866002
    outer loop
      vertex 12 2.73588 46.9483
      vertex 2 2.97124 46.8124
      vertex 2 2.73588 46.9483
    endloop
  endfacet
  facet normal -0 0.104501 0.994525
    outer loop
      vertex 2 3.5 46.7
      vertex 12 3.22972 46.7284
      vertex 12 3.5 46.7
    endloop
  endfacet
  facet normal 0 0.104501 0.994525
    outer loop
      vertex 12 3.22972 46.7284
      vertex 2 3.5 46.7
      vertex 2 3.22972 46.7284
    endloop
  endfacet
  facet normal 0 0.809064 -0.587721
    outer loop
      vertex 12 2.37417 48.65
      vertex 2 2.53391 48.8699
      vertex 12 2.53391 48.8699
    endloop
  endfacet
  facet normal 0 0.809064 -0.587721
    outer loop
      vertex 2 2.53391 48.8699
      vertex 12 2.37417 48.65
      vertex 2 2.37417 48.65
    endloop
  endfacet
  facet normal 0 0.91356 -0.406705
    outer loop
      vertex 12 2.26363 48.4017
      vertex 2 2.37417 48.65
      vertex 12 2.37417 48.65
    endloop
  endfacet
  facet normal 0 0.91356 -0.406705
    outer loop
      vertex 2 2.37417 48.65
      vertex 12 2.26363 48.4017
      vertex 2 2.26363 48.4017
    endloop
  endfacet
  facet normal 0 0.91356 0.406705
    outer loop
      vertex 12 2.37417 47.35
      vertex 2 2.26363 47.5983
      vertex 12 2.26363 47.5983
    endloop
  endfacet
  facet normal 0 0.91356 0.406705
    outer loop
      vertex 2 2.26363 47.5983
      vertex 12 2.37417 47.35
      vertex 2 2.37417 47.35
    endloop
  endfacet
  facet normal -0 0.66902 0.743245
    outer loop
      vertex 2 2.73588 46.9483
      vertex 12 2.53391 47.1301
      vertex 12 2.73588 46.9483
    endloop
  endfacet
  facet normal 0 0.66902 0.743245
    outer loop
      vertex 12 2.53391 47.1301
      vertex 2 2.73588 46.9483
      vertex 2 2.53391 47.1301
    endloop
  endfacet
  facet normal -0 0.309066 0.951041
    outer loop
      vertex 2 3.22972 46.7284
      vertex 12 2.97124 46.8124
      vertex 12 3.22972 46.7284
    endloop
  endfacet
  facet normal 0 0.309066 0.951041
    outer loop
      vertex 12 2.97124 46.8124
      vertex 2 3.22972 46.7284
      vertex 2 2.97124 46.8124
    endloop
  endfacet
  facet normal 0 0.809064 0.587721
    outer loop
      vertex 12 2.53391 47.1301
      vertex 2 2.37417 47.35
      vertex 12 2.37417 47.35
    endloop
  endfacet
  facet normal 0 0.809064 0.587721
    outer loop
      vertex 2 2.37417 47.35
      vertex 12 2.53391 47.1301
      vertex 2 2.53391 47.1301
    endloop
  endfacet
  facet normal 0 0.978138 0.207956
    outer loop
      vertex 12 2.26363 47.5983
      vertex 2 2.20712 47.8641
      vertex 12 2.20712 47.8641
    endloop
  endfacet
  facet normal 0 0.978138 0.207956
    outer loop
      vertex 2 2.20712 47.8641
      vertex 12 2.26363 47.5983
      vertex 2 2.26363 47.5983
    endloop
  endfacet
  facet normal -1 0 0
    outer loop
      vertex 0 0 0
      vertex 0 7 100.5
      vertex 0 7 0
    endloop
  endfacet
  facet normal -1 -0 0
    outer loop
      vertex 0 7 100.5
      vertex 0 0 0
      vertex 0 0 100.5
    endloop
  endfacet
  facet normal 1 -0 0
    outer loop
      vertex 12 4.73637 47.5983
      vertex 12 4.79288 22.1359
      vertex 12 4.79288 47.8641
    endloop
  endfacet
  facet normal 1 0 0
    outer loop
      vertex 12 4.73637 47.5983
      vertex 12 4.73637 22.4017
      vertex 12 4.79288 22.1359
    endloop
  endfacet
  facet normal 1 -0 0
    outer loop
      vertex 12 4.62583 47.35
      vertex 12 4.73637 22.4017
      vertex 12 4.73637 47.5983
    endloop
  endfacet
  facet normal 1 0 0
    outer loop
      vertex 12 4.62583 47.35
      vertex 12 4.62583 22.65
      vertex 12 4.73637 22.4017
    endloop
  endfacet
  facet normal 1 -0 0
    outer loop
      vertex 12 4.46609 47.1301
      vertex 12 4.62583 22.65
      vertex 12 4.62583 47.35
    endloop
  endfacet
  facet normal 1 0 0
    outer loop
      vertex 12 4.46609 47.1301
      vertex 12 4.46609 22.8699
      vertex 12 4.62583 22.65
    endloop
  endfacet
  facet normal 1 -0 0
    outer loop
      vertex 12 4.26412 46.9483
      vertex 12 4.46609 22.8699
      vertex 12 4.46609 47.1301
    endloop
  endfacet
  facet normal 1 0 0
    outer loop
      vertex 12 4.26412 46.9483
      vertex 12 4.26412 23.0517
      vertex 12 4.46609 22.8699
    endloop
  endfacet
  facet normal 1 -0 0
    outer loop
      vertex 12 4.02876 46.8124
      vertex 12 4.26412 23.0517
      vertex 12 4.26412 46.9483
    endloop
  endfacet
  facet normal 1 0 0
    outer loop
      vertex 12 4.02876 46.8124
      vertex 12 4.02876 23.1876
      vertex 12 4.26412 23.0517
    endloop
  endfacet
  facet normal 1 -0 0
    outer loop
      vertex 12 3.77028 46.7284
      vertex 12 4.02876 23.1876
      vertex 12 4.02876 46.8124
    endloop
  endfacet
  facet normal 1 0 0
    outer loop
      vertex 12 3.77028 46.7284
      vertex 12 3.77028 23.2716
      vertex 12 4.02876 23.1876
    endloop
  endfacet
  facet normal 1 -0 0
    outer loop
      vertex 12 3.5 46.7
      vertex 12 3.77028 23.2716
      vertex 12 3.77028 46.7284
    endloop
  endfacet
  facet normal 1 0 0
    outer loop
      vertex 12 3.5 46.7
      vertex 12 3.5 23.3
      vertex 12 3.77028 23.2716
    endloop
  endfacet
  facet normal 1 0 0
    outer loop
      vertex 12 3.22972 46.7284
      vertex 12 3.5 23.3
      vertex 12 3.5 46.7
    endloop
  endfacet
  facet normal 1 0 0
    outer loop
      vertex 12 3.22972 46.7284
      vertex 12 3.22972 23.2716
      vertex 12 3.5 23.3
    endloop
  endfacet
  facet normal 1 0 0
    outer loop
      vertex 12 2.97124 46.8124
      vertex 12 3.22972 23.2716
      vertex 12 3.22972 46.7284
    endloop
  endfacet
  facet normal 1 0 0
    outer loop
      vertex 12 2.97124 46.8124
      vertex 12 2.97124 23.1876
      vertex 12 3.22972 23.2716
    endloop
  endfacet
  facet normal 1 0 0
    outer loop
      vertex 12 2.73588 46.9483
      vertex 12 2.97124 23.1876
      vertex 12 2.97124 46.8124
    endloop
  endfacet
  facet normal 1 0 0
    outer loop
      vertex 12 2.73588 46.9483
      vertex 12 2.73588 23.0517
      vertex 12 2.97124 23.1876
    endloop
  endfacet
  facet normal 1 0 0
    outer loop
      vertex 12 2.53391 47.1301
      vertex 12 2.73588 23.0517
      vertex 12 2.73588 46.9483
    endloop
  endfacet
  facet normal 1 0 0
    outer loop
      vertex 12 2.53391 47.1301
      vertex 12 2.53391 22.8699
      vertex 12 2.73588 23.0517
    endloop
  endfacet
  facet normal 1 0 0
    outer loop
      vertex 12 2.37417 47.35
      vertex 12 2.53391 22.8699
      vertex 12 2.53391 47.1301
    endloop
  endfacet
  facet normal 1 0 0
    outer loop
      vertex 12 2.37417 47.35
      vertex 12 2.37417 22.65
      vertex 12 2.53391 22.8699
    endloop
  endfacet
  facet normal 1 0 0
    outer loop
      vertex 12 2.26363 47.5983
      vertex 12 2.37417 22.65
      vertex 12 2.37417 47.35
    endloop
  endfacet
  facet normal 1 0 0
    outer loop
      vertex 12 2.26363 47.5983
      vertex 12 2.26363 22.4017
      vertex 12 2.37417 22.65
    endloop
  endfacet
  facet normal 1 0 0
    outer loop
      vertex 12 2.20712 47.8641
      vertex 12 2.26363 22.4017
      vertex 12 2.26363 47.5983
    endloop
  endfacet
  facet normal 1 0 0
    outer loop
      vertex 12 2.26363 22.4017
      vertex 12 2.20712 47.8641
      vertex 12 2.20712 22.1359
    endloop
  endfacet
  facet normal 1 0 0
    outer loop
      vertex 12 7 98.6603
      vertex 12 4.79288 48.1359
      vertex 12 7 12
    endloop
  endfacet
  facet normal 1 0 0
    outer loop
      vertex 12 7 98.6603
      vertex 12 4.73637 48.4017
      vertex 12 4.79288 48.1359
    endloop
  endfacet
  facet normal 1 0 0
    outer loop
      vertex 12 7 98.6603
      vertex 12 4.62583 48.65
      vertex 12 4.73637 48.4017
    endloop
  endfacet
  facet normal 1 0 0
    outer loop
      vertex 12 7 98.6603
      vertex 12 4.46609 48.8699
      vertex 12 4.62583 48.65
    endloop
  endfacet
  facet normal 1 0 0
    outer loop
      vertex 12 7 98.6603
      vertex 12 4.26412 49.0517
      vertex 12 4.46609 48.8699
    endloop
  endfacet
  facet normal 1 0 0
    outer loop
      vertex 12 7 98.6603
      vertex 12 4.02876 49.1876
      vertex 12 4.26412 49.0517
    endloop
  endfacet
  facet normal 1 0 0
    outer loop
      vertex 12 7 98.6603
      vertex 12 3.77028 49.2716
      vertex 12 4.02876 49.1876
    endloop
  endfacet
  facet normal 1 0 0
    outer loop
      vertex 12 7 98.6603
      vertex 12 3.5 49.3
      vertex 12 3.77028 49.2716
    endloop
  endfacet
  facet normal 1 -0 0
    outer loop
      vertex 12 0 98.6603
      vertex 12 3.5 49.3
      vertex 12 7 98.6603
    endloop
  endfacet
  facet normal 1 0 0
    outer loop
      vertex 12 3.5 49.3
      vertex 12 0 98.6603
      vertex 12 3.22972 49.2716
    endloop
  endfacet
  facet normal 1 0 0
    outer loop
      vertex 12 3.22972 49.2716
      vertex 12 0 98.6603
      vertex 12 2.97124 49.1876
    endloop
  endfacet
  facet normal 1 0 0
    outer loop
      vertex 12 2.97124 49.1876
      vertex 12 0 98.6603
      vertex 12 2.73588 49.0517
    endloop
  endfacet
  facet normal 1 0 0
    outer loop
      vertex 12 2.73588 49.0517
      vertex 12 0 98.6603
      vertex 12 2.53391 48.8699
    endloop
  endfacet
  facet normal 1 0 0
    outer loop
      vertex 12 2.53391 48.8699
      vertex 12 0 98.6603
      vertex 12 2.37417 48.65
    endloop
  endfacet
  facet normal 1 0 0
    outer loop
      vertex 12 2.37417 48.65
      vertex 12 0 98.6603
      vertex 12 2.26363 48.4017
    endloop
  endfacet
  facet normal 1 0 0
    outer loop
      vertex 12 0 12
      vertex 12 2.20712 47.8641
      vertex 12 2.20712 48.1359
    endloop
  endfacet
  facet normal 1 0 0
    outer loop
      vertex 12 2.20712 47.8641
      vertex 12 0 12
      vertex 12 2.20712 22.1359
    endloop
  endfacet
  facet normal 1 0 0
    outer loop
      vertex 12 0 12
      vertex 12 2.20712 48.1359
      vertex 12 0 98.6603
    endloop
  endfacet
  facet normal 1 0 0
    outer loop
      vertex 12 2.26363 48.4017
      vertex 12 0 98.6603
      vertex 12 2.20712 48.1359
    endloop
  endfacet
  facet normal 1 -0 0
    outer loop
      vertex 12 4.79288 47.8641
      vertex 12 7 12
      vertex 12 4.79288 48.1359
    endloop
  endfacet
  facet normal 1 -0 0
    outer loop
      vertex 12 4.79288 22.1359
      vertex 12 7 12
      vertex 12 4.79288 47.8641
    endloop
  endfacet
  facet normal 1 -0 0
    outer loop
      vertex 12 4.79288 21.8641
      vertex 12 7 12
      vertex 12 4.79288 22.1359
    endloop
  endfacet
  facet normal 1 -0 0
    outer loop
      vertex 12 4.73637 21.5983
      vertex 12 7 12
      vertex 12 4.79288 21.8641
    endloop
  endfacet
  facet normal 1 -0 0
    outer loop
      vertex 12 4.62583 21.35
      vertex 12 7 12
      vertex 12 4.73637 21.5983
    endloop
  endfacet
  facet normal 1 -0 0
    outer loop
      vertex 12 4.46609 21.1301
      vertex 12 7 12
      vertex 12 4.62583 21.35
    endloop
  endfacet
  facet normal 1 -0 0
    outer loop
      vertex 12 4.26412 20.9483
      vertex 12 7 12
      vertex 12 4.46609 21.1301
    endloop
  endfacet
  facet normal 1 -0 0
    outer loop
      vertex 12 4.02876 20.8124
      vertex 12 7 12
      vertex 12 4.26412 20.9483
    endloop
  endfacet
  facet normal 1 -0 0
    outer loop
      vertex 12 3.77028 20.7284
      vertex 12 7 12
      vertex 12 4.02876 20.8124
    endloop
  endfacet
  facet normal 1 -0 0
    outer loop
      vertex 12 3.5 20.7
      vertex 12 7 12
      vertex 12 3.77028 20.7284
    endloop
  endfacet
  facet normal 1 0 0
    outer loop
      vertex 12 0 12
      vertex 12 3.5 20.7
      vertex 12 3.22972 20.7284
    endloop
  endfacet
  facet normal 1 0 0
    outer loop
      vertex 12 0 12
      vertex 12 3.22972 20.7284
      vertex 12 2.97124 20.8124
    endloop
  endfacet
  facet normal 1 0 0
    outer loop
      vertex 12 0 12
      vertex 12 2.97124 20.8124
      vertex 12 2.73588 20.9483
    endloop
  endfacet
  facet normal 1 0 0
    outer loop
      vertex 12 0 12
      vertex 12 2.73588 20.9483
      vertex 12 2.53391 21.1301
    endloop
  endfacet
  facet normal 1 0 0
    outer loop
      vertex 12 0 12
      vertex 12 2.53391 21.1301
      vertex 12 2.37417 21.35
    endloop
  endfacet
  facet normal 1 0 0
    outer loop
      vertex 12 3.5 20.7
      vertex 12 0 12
      vertex 12 7 12
    endloop
  endfacet
  facet normal 1 0 0
    outer loop
      vertex 12 2.26363 21.5983
      vertex 12 0 12
      vertex 12 2.37417 21.35
    endloop
  endfacet
  facet normal 1 0 0
    outer loop
      vertex 12 2.20712 21.8641
      vertex 12 0 12
      vertex 12 2.26363 21.5983
    endloop
  endfacet
  facet normal 1 0 0
    outer loop
      vertex 12 2.20712 22.1359
      vertex 12 0 12
      vertex 12 2.20712 21.8641
    endloop
  endfacet
  facet normal 0 1 0
    outer loop
      vertex 74.4782 7 12
      vertex 49.2391 7 6
      vertex 49.2391 7 12
    endloop
  endfacet
  facet normal 0 1 0
    outer loop
      vertex 49.2391 7 6
      vertex 74.4782 7 0
      vertex 37.2391 7 6
    endloop
  endfacet
  facet normal 0 1 -0
    outer loop
      vertex 74.4782 7 0
      vertex 49.2391 7 6
      vertex 74.4782 7 12
    endloop
  endfacet
  facet normal 0 1 0
    outer loop
      vertex 37.2391 7 12
      vertex 37.2391 7 6
      vertex 12 7 12
    endloop
  endfacet
  facet normal 0 1 0
    outer loop
      vertex 12 7 98.6603
      vertex 17 7 117.321
      vertex 21.3301 7 114.821
    endloop
  endfacet
  facet normal 0 1 0
    outer loop
      vertex 17 7 117.321
      vertex 12 7 98.6603
      vertex 0 7 100.5
    endloop
  endfacet
  facet normal 0 1 -0
    outer loop
      vertex 12 7 12
      vertex 0 7 100.5
      vertex 12 7 98.6603
    endloop
  endfacet
  facet normal 0 1 0
    outer loop
      vertex 12 7 12
      vertex 0 7 0
      vertex 0 7 100.5
    endloop
  endfacet
  facet normal 0 1 0
    outer loop
      vertex 37.2391 7 6
      vertex 0 7 0
      vertex 12 7 12
    endloop
  endfacet
  facet normal 0 1 0
    outer loop
      vertex 0 7 0
      vertex 37.2391 7 6
      vertex 74.4782 7 0
    endloop
  endfacet
  facet normal 0 0 -1
    outer loop
      vertex 0 0 0
      vertex 74.4782 7 0
      vertex 74.4782 0 0
    endloop
  endfacet
  facet normal -0 0 -1
    outer loop
      vertex 74.4782 7 0
      vertex 0 0 0
      vertex 0 7 0
    endloop
  endfacet
  facet normal 0 -1 0
    outer loop
      vertex 12 0 98.6603
      vertex 17 0 117.321
      vertex 0 0 100.5
    endloop
  endfacet
  facet normal 0 -1 -0
    outer loop
      vertex 17 0 117.321
      vertex 12 0 98.6603
      vertex 21.3301 0 114.821
    endloop
  endfacet
  facet normal 0 -1 0
    outer loop
      vertex 0 0 100.5
      vertex 12 0 12
      vertex 12 0 98.6603
    endloop
  endfacet
  facet normal 0 -1 0
    outer loop
      vertex 12 0 12
      vertex 37.2391 0 6
      vertex 37.2391 0 12
    endloop
  endfacet
  facet normal 0 -1 0
    outer loop
      vertex 74.4782 0 0
      vertex 37.2391 0 6
      vertex 0 0 0
    endloop
  endfacet
  facet normal 0 -1 -0
    outer loop
      vertex 12 0 12
      vertex 0 0 0
      vertex 37.2391 0 6
    endloop
  endfacet
  facet normal 0 -1 0
    outer loop
      vertex 0 0 0
      vertex 12 0 12
      vertex 0 0 100.5
    endloop
  endfacet
  facet normal 0 -1 0
    outer loop
      vertex 49.2391 0 6
      vertex 74.4782 0 12
      vertex 49.2391 0 12
    endloop
  endfacet
  facet normal 0 -1 0
    outer loop
      vertex 49.2391 0 6
      vertex 74.4782 0 0
      vertex 74.4782 0 12
    endloop
  endfacet
  facet normal 0 -1 0
    outer loop
      vertex 37.2391 0 6
      vertex 74.4782 0 0
      vertex 49.2391 0 6
    endloop
  endfacet
  facet normal 0.865922 0.00102524 -0.500178
    outer loop
      vertex 18.1538 5.48904 109.319
      vertex 21.3301 7 114.821
      vertex 18.3629 5.48904 109.681
    endloop
  endfacet
  facet normal 0.866448 -0.0031397 -0.499257
    outer loop
      vertex 21.3301 7 114.821
      vertex 18.4515 5.45137 109.835
      vertex 18.3629 5.48904 109.681
    endloop
  endfacet
  facet normal 0.86568 0.0025858 -0.500592
    outer loop
      vertex 21.3301 7 114.821
      vertex 18.5673 5.40211 110.035
      vertex 18.4515 5.45137 109.835
    endloop
  endfacet
  facet normal 0.866234 -0.00123129 -0.499637
    outer loop
      vertex 21.3301 7 114.821
      vertex 18.6756 5.30574 110.223
      vertex 18.5673 5.40211 110.035
    endloop
  endfacet
  facet normal 0.865881 0.000985076 -0.50025
    outer loop
      vertex 21.3301 7 114.821
      vertex 18.7583 5.23205 110.366
      vertex 18.6756 5.30574 110.223
    endloop
  endfacet
  facet normal 0.866027 0.000133485 -0.499997
    outer loop
      vertex 21.3301 7 114.821
      vertex 18.9275 4.98629 110.659
      vertex 18.7583 5.23205 110.366
    endloop
  endfacet
  facet normal 0.866068 -6.26112e-05 -0.499925
    outer loop
      vertex 21.3301 7 114.821
      vertex 18.9881 4.85164 110.764
      vertex 18.9275 4.98629 110.659
    endloop
  endfacet
  facet normal 0.865963 0.000395274 -0.500107
    outer loop
      vertex 21.3301 7 114.821
      vertex 19.0673 4.67557 110.901
      vertex 18.9881 4.85164 110.764
    endloop
  endfacet
  facet normal 0.866009 0.000218931 -0.500029
    outer loop
      vertex 21.3301 7 114.821
      vertex 19.1719 4.31347 111.082
      vertex 19.0673 4.67557 110.901
    endloop
  endfacet
  facet normal 0.866416 -0.001091 -0.499323
    outer loop
      vertex 21.3301 7 114.821
      vertex 19.2085 4.08814 111.146
      vertex 19.1719 4.31347 111.082
    endloop
  endfacet
  facet normal 0.865633 0.00119054 -0.500678
    outer loop
      vertex 21.3301 7 114.821
      vertex 19.2365 3.91582 111.194
      vertex 19.2085 4.08814 111.146
    endloop
  endfacet
  facet normal 0.866168 -0.000260163 -0.499754
    outer loop
      vertex 21.3301 7 114.821
      vertex 19.2583 3.5 111.232
      vertex 19.2365 3.91582 111.194
    endloop
  endfacet
  facet normal 0.866058 0 -0.499944
    outer loop
      vertex 21.3301 0 114.821
      vertex 19.2583 3.5 111.232
      vertex 21.3301 7 114.821
    endloop
  endfacet
  facet normal 0.866168 0.000260163 -0.499754
    outer loop
      vertex 19.2583 3.5 111.232
      vertex 21.3301 0 114.821
      vertex 19.2365 3.08418 111.194
    endloop
  endfacet
  facet normal 0.865633 -0.00119054 -0.500678
    outer loop
      vertex 19.2365 3.08418 111.194
      vertex 21.3301 0 114.821
      vertex 19.2085 2.91186 111.146
    endloop
  endfacet
  facet normal 0.866416 0.001091 -0.499323
    outer loop
      vertex 19.2085 2.91186 111.146
      vertex 21.3301 0 114.821
      vertex 19.1719 2.68653 111.082
    endloop
  endfacet
  facet normal 0.866009 -0.000218931 -0.500029
    outer loop
      vertex 19.1719 2.68653 111.082
      vertex 21.3301 0 114.821
      vertex 19.0673 2.32443 110.901
    endloop
  endfacet
  facet normal 0.865963 -0.000395258 -0.500107
    outer loop
      vertex 19.0673 2.32443 110.901
      vertex 21.3301 0 114.821
      vertex 18.9881 2.14835 110.764
    endloop
  endfacet
  facet normal 0.865881 -0.000985076 -0.50025
    outer loop
      vertex 21.3301 0 114.821
      vertex 18.6756 1.69426 110.223
      vertex 18.7583 1.76795 110.366
    endloop
  endfacet
  facet normal 0.86568 -0.0025858 -0.500592
    outer loop
      vertex 21.3301 0 114.821
      vertex 18.4515 1.54863 109.835
      vertex 18.5673 1.59789 110.035
    endloop
  endfacet
  facet normal 0.865922 -0.00102524 -0.500178
    outer loop
      vertex 18.3629 1.51096 109.681
      vertex 21.3301 0 114.821
      vertex 18.1538 1.51096 109.319
    endloop
  endfacet
  facet normal 0.866448 0.0031397 -0.499257
    outer loop
      vertex 18.4515 1.54863 109.835
      vertex 21.3301 0 114.821
      vertex 18.3629 1.51096 109.681
    endloop
  endfacet
  facet normal 0.866234 0.00123129 -0.499637
    outer loop
      vertex 18.6756 1.69426 110.223
      vertex 21.3301 0 114.821
      vertex 18.5673 1.59789 110.035
    endloop
  endfacet
  facet normal 0.866027 -0.000133485 -0.499997
    outer loop
      vertex 18.9275 2.01371 110.659
      vertex 21.3301 0 114.821
      vertex 18.7583 1.76795 110.366
    endloop
  endfacet
  facet normal 0.866068 6.26146e-05 -0.499925
    outer loop
      vertex 18.9881 2.14835 110.764
      vertex 21.3301 0 114.821
      vertex 18.9275 2.01371 110.659
    endloop
  endfacet
  facet normal 0.866032 0.000105648 -0.499989
    outer loop
      vertex 21.3301 7 114.821
      vertex 18.1538 5.48904 109.319
      vertex 12 7 98.6603
    endloop
  endfacet
  facet normal 0.866295 0.00454098 -0.499512
    outer loop
      vertex 18.0652 5.45137 109.165
      vertex 12 7 98.6603
      vertex 18.1538 5.48904 109.319
    endloop
  endfacet
  facet normal 0.865707 -0.00466217 -0.500529
    outer loop
      vertex 17.9493 5.40211 108.965
      vertex 12 7 98.6603
      vertex 18.0652 5.45137 109.165
    endloop
  endfacet
  facet normal 0.866056 0.00038745 -0.499947
    outer loop
      vertex 17.7583 5.23205 108.634
      vertex 12 7 98.6603
      vertex 17.9493 5.40211 108.965
    endloop
  endfacet
  facet normal 0.866042 0.000204535 -0.499972
    outer loop
      vertex 17.6625 5.09279 108.468
      vertex 12 7 98.6603
      vertex 17.7583 5.23205 108.634
    endloop
  endfacet
  facet normal 0.866038 0.000156881 -0.499979
    outer loop
      vertex 17.5892 4.98629 108.341
      vertex 12 7 98.6603
      vertex 17.6625 5.09279 108.468
    endloop
  endfacet
  facet normal 0.866035 0.000123239 -0.499984
    outer loop
      vertex 17.5286 4.85164 108.236
      vertex 12 7 98.6603
      vertex 17.5892 4.98629 108.341
    endloop
  endfacet
  facet normal 0.86594 -0.00084604 -0.500147
    outer loop
      vertex 17.4493 4.67557 108.099
      vertex 12 7 98.6603
      vertex 17.5286 4.85164 108.236
    endloop
  endfacet
  facet normal 0.86603 -4.70414e-06 -0.499992
    outer loop
      vertex 17.3448 4.31347 107.918
      vertex 12 7 98.6603
      vertex 17.4493 4.67557 108.099
    endloop
  endfacet
  facet normal 0.866186 0.00124113 -0.49972
    outer loop
      vertex 17.3082 4.08814 107.854
      vertex 12 7 98.6603
      vertex 17.3448 4.31347 107.918
    endloop
  endfacet
  facet normal 0.865835 -0.00132083 -0.500328
    outer loop
      vertex 17.2802 3.91582 107.806
      vertex 12 7 98.6603
      vertex 17.3082 4.08814 107.854
    endloop
  endfacet
  facet normal 0.866242 0.00146679 -0.499623
    outer loop
      vertex 17.2707 3.73563 107.789
      vertex 12 7 98.6603
      vertex 17.2802 3.91582 107.806
    endloop
  endfacet
  facet normal 0.865863 -0.000979632 -0.50028
    outer loop
      vertex 17.2583 3.5 107.768
      vertex 12 7 98.6603
      vertex 17.2707 3.73563 107.789
    endloop
  endfacet
  facet normal 0.865863 0.000979632 -0.50028
    outer loop
      vertex 12 0 98.6603
      vertex 17.2583 3.5 107.768
      vertex 17.2707 3.26437 107.789
    endloop
  endfacet
  facet normal 0.866242 -0.00146679 -0.499623
    outer loop
      vertex 12 0 98.6603
      vertex 17.2707 3.26437 107.789
      vertex 17.2802 3.08418 107.806
    endloop
  endfacet
  facet normal 0.865835 0.00132083 -0.500328
    outer loop
      vertex 12 0 98.6603
      vertex 17.2802 3.08418 107.806
      vertex 17.3082 2.91186 107.854
    endloop
  endfacet
  facet normal 0.866186 -0.00124113 -0.49972
    outer loop
      vertex 12 0 98.6603
      vertex 17.3082 2.91186 107.854
      vertex 17.3448 2.68653 107.918
    endloop
  endfacet
  facet normal 0.86603 4.70414e-06 -0.499992
    outer loop
      vertex 12 0 98.6603
      vertex 17.3448 2.68653 107.918
      vertex 17.4493 2.32443 108.099
    endloop
  endfacet
  facet normal 0.86594 0.000846 -0.500147
    outer loop
      vertex 12 0 98.6603
      vertex 17.4493 2.32443 108.099
      vertex 17.5286 2.14835 108.236
    endloop
  endfacet
  facet normal 0.866035 -0.000123246 -0.499984
    outer loop
      vertex 12 0 98.6603
      vertex 17.5286 2.14835 108.236
      vertex 17.5892 2.01371 108.341
    endloop
  endfacet
  facet normal 0.866038 -0.000156881 -0.499979
    outer loop
      vertex 12 0 98.6603
      vertex 17.5892 2.01371 108.341
      vertex 17.6625 1.90721 108.468
    endloop
  endfacet
  facet normal 0.866042 -0.000204535 -0.499972
    outer loop
      vertex 12 0 98.6603
      vertex 17.6625 1.90721 108.468
      vertex 17.7583 1.76795 108.634
    endloop
  endfacet
  facet normal 0.866295 -0.00454098 -0.499512
    outer loop
      vertex 12 0 98.6603
      vertex 18.0652 1.54863 109.165
      vertex 18.1538 1.51096 109.319
    endloop
  endfacet
  facet normal 0.866032 -0.000105648 -0.499989
    outer loop
      vertex 12 0 98.6603
      vertex 18.1538 1.51096 109.319
      vertex 21.3301 0 114.821
    endloop
  endfacet
  facet normal 0.866027 0 -0.499998
    outer loop
      vertex 17.2583 3.5 107.768
      vertex 12 0 98.6603
      vertex 12 7 98.6603
    endloop
  endfacet
  facet normal 0.866056 -0.00038745 -0.499947
    outer loop
      vertex 17.9493 1.59789 108.965
      vertex 12 0 98.6603
      vertex 17.7583 1.76795 108.634
    endloop
  endfacet
  facet normal 0.865707 0.00466217 -0.500529
    outer loop
      vertex 18.0652 1.54863 109.165
      vertex 12 0 98.6603
      vertex 17.9493 1.59789 108.965
    endloop
  endfacet
  facet normal -0.703396 0 0.710798
    outer loop
      vertex 17 7 117.321
      vertex 13.9462 3.5 114.299
      vertex 17 0 117.321
    endloop
  endfacet
  facet normal -0.703519 0.000212401 0.710676
    outer loop
      vertex 17 7 117.321
      vertex 13.914 3.91582 114.267
      vertex 13.9462 3.5 114.299
    endloop
  endfacet
  facet normal -0.701888 -0.00300899 0.712281
    outer loop
      vertex 17 7 117.321
      vertex 13.8923 4.00657 114.246
      vertex 13.914 3.91582 114.267
    endloop
  endfacet
  facet normal -0.703607 0.000514339 0.710589
    outer loop
      vertex 17 7 117.321
      vertex 13.8188 4.31347 114.173
      vertex 13.8923 4.00657 114.246
    endloop
  endfacet
  facet normal -0.703701 0.000733588 0.710496
    outer loop
      vertex 17 7 117.321
      vertex 13.6647 4.67557 114.02
      vertex 13.8188 4.31347 114.173
    endloop
  endfacet
  facet normal -0.703121 -0.000913919 0.71107
    outer loop
      vertex 17 7 117.321
      vertex 13.5046 4.91687 113.862
      vertex 13.6647 4.67557 114.02
    endloop
  endfacet
  facet normal -0.704231 0.00278487 0.709965
    outer loop
      vertex 17 7 117.321
      vertex 13.4585 4.98629 113.816
      vertex 13.5046 4.91687 113.862
    endloop
  endfacet
  facet normal -0.703101 -0.00115926 0.711089
    outer loop
      vertex 17 7 117.321
      vertex 13.2093 5.23205 113.57
      vertex 13.4585 4.98629 113.816
    endloop
  endfacet
  facet normal -0.703238 -0.000579563 0.710954
    outer loop
      vertex 17 7 117.321
      vertex 13.1476 5.26929 113.509
      vertex 13.2093 5.23205 113.57
    endloop
  endfacet
  facet normal -0.703721 0.00154952 0.710475
    outer loop
      vertex 17 7 117.321
      vertex 12.9278 5.40211 113.291
      vertex 13.1476 5.26929 113.509
    endloop
  endfacet
  facet normal -0.702762 -0.00326886 0.711417
    outer loop
      vertex 17 7 117.321
      vertex 12.6906 5.4705 113.057
      vertex 12.9278 5.40211 113.291
    endloop
  endfacet
  facet normal -0.704498 0.00647552 0.709676
    outer loop
      vertex 17 7 117.321
      vertex 12.6263 5.48904 112.993
      vertex 12.6906 5.4705 113.057
    endloop
  endfacet
  facet normal -0.703522 0.000796427 0.710673
    outer loop
      vertex 17 7 117.321
      vertex 12.3182 5.48904 112.688
      vertex 12.6263 5.48904 112.993
    endloop
  endfacet
  facet normal -0.703354 -0.000233628 0.710839
    outer loop
      vertex 0 7 100.5
      vertex 12.3182 5.48904 112.688
      vertex 17 7 117.321
    endloop
  endfacet
  facet normal -0.703276 0.00102876 0.710916
    outer loop
      vertex 12.3182 5.48904 112.688
      vertex 0 7 100.5
      vertex 12.2555 5.47097 112.626
    endloop
  endfacet
  facet normal -0.703915 -0.00651575 0.710255
    outer loop
      vertex 0 7 100.5
      vertex 11.4452 4.92479 111.824
      vertex 11.486 4.98629 111.865
    endloop
  endfacet
  facet normal -0.70343 -0.00056812 0.710765
    outer loop
      vertex 11.0243 3.83569 111.408
      vertex 0 7 100.5
      vertex 10.9983 3.5 111.382
    endloop
  endfacet
  facet normal -0.703177 0.00116834 0.711014
    outer loop
      vertex 11.0305 3.91582 111.414
      vertex 0 7 100.5
      vertex 11.0243 3.83569 111.408
    endloop
  endfacet
  facet normal -0.703089 0.00178582 0.711099
    outer loop
      vertex 11.0489 3.99257 111.432
      vertex 0 7 100.5
      vertex 11.0305 3.91582 111.414
    endloop
  endfacet
  facet normal -0.70334 -2.6126e-05 0.710854
    outer loop
      vertex 11.1257 4.31347 111.508
      vertex 0 7 100.5
      vertex 11.0489 3.99257 111.432
    endloop
  endfacet
  facet normal -0.703452 -0.000943788 0.710743
    outer loop
      vertex 11.2798 4.67557 111.661
      vertex 0 7 100.5
      vertex 11.1257 4.31347 111.508
    endloop
  endfacet
  facet normal -0.703181 0.00165136 0.711009
    outer loop
      vertex 11.4452 4.92479 111.824
      vertex 0 7 100.5
      vertex 11.2798 4.67557 111.661
    endloop
  endfacet
  facet normal -0.703268 0.000956265 0.710925
    outer loop
      vertex 11.5356 5.0352 111.914
      vertex 0 7 100.5
      vertex 11.486 4.98629 111.865
    endloop
  endfacet
  facet normal -0.703191 0.00183215 0.710998
    outer loop
      vertex 11.7353 5.23205 112.111
      vertex 0 7 100.5
      vertex 11.5356 5.0352 111.914
    endloop
  endfacet
  facet normal -0.703454 -0.00161116 0.710739
    outer loop
      vertex 12.0168 5.40211 112.39
      vertex 0 7 100.5
      vertex 11.7353 5.23205 112.111
    endloop
  endfacet
  facet normal -0.70326 0.00128097 0.710932
    outer loop
      vertex 12.2555 5.47097 112.626
      vertex 0 7 100.5
      vertex 12.0168 5.40211 112.39
    endloop
  endfacet
  facet normal -0.703519 -0.000212401 0.710676
    outer loop
      vertex 13.914 3.08418 114.267
      vertex 17 0 117.321
      vertex 13.9462 3.5 114.299
    endloop
  endfacet
  facet normal -0.701888 0.00300899 0.712281
    outer loop
      vertex 13.8923 2.99343 114.246
      vertex 17 0 117.321
      vertex 13.914 3.08418 114.267
    endloop
  endfacet
  facet normal -0.703607 -0.000514339 0.710589
    outer loop
      vertex 13.8188 2.68653 114.173
      vertex 17 0 117.321
      vertex 13.8923 2.99343 114.246
    endloop
  endfacet
  facet normal -0.703701 -0.000733588 0.710496
    outer loop
      vertex 13.6647 2.32443 114.02
      vertex 17 0 117.321
      vertex 13.8188 2.68653 114.173
    endloop
  endfacet
  facet normal -0.703121 0.000913919 0.71107
    outer loop
      vertex 13.5046 2.08313 113.862
      vertex 17 0 117.321
      vertex 13.6647 2.32443 114.02
    endloop
  endfacet
  facet normal -0.704231 -0.00278487 0.709965
    outer loop
      vertex 13.4585 2.01371 113.816
      vertex 17 0 117.321
      vertex 13.5046 2.08313 113.862
    endloop
  endfacet
  facet normal -0.703101 0.00115926 0.711089
    outer loop
      vertex 13.2093 1.76795 113.57
      vertex 17 0 117.321
      vertex 13.4585 2.01371 113.816
    endloop
  endfacet
  facet normal -0.703238 0.000579563 0.710954
    outer loop
      vertex 13.1476 1.73071 113.509
      vertex 17 0 117.321
      vertex 13.2093 1.76795 113.57
    endloop
  endfacet
  facet normal -0.703721 -0.00154952 0.710475
    outer loop
      vertex 12.9278 1.59789 113.291
      vertex 17 0 117.321
      vertex 13.1476 1.73071 113.509
    endloop
  endfacet
  facet normal -0.702762 0.00326886 0.711417
    outer loop
      vertex 12.6906 1.5295 113.057
      vertex 17 0 117.321
      vertex 12.9278 1.59789 113.291
    endloop
  endfacet
  facet normal -0.704498 -0.00647552 0.709676
    outer loop
      vertex 12.6263 1.51096 112.993
      vertex 17 0 117.321
      vertex 12.6906 1.5295 113.057
    endloop
  endfacet
  facet normal -0.703522 -0.000796427 0.710673
    outer loop
      vertex 12.3182 1.51096 112.688
      vertex 17 0 117.321
      vertex 12.6263 1.51096 112.993
    endloop
  endfacet
  facet normal -0.703276 -0.00102876 0.710916
    outer loop
      vertex 0 0 100.5
      vertex 12.3182 1.51096 112.688
      vertex 12.2555 1.52903 112.626
    endloop
  endfacet
  facet normal -0.70326 -0.00128097 0.710932
    outer loop
      vertex 0 0 100.5
      vertex 12.2555 1.52903 112.626
      vertex 12.0168 1.59789 112.39
    endloop
  endfacet
  facet normal -0.703181 -0.00165136 0.711009
    outer loop
      vertex 0 0 100.5
      vertex 11.4452 2.07521 111.824
      vertex 11.2798 2.32443 111.661
    endloop
  endfacet
  facet normal -0.703338 0 0.710855
    outer loop
      vertex 0 0 100.5
      vertex 10.9983 3.5 111.382
      vertex 0 7 100.5
    endloop
  endfacet
  facet normal -0.70343 0.00056812 0.710765
    outer loop
      vertex 10.9983 3.5 111.382
      vertex 0 0 100.5
      vertex 11.0243 3.16431 111.408
    endloop
  endfacet
  facet normal -0.703177 -0.00116834 0.711014
    outer loop
      vertex 11.0243 3.16431 111.408
      vertex 0 0 100.5
      vertex 11.0305 3.08418 111.414
    endloop
  endfacet
  facet normal -0.703089 -0.00178582 0.711099
    outer loop
      vertex 11.0305 3.08418 111.414
      vertex 0 0 100.5
      vertex 11.0489 3.00743 111.432
    endloop
  endfacet
  facet normal -0.70334 2.6126e-05 0.710854
    outer loop
      vertex 11.0489 3.00743 111.432
      vertex 0 0 100.5
      vertex 11.1257 2.68653 111.508
    endloop
  endfacet
  facet normal -0.703452 0.000943788 0.710743
    outer loop
      vertex 11.1257 2.68653 111.508
      vertex 0 0 100.5
      vertex 11.2798 2.32443 111.661
    endloop
  endfacet
  facet normal -0.703915 0.00651575 0.710255
    outer loop
      vertex 11.4452 2.07521 111.824
      vertex 0 0 100.5
      vertex 11.486 2.01371 111.865
    endloop
  endfacet
  facet normal -0.703268 -0.000956099 0.710925
    outer loop
      vertex 11.486 2.01371 111.865
      vertex 0 0 100.5
      vertex 11.5356 1.96479 111.914
    endloop
  endfacet
  facet normal -0.703191 -0.00183223 0.710998
    outer loop
      vertex 11.5356 1.96479 111.914
      vertex 0 0 100.5
      vertex 11.7353 1.76795 112.111
    endloop
  endfacet
  facet normal -0.703354 0.000233628 0.710839
    outer loop
      vertex 12.3182 1.51096 112.688
      vertex 0 0 100.5
      vertex 17 0 117.321
    endloop
  endfacet
  facet normal -0.703454 0.00161116 0.710739
    outer loop
      vertex 11.7353 1.76795 112.111
      vertex 0 0 100.5
      vertex 12.0168 1.59789 112.39
    endloop
  endfacet
  facet normal 0.500002 0 0.866024
    outer loop
      vertex 17 7 117.321
      vertex 21.3301 0 114.821
      vertex 21.3301 7 114.821
    endloop
  endfacet
  facet normal 0.500002 0 0.866024
    outer loop
      vertex 21.3301 0 114.821
      vertex 17 7 117.321
      vertex 17 0 117.321
    endloop
  endfacet
  facet normal 0.497078 -0.107441 0.861028
    outer loop
      vertex 11.0305 3.91582 111.414
      vertex 17.2707 3.73563 107.789
      vertex 17.2802 3.91582 107.806
    endloop
  endfacet
  facet normal 0.497411 -0.102986 0.86138
    outer loop
      vertex 17.2707 3.73563 107.789
      vertex 11.0305 3.91582 111.414
      vertex 11.0243 3.83569 111.408
    endloop
  endfacet
  facet normal 0.475151 -0.310968 0.823123
    outer loop
      vertex 11.1257 4.31347 111.508
      vertex 17.3082 4.08814 107.854
      vertex 17.3448 4.31347 107.918
    endloop
  endfacet
  facet normal 0.475553 -0.308886 0.823674
    outer loop
      vertex 17.3082 4.08814 107.854
      vertex 11.1257 4.31347 111.508
      vertex 11.0489 3.99257 111.432
    endloop
  endfacet
  facet normal 0.497414 -0.102945 0.861384
    outer loop
      vertex 11.0243 3.83569 111.408
      vertex 17.2583 3.5 107.768
      vertex 17.2707 3.73563 107.789
    endloop
  endfacet
  facet normal 0.497203 -0.105214 0.861231
    outer loop
      vertex 17.2583 3.5 107.768
      vertex 11.0243 3.83569 111.408
      vertex 10.9983 3.5 111.382
    endloop
  endfacet
  facet normal 0.103925 -0.978163 0.179989
    outer loop
      vertex 18.0652 5.45137 109.165
      vertex 12.3182 5.48904 112.688
      vertex 12.2555 5.47097 112.626
    endloop
  endfacet
  facet normal 0.103703 -0.978253 0.179628
    outer loop
      vertex 12.3182 5.48904 112.688
      vertex 18.0652 5.45137 109.165
      vertex 18.1538 5.48904 109.319
    endloop
  endfacet
  facet normal -0.497255 0.104776 -0.861255
    outer loop
      vertex 19.2365 3.08418 111.194
      vertex 13.9462 3.5 114.299
      vertex 19.2583 3.5 111.232
    endloop
  endfacet
  facet normal -0.497254 0.104785 -0.861254
    outer loop
      vertex 13.9462 3.5 114.299
      vertex 19.2365 3.08418 111.194
      vertex 13.914 3.08418 114.267
    endloop
  endfacet
  facet normal -0.104105 -0.978081 -0.180331
    outer loop
      vertex 18.4515 5.45137 109.835
      vertex 12.9278 5.40211 113.291
      vertex 12.6906 5.4705 113.057
    endloop
  endfacet
  facet normal -0.104234 -0.978029 -0.180537
    outer loop
      vertex 12.9278 5.40211 113.291
      vertex 18.4515 5.45137 109.835
      vertex 18.5673 5.40211 110.035
    endloop
  endfacet
  facet normal 0.3699 -0.672647 0.640874
    outer loop
      vertex 17.5286 4.85164 108.236
      vertex 11.486 4.98629 111.865
      vertex 11.4452 4.92479 111.824
    endloop
  endfacet
  facet normal 0.371607 -0.66911 0.643584
    outer loop
      vertex 11.486 4.98629 111.865
      vertex 17.5286 4.85164 108.236
      vertex 17.5892 4.98629 108.341
    endloop
  endfacet
  facet normal 0.103703 0.978253 0.179628
    outer loop
      vertex 18.0652 1.54863 109.165
      vertex 12.3182 1.51096 112.688
      vertex 18.1538 1.51096 109.319
    endloop
  endfacet
  facet normal 0.103925 0.978163 0.179989
    outer loop
      vertex 12.3182 1.51096 112.688
      vertex 18.0652 1.54863 109.165
      vertex 12.2555 1.52903 112.626
    endloop
  endfacet
  facet normal 0.433046 -0.499896 0.75005
    outer loop
      vertex 11.2798 4.67557 111.661
      vertex 17.3448 4.31347 107.918
      vertex 17.4493 4.67557 108.099
    endloop
  endfacet
  facet normal 0.432705 -0.500877 0.749592
    outer loop
      vertex 17.3448 4.31347 107.918
      vertex 11.2798 4.67557 111.661
      vertex 11.1257 4.31347 111.508
    endloop
  endfacet
  facet normal -0.202951 0.913902 -0.351559
    outer loop
      vertex 18.5673 1.59789 110.035
      vertex 13.1476 1.73071 113.509
      vertex 18.6756 1.69426 110.223
    endloop
  endfacet
  facet normal -0.203157 0.913735 -0.351874
    outer loop
      vertex 13.1476 1.73071 113.509
      vertex 18.5673 1.59789 110.035
      vertex 12.9278 1.59789 113.291
    endloop
  endfacet
  facet normal 0.294236 -0.808517 0.509632
    outer loop
      vertex 17.6625 5.09279 108.468
      vertex 11.7353 5.23205 112.111
      vertex 11.5356 5.0352 111.914
    endloop
  endfacet
  facet normal 0.293883 -0.808996 0.509076
    outer loop
      vertex 11.7353 5.23205 112.111
      vertex 17.6625 5.09279 108.468
      vertex 17.7583 5.23205 108.634
    endloop
  endfacet
  facet normal 0.371973 -0.668246 0.64427
    outer loop
      vertex 17.4493 4.67557 108.099
      vertex 11.4452 4.92479 111.824
      vertex 11.2798 4.67557 111.661
    endloop
  endfacet
  facet normal 0.371808 -0.668574 0.644025
    outer loop
      vertex 11.4452 4.92479 111.824
      vertex 17.4493 4.67557 108.099
      vertex 17.5286 4.85164 108.236
    endloop
  endfacet
  facet normal -0.20329 -0.913608 -0.352127
    outer loop
      vertex 18.6756 5.30574 110.223
      vertex 13.2093 5.23205 113.57
      vertex 13.1476 5.26929 113.509
    endloop
  endfacet
  facet normal -0.203709 -0.913254 -0.352804
    outer loop
      vertex 13.2093 5.23205 113.57
      vertex 18.6756 5.30574 110.223
      vertex 18.7583 5.23205 110.366
    endloop
  endfacet
  facet normal 0.294149 -0.808672 0.509436
    outer loop
      vertex 17.5892 4.98629 108.341
      vertex 11.5356 5.0352 111.914
      vertex 11.486 4.98629 111.865
    endloop
  endfacet
  facet normal 0.293838 -0.809113 0.508915
    outer loop
      vertex 11.5356 5.0352 111.914
      vertex 17.5892 4.98629 108.341
      vertex 17.6625 5.09279 108.468
    endloop
  endfacet
  facet normal 0.293837 0.809113 0.508916
    outer loop
      vertex 17.5892 2.01371 108.341
      vertex 11.5356 1.96479 111.914
      vertex 17.6625 1.90721 108.468
    endloop
  endfacet
  facet normal 0.294189 0.808615 0.509504
    outer loop
      vertex 11.5356 1.96479 111.914
      vertex 17.5892 2.01371 108.341
      vertex 11.486 2.01371 111.865
    endloop
  endfacet
  facet normal -0.203157 -0.913735 -0.351874
    outer loop
      vertex 18.5673 5.40211 110.035
      vertex 13.1476 5.26929 113.509
      vertex 12.9278 5.40211 113.291
    endloop
  endfacet
  facet normal -0.202951 -0.913902 -0.351559
    outer loop
      vertex 13.1476 5.26929 113.509
      vertex 18.5673 5.40211 110.035
      vertex 18.6756 5.30574 110.223
    endloop
  endfacet
  facet normal -0.294262 -0.808509 -0.509631
    outer loop
      vertex 18.7583 5.23205 110.366
      vertex 13.4585 4.98629 113.816
      vertex 13.2093 5.23205 113.57
    endloop
  endfacet
  facet normal -0.293807 -0.809088 -0.508974
    outer loop
      vertex 13.4585 4.98629 113.816
      vertex 18.7583 5.23205 110.366
      vertex 18.9275 4.98629 110.659
    endloop
  endfacet
  facet normal -0.475875 -0.306913 -0.824225
    outer loop
      vertex 13.914 3.91582 114.267
      vertex 19.2085 4.08814 111.146
      vertex 19.2365 3.91582 111.194
    endloop
  endfacet
  facet normal -0.476281 -0.304749 -0.824794
    outer loop
      vertex 19.2085 4.08814 111.146
      vertex 13.914 3.91582 114.267
      vertex 13.8923 4.00657 114.246
    endloop
  endfacet
  facet normal -0.475196 -0.310968 -0.823097
    outer loop
      vertex 13.8923 4.00657 114.246
      vertex 19.1719 4.31347 111.082
      vertex 19.2085 4.08814 111.146
    endloop
  endfacet
  facet normal -0.475457 -0.309727 -0.823413
    outer loop
      vertex 19.1719 4.31347 111.082
      vertex 13.8923 4.00657 114.246
      vertex 13.8188 4.31347 114.173
    endloop
  endfacet
  facet normal 0.497414 0.102945 0.861384
    outer loop
      vertex 17.2583 3.5 107.768
      vertex 11.0243 3.16431 111.408
      vertex 17.2707 3.26437 107.789
    endloop
  endfacet
  facet normal 0.497203 0.105214 0.861231
    outer loop
      vertex 11.0243 3.16431 111.408
      vertex 17.2583 3.5 107.768
      vertex 10.9983 3.5 111.382
    endloop
  endfacet
  facet normal 0.104225 0.978039 0.180493
    outer loop
      vertex 17.9493 1.59789 108.965
      vertex 12.2555 1.52903 112.626
      vertex 18.0652 1.54863 109.165
    endloop
  endfacet
  facet normal 0.104024 0.978118 0.180181
    outer loop
      vertex 12.2555 1.52903 112.626
      vertex 17.9493 1.59789 108.965
      vertex 12.0168 1.59789 112.39
    endloop
  endfacet
  facet normal 0 1 -0
    outer loop
      vertex 18.1538 1.51096 109.319
      vertex 12.6263 1.51096 112.993
      vertex 18.3629 1.51096 109.681
    endloop
  endfacet
  facet normal 0 1 0
    outer loop
      vertex 12.6263 1.51096 112.993
      vertex 18.1538 1.51096 109.319
      vertex 12.3182 1.51096 112.688
    endloop
  endfacet
  facet normal 0.371594 0.669138 0.643562
    outer loop
      vertex 17.5286 2.14835 108.236
      vertex 11.486 2.01371 111.865
      vertex 17.5892 2.01371 108.341
    endloop
  endfacet
  facet normal 0.369901 0.672647 0.640874
    outer loop
      vertex 11.486 2.01371 111.865
      vertex 17.5286 2.14835 108.236
      vertex 11.4452 2.07521 111.824
    endloop
  endfacet
  facet normal 0.475847 -0.306913 0.824242
    outer loop
      vertex 11.0489 3.99257 111.432
      vertex 17.2802 3.91582 107.806
      vertex 17.3082 4.08814 107.854
    endloop
  endfacet
  facet normal 0.475773 -0.307342 0.824124
    outer loop
      vertex 17.2802 3.91582 107.806
      vertex 11.0489 3.99257 111.432
      vertex 11.0305 3.91582 111.414
    endloop
  endfacet
  facet normal 0.475847 0.306913 0.824242
    outer loop
      vertex 17.2802 3.08418 107.806
      vertex 11.0489 3.00743 111.432
      vertex 17.3082 2.91186 107.854
    endloop
  endfacet
  facet normal 0.475773 0.307342 0.824124
    outer loop
      vertex 11.0489 3.00743 111.432
      vertex 17.2802 3.08418 107.806
      vertex 11.0305 3.08418 111.414
    endloop
  endfacet
  facet normal 0.104024 -0.978118 0.180181
    outer loop
      vertex 17.9493 5.40211 108.965
      vertex 12.2555 5.47097 112.626
      vertex 12.0168 5.40211 112.39
    endloop
  endfacet
  facet normal 0.104225 -0.978039 0.180493
    outer loop
      vertex 12.2555 5.47097 112.626
      vertex 17.9493 5.40211 108.965
      vertex 18.0652 5.45137 109.165
    endloop
  endfacet
  facet normal 0.203172 -0.913706 0.351942
    outer loop
      vertex 17.7583 5.23205 108.634
      vertex 12.0168 5.40211 112.39
      vertex 11.7353 5.23205 112.111
    endloop
  endfacet
  facet normal 0.203277 -0.913622 0.352099
    outer loop
      vertex 12.0168 5.40211 112.39
      vertex 17.7583 5.23205 108.634
      vertex 17.9493 5.40211 108.965
    endloop
  endfacet
  facet normal 0 -1 0
    outer loop
      vertex 18.1538 5.48904 109.319
      vertex 12.6263 5.48904 112.993
      vertex 12.3182 5.48904 112.688
    endloop
  endfacet
  facet normal 0 -1 0
    outer loop
      vertex 12.6263 5.48904 112.993
      vertex 18.1538 5.48904 109.319
      vertex 18.3629 5.48904 109.681
    endloop
  endfacet
  facet normal -0.370516 -0.671367 -0.64186
    outer loop
      vertex 18.9275 4.98629 110.659
      vertex 13.5046 4.91687 113.862
      vertex 13.4585 4.98629 113.816
    endloop
  endfacet
  facet normal -0.371574 -0.66911 -0.643603
    outer loop
      vertex 13.5046 4.91687 113.862
      vertex 18.9275 4.98629 110.659
      vertex 18.9881 4.85164 110.764
    endloop
  endfacet
  facet normal -0.371851 -0.668471 -0.644106
    outer loop
      vertex 18.9881 4.85164 110.764
      vertex 13.6647 4.67557 114.02
      vertex 13.5046 4.91687 113.862
    endloop
  endfacet
  facet normal -0.371858 -0.668457 -0.644117
    outer loop
      vertex 13.6647 4.67557 114.02
      vertex 18.9881 4.85164 110.764
      vertex 19.0673 4.67557 110.901
    endloop
  endfacet
  facet normal -0.433057 -0.499986 -0.749984
    outer loop
      vertex 13.8188 4.31347 114.173
      vertex 19.0673 4.67557 110.901
      vertex 19.1719 4.31347 111.082
    endloop
  endfacet
  facet normal -0.432738 -0.500881 -0.74957
    outer loop
      vertex 19.0673 4.67557 110.901
      vertex 13.8188 4.31347 114.173
      vertex 13.6647 4.67557 114.02
    endloop
  endfacet
  facet normal -0.497255 -0.104776 -0.861255
    outer loop
      vertex 13.9462 3.5 114.299
      vertex 19.2365 3.91582 111.194
      vertex 19.2583 3.5 111.232
    endloop
  endfacet
  facet normal -0.497254 -0.104785 -0.861254
    outer loop
      vertex 19.2365 3.91582 111.194
      vertex 13.9462 3.5 114.299
      vertex 13.914 3.91582 114.267
    endloop
  endfacet
  facet normal 0.475151 0.310968 0.823123
    outer loop
      vertex 17.3082 2.91186 107.854
      vertex 11.1257 2.68653 111.508
      vertex 17.3448 2.68653 107.918
    endloop
  endfacet
  facet normal 0.475553 0.308886 0.823674
    outer loop
      vertex 11.1257 2.68653 111.508
      vertex 17.3082 2.91186 107.854
      vertex 11.0489 3.00743 111.432
    endloop
  endfacet
  facet normal 0.433046 0.499896 0.75005
    outer loop
      vertex 17.3448 2.68653 107.918
      vertex 11.2798 2.32443 111.661
      vertex 17.4493 2.32443 108.099
    endloop
  endfacet
  facet normal 0.432705 0.500877 0.749592
    outer loop
      vertex 11.2798 2.32443 111.661
      vertex 17.3448 2.68653 107.918
      vertex 11.1257 2.68653 111.508
    endloop
  endfacet
  facet normal 0.497078 0.107441 0.861028
    outer loop
      vertex 17.2707 3.26437 107.789
      vertex 11.0305 3.08418 111.414
      vertex 17.2802 3.08418 107.806
    endloop
  endfacet
  facet normal 0.497411 0.102986 0.86138
    outer loop
      vertex 11.0305 3.08418 111.414
      vertex 17.2707 3.26437 107.789
      vertex 11.0243 3.16431 111.408
    endloop
  endfacet
  facet normal 0.293883 0.808996 0.509076
    outer loop
      vertex 17.6625 1.90721 108.468
      vertex 11.7353 1.76795 112.111
      vertex 17.7583 1.76795 108.634
    endloop
  endfacet
  facet normal 0.294226 0.808531 0.509616
    outer loop
      vertex 11.7353 1.76795 112.111
      vertex 17.6625 1.90721 108.468
      vertex 11.5356 1.96479 111.914
    endloop
  endfacet
  facet normal 0.203277 0.913622 0.352099
    outer loop
      vertex 17.7583 1.76795 108.634
      vertex 12.0168 1.59789 112.39
      vertex 17.9493 1.59789 108.965
    endloop
  endfacet
  facet normal 0.203172 0.913706 0.351942
    outer loop
      vertex 12.0168 1.59789 112.39
      vertex 17.7583 1.76795 108.634
      vertex 11.7353 1.76795 112.111
    endloop
  endfacet
  facet normal 0.371818 0.668553 0.644041
    outer loop
      vertex 17.4493 2.32443 108.099
      vertex 11.4452 2.07521 111.824
      vertex 17.5286 2.14835 108.236
    endloop
  endfacet
  facet normal 0.371973 0.668246 0.64427
    outer loop
      vertex 11.4452 2.07521 111.824
      vertex 17.4493 2.32443 108.099
      vertex 11.2798 2.32443 111.661
    endloop
  endfacet
  facet normal -0.103556 -0.978317 -0.179365
    outer loop
      vertex 18.3629 5.48904 109.681
      vertex 12.6906 5.4705 113.057
      vertex 12.6263 5.48904 112.993
    endloop
  endfacet
  facet normal -0.10371 -0.978253 -0.179624
    outer loop
      vertex 12.6906 5.4705 113.057
      vertex 18.3629 5.48904 109.681
      vertex 18.4515 5.45137 109.835
    endloop
  endfacet
  facet normal -0.10371 0.978253 -0.179624
    outer loop
      vertex 18.3629 1.51096 109.681
      vertex 12.6906 1.5295 113.057
      vertex 18.4515 1.54863 109.835
    endloop
  endfacet
  facet normal -0.103556 0.978317 -0.179365
    outer loop
      vertex 12.6906 1.5295 113.057
      vertex 18.3629 1.51096 109.681
      vertex 12.6263 1.51096 112.993
    endloop
  endfacet
  facet normal -0.104234 0.978029 -0.180537
    outer loop
      vertex 18.4515 1.54863 109.835
      vertex 12.9278 1.59789 113.291
      vertex 18.5673 1.59789 110.035
    endloop
  endfacet
  facet normal -0.104105 0.978081 -0.180331
    outer loop
      vertex 12.9278 1.59789 113.291
      vertex 18.4515 1.54863 109.835
      vertex 12.6906 1.5295 113.057
    endloop
  endfacet
  facet normal -0.203709 0.913254 -0.352804
    outer loop
      vertex 18.6756 1.69426 110.223
      vertex 13.2093 1.76795 113.57
      vertex 18.7583 1.76795 110.366
    endloop
  endfacet
  facet normal -0.20329 0.913608 -0.352127
    outer loop
      vertex 13.2093 1.76795 113.57
      vertex 18.6756 1.69426 110.223
      vertex 13.1476 1.73071 113.509
    endloop
  endfacet
  facet normal -0.293807 0.809088 -0.508974
    outer loop
      vertex 18.7583 1.76795 110.366
      vertex 13.4585 2.01371 113.816
      vertex 18.9275 2.01371 110.659
    endloop
  endfacet
  facet normal -0.294262 0.808509 -0.509631
    outer loop
      vertex 13.4585 2.01371 113.816
      vertex 18.7583 1.76795 110.366
      vertex 13.2093 1.76795 113.57
    endloop
  endfacet
  facet normal -0.371868 0.668436 -0.644133
    outer loop
      vertex 18.9881 2.14835 110.764
      vertex 13.6647 2.32443 114.02
      vertex 19.0673 2.32443 110.901
    endloop
  endfacet
  facet normal -0.37185 0.668471 -0.644107
    outer loop
      vertex 13.6647 2.32443 114.02
      vertex 18.9881 2.14835 110.764
      vertex 13.5046 2.08313 113.862
    endloop
  endfacet
  facet normal -0.371561 0.669138 -0.643582
    outer loop
      vertex 18.9275 2.01371 110.659
      vertex 13.5046 2.08313 113.862
      vertex 18.9881 2.14835 110.764
    endloop
  endfacet
  facet normal -0.370516 0.671367 -0.64186
    outer loop
      vertex 13.5046 2.08313 113.862
      vertex 18.9275 2.01371 110.659
      vertex 13.4585 2.01371 113.816
    endloop
  endfacet
  facet normal -0.433057 0.499986 -0.749984
    outer loop
      vertex 19.0673 2.32443 110.901
      vertex 13.8188 2.68653 114.173
      vertex 19.1719 2.68653 111.082
    endloop
  endfacet
  facet normal -0.432738 0.500881 -0.74957
    outer loop
      vertex 13.8188 2.68653 114.173
      vertex 19.0673 2.32443 110.901
      vertex 13.6647 2.32443 114.02
    endloop
  endfacet
  facet normal -0.475875 0.306913 -0.824225
    outer loop
      vertex 19.2085 2.91186 111.146
      vertex 13.914 3.08418 114.267
      vertex 19.2365 3.08418 111.194
    endloop
  endfacet
  facet normal -0.476281 0.304749 -0.824794
    outer loop
      vertex 13.914 3.08418 114.267
      vertex 19.2085 2.91186 111.146
      vertex 13.8923 2.99343 114.246
    endloop
  endfacet
  facet normal -0.475196 0.310968 -0.823097
    outer loop
      vertex 19.1719 2.68653 111.082
      vertex 13.8923 2.99343 114.246
      vertex 19.2085 2.91186 111.146
    endloop
  endfacet
  facet normal -0.475457 0.309727 -0.823413
    outer loop
      vertex 13.8923 2.99343 114.246
      vertex 19.1719 2.68653 111.082
      vertex 13.8188 2.68653 114.173
    endloop
  endfacet
  facet normal -0 0 1
    outer loop
      vertex 49.2391 7 12
      vertex 74.4782 0 12
      vertex 74.4782 7 12
    endloop
  endfacet
  facet normal 0 0 1
    outer loop
      vertex 74.4782 0 12
      vertex 49.2391 7 12
      vertex 49.2391 0 12
    endloop
  endfacet
  facet normal -0 0 1
    outer loop
      vertex 12 7 12
      vertex 37.2391 0 12
      vertex 37.2391 7 12
    endloop
  endfacet
  facet normal 0 0 1
    outer loop
      vertex 37.2391 0 12
      vertex 12 7 12
      vertex 12 0 12
    endloop
  endfacet
  facet normal 1 -0 0
    outer loop
      vertex 74.4782 0 12
      vertex 74.4782 7 0
      vertex 74.4782 7 12
    endloop
  endfacet
  facet normal 1 0 0
    outer loop
      vertex 74.4782 7 0
      vertex 74.4782 0 12
      vertex 74.4782 0 0
    endloop
  endfacet
  facet normal 1 -0 0
    outer loop
      vertex 37.2391 0 12
      vertex 37.2391 7 6
      vertex 37.2391 7 12
    endloop
  endfacet
  facet normal 1 0 0
    outer loop
      vertex 37.2391 7 6
      vertex 37.2391 0 12
      vertex 37.2391 0 6
    endloop
  endfacet
  facet normal -1 0 0
    outer loop
      vertex 49.2391 0 6
      vertex 49.2391 7 12
      vertex 49.2391 7 6
    endloop
  endfacet
  facet normal -1 -0 0
    outer loop
      vertex 49.2391 7 12
      vertex 49.2391 0 6
      vertex 49.2391 0 12
    endloop
  endfacet
  facet normal -0 0 1
    outer loop
      vertex 37.2391 7 6
      vertex 49.2391 0 6
      vertex 49.2391 7 6
    endloop
  endfacet
  facet normal 0 0 1
    outer loop
      vertex 49.2391 0 6
      vertex 37.2391 7 6
      vertex 37.2391 0 6
    endloop
  endfacet
endsolid OpenSCAD_Model
